{"glyphs":{"0":{"ha":972,"x_min":81,"x_max":892,"o":"m 486 -22 q 182 122 283 -22 q 81 556 81 267 q 182 989 81 844 q 486 1133 283 1133 q 790 989 689 1133 q 892 556 892 844 q 790 122 892 267 q 486 -22 689 -22 m 486 126 q 674 231 614 126 q 733 556 733 335 q 674 881 733 776 q 486 985 614 985 q 299 881 358 985 q 239 556 239 776 q 299 231 239 335 q 486 126 358 126 m 193 426 l 774 865 l 774 685 l 193 246 l 193 426 z "},"1":{"ha":972,"x_min":149,"x_max":879,"o":"m 607 1111 l 607 149 l 879 149 l 879 0 l 149 0 l 149 149 l 449 149 l 449 1044 l 493 1018 l 149 794 l 149 964 l 382 1111 l 607 1111 z "},"2":{"ha":972,"x_min":124,"x_max":854,"o":"m 153 235 l 540 525 q 658 648 621 585 q 696 785 696 711 q 643 931 696 878 q 497 985 590 985 q 354 931 410 985 q 276 772 299 876 l 124 772 q 180 966 129 885 q 313 1090 231 1047 q 497 1133 396 1133 q 685 1090 606 1133 q 810 968 765 1046 q 854 785 854 890 q 799 583 854 676 q 631 408 743 490 l 288 163 l 288 149 l 832 149 l 832 0 l 153 0 l 153 235 z "},"3":{"ha":972,"x_min":114,"x_max":858,"o":"m 854 296 q 808 129 854 201 q 681 17 761 57 q 496 -22 600 -22 q 299 19 382 -22 q 169 138 215 60 q 121 325 124 217 l 272 325 q 344 178 286 229 q 494 126 403 126 q 599 149 554 126 q 669 212 644 171 q 694 307 694 253 q 642 440 694 389 q 504 492 590 492 l 374 492 l 374 639 l 504 639 q 647 686 593 639 q 701 808 701 733 q 647 936 701 888 q 500 985 592 985 q 344 931 404 985 q 265 772 285 876 l 114 772 q 168 968 119 888 q 301 1091 217 1049 q 501 1133 386 1133 q 688 1094 607 1133 q 813 986 768 1056 q 858 819 858 917 q 810 665 858 729 q 683 581 763 601 l 683 558 q 808 467 761 538 q 854 296 854 397 z "},"4":{"ha":972,"x_min":76,"x_max":900,"o":"m 735 1111 l 735 471 l 900 471 l 900 322 l 735 322 l 735 0 l 576 0 l 576 322 l 76 322 l 76 535 l 457 1111 l 735 1111 m 214 486 l 214 471 l 576 471 l 576 1096 l 619 1096 l 214 486 z "},"5":{"ha":972,"x_min":126,"x_max":863,"o":"m 165 1111 l 842 1111 l 842 963 l 261 963 l 324 1021 l 324 676 l 365 676 q 439 722 392 706 q 539 739 486 739 q 706 692 633 739 q 821 563 779 646 q 863 368 863 479 q 816 166 863 254 q 688 28 769 78 q 499 -22 606 -22 q 241 63 339 -22 q 126 297 143 147 l 281 297 q 356 171 303 215 q 496 126 410 126 q 606 156 560 126 q 678 241 653 186 q 704 368 704 296 q 679 492 704 440 q 609 571 654 543 q 500 599 564 599 q 384 569 433 599 q 310 481 335 539 l 165 481 l 165 1111 z "},"6":{"ha":972,"x_min":108,"x_max":864,"o":"m 485 -22 q 290 26 375 -22 q 157 159 206 74 q 108 356 108 244 q 142 528 108 440 q 247 722 175 615 l 513 1111 l 689 1111 l 424 729 l 446 707 q 483 716 463 713 q 524 719 503 719 q 699 672 622 719 q 820 543 776 625 q 864 356 864 461 q 815 159 864 244 q 681 26 767 74 q 485 -22 596 -22 m 267 356 q 294 236 267 288 q 372 156 322 185 q 486 126 421 126 q 602 156 553 126 q 678 236 651 185 q 706 356 706 288 q 678 474 706 424 q 602 553 651 525 q 486 582 553 582 q 372 553 421 582 q 294 474 322 525 q 267 356 267 424 z "},"7":{"ha":972,"x_min":133,"x_max":821,"o":"m 821 868 l 417 0 l 244 0 l 697 949 l 697 963 l 133 963 l 133 1111 l 821 1111 l 821 868 z "},"8":{"ha":972,"x_min":113,"x_max":860,"o":"m 486 638 q 649 683 590 638 q 707 811 707 729 q 649 939 707 893 q 486 985 590 985 q 324 939 382 985 q 265 811 265 893 q 324 683 265 729 q 486 638 382 638 m 113 822 q 159 987 113 917 q 290 1095 206 1057 q 486 1133 374 1133 q 683 1095 600 1133 q 813 987 767 1057 q 860 822 860 917 q 812 671 860 736 q 685 583 764 606 l 685 561 q 812 467 764 539 q 860 299 860 396 q 813 130 860 201 q 683 18 767 58 q 486 -22 599 -22 q 290 18 374 -22 q 159 130 206 58 q 113 299 113 201 q 160 467 113 396 q 288 561 208 539 l 288 583 q 160 671 208 606 q 113 822 113 736 m 271 311 q 328 176 271 225 q 486 126 385 126 q 644 176 588 126 q 701 311 701 225 q 644 447 701 399 q 486 496 588 496 q 328 447 385 496 q 271 311 271 399 z "},"9":{"ha":972,"x_min":108,"x_max":864,"o":"m 488 1133 q 682 1085 597 1133 q 815 952 767 1038 q 864 756 864 867 q 831 583 864 671 q 725 389 797 496 l 460 0 l 283 0 l 549 382 l 526 404 q 490 395 510 399 q 449 392 469 392 q 273 439 350 392 q 152 568 196 486 q 108 756 108 650 q 157 952 108 867 q 291 1085 206 1038 q 488 1133 376 1133 m 706 756 q 678 876 706 825 q 602 956 651 926 q 486 985 553 985 q 372 956 421 985 q 294 876 322 926 q 267 756 267 825 q 294 637 267 688 q 372 558 322 586 q 486 529 421 529 q 602 558 553 529 q 678 637 651 586 q 706 756 706 688 z "},"A":{"ha":972,"x_min":72,"x_max":900,"o":"m 72 0 l 357 1111 l 615 1111 l 900 0 l 735 0 l 489 993 l 475 993 l 228 0 l 72 0 m 246 376 l 246 526 l 726 526 l 726 376 l 246 376 z "},"Á":{"ha":972,"x_min":72,"x_max":900,"o":"m 72 0 l 357 1111 l 615 1111 l 900 0 l 735 0 l 489 993 l 475 993 l 228 0 l 72 0 m 246 376 l 246 526 l 726 526 l 726 376 l 246 376 m 418 1236 l 557 1444 l 735 1444 l 554 1236 l 418 1236 z "},"Ă":{"ha":972,"x_min":72,"x_max":900,"o":"m 72 0 l 357 1111 l 615 1111 l 900 0 l 735 0 l 489 993 l 475 993 l 228 0 l 72 0 m 246 376 l 246 526 l 726 526 l 726 376 l 246 376 m 383 1431 q 414 1353 388 1379 q 486 1328 440 1328 q 559 1353 533 1328 q 589 1431 585 1379 l 724 1431 q 656 1275 715 1328 q 486 1222 596 1222 q 317 1275 376 1222 q 249 1431 257 1328 l 383 1431 z "},"Ǎ":{"ha":972,"x_min":72,"x_max":900,"o":"m 72 0 l 357 1111 l 615 1111 l 900 0 l 735 0 l 489 993 l 475 993 l 228 0 l 72 0 m 246 376 l 246 526 l 726 526 l 726 376 l 246 376 m 708 1444 l 575 1236 l 397 1236 l 264 1444 l 397 1444 l 529 1283 l 443 1283 l 575 1444 l 708 1444 z "},"Â":{"ha":972,"x_min":72,"x_max":900,"o":"m 72 0 l 357 1111 l 615 1111 l 900 0 l 735 0 l 489 993 l 475 993 l 228 0 l 72 0 m 246 376 l 246 526 l 726 526 l 726 376 l 246 376 m 264 1236 l 397 1444 l 575 1444 l 708 1236 l 575 1236 l 443 1397 l 529 1397 l 397 1236 l 264 1236 z "},"Ä":{"ha":972,"x_min":72,"x_max":900,"o":"m 72 0 l 357 1111 l 615 1111 l 900 0 l 735 0 l 489 993 l 475 993 l 228 0 l 72 0 m 246 376 l 246 526 l 726 526 l 726 376 l 246 376 m 318 1247 q 242 1274 269 1247 q 214 1347 214 1301 q 242 1420 214 1393 q 318 1447 269 1447 q 394 1420 367 1447 q 422 1347 422 1393 q 394 1274 422 1301 q 318 1247 367 1247 m 654 1247 q 578 1274 606 1247 q 550 1347 550 1301 q 578 1420 550 1393 q 654 1447 606 1447 q 731 1420 703 1447 q 758 1347 758 1393 q 731 1274 758 1301 q 654 1247 703 1247 z "},"À":{"ha":972,"x_min":72,"x_max":900,"o":"m 72 0 l 357 1111 l 615 1111 l 900 0 l 735 0 l 489 993 l 475 993 l 228 0 l 72 0 m 246 376 l 246 526 l 726 526 l 726 376 l 246 376 m 554 1236 l 418 1236 l 239 1444 l 417 1444 l 554 1236 z "},"Ā":{"ha":972,"x_min":72,"x_max":900,"o":"m 72 0 l 357 1111 l 615 1111 l 900 0 l 735 0 l 489 993 l 475 993 l 228 0 l 72 0 m 246 376 l 246 526 l 726 526 l 726 376 l 246 376 m 263 1278 l 263 1403 l 710 1403 l 710 1278 l 263 1278 z "},"Ą":{"ha":972,"x_min":72,"x_max":900,"o":"m 72 0 l 357 1111 l 615 1111 l 900 0 l 735 0 l 489 993 l 475 993 l 228 0 l 72 0 m 246 376 l 246 526 l 726 526 l 726 376 l 246 376 m 826 -300 q 707 -264 751 -300 q 663 -164 663 -228 q 688 -74 663 -118 q 757 0 714 -31 l 824 3 l 899 0 q 828 -59 854 -25 q 801 -128 801 -93 q 817 -172 801 -156 q 860 -189 833 -189 q 881 -187 872 -189 q 899 -183 890 -186 l 899 -292 q 867 -298 885 -296 q 826 -300 850 -300 z "},"Å":{"ha":972,"x_min":72,"x_max":900,"o":"m 72 0 l 357 1111 l 615 1111 l 900 0 l 735 0 l 489 993 l 475 993 l 228 0 l 72 0 m 246 376 l 246 526 l 726 526 l 726 376 l 246 376 m 486 1206 q 369 1247 414 1206 q 324 1354 324 1288 q 369 1462 324 1421 q 486 1503 414 1503 q 603 1462 558 1503 q 649 1354 649 1421 q 603 1247 649 1288 q 486 1206 558 1206 m 486 1283 q 538 1303 518 1283 q 557 1354 557 1324 q 538 1406 557 1386 q 486 1425 518 1425 q 435 1406 454 1425 q 415 1354 415 1386 q 435 1303 415 1324 q 486 1283 454 1283 z "},"Ǻ":{"ha":972,"x_min":72,"x_max":900,"o":"m 72 0 l 357 1111 l 615 1111 l 900 0 l 735 0 l 489 993 l 475 993 l 228 0 l 72 0 m 246 376 l 246 526 l 726 526 l 726 376 l 246 376 m 486 1147 q 376 1174 415 1147 q 336 1250 336 1201 q 376 1326 336 1299 q 486 1353 415 1353 q 597 1326 558 1353 q 636 1250 636 1299 q 597 1174 636 1201 q 486 1147 558 1147 m 486 1217 q 542 1250 542 1217 q 486 1283 542 1283 q 431 1250 431 1283 q 486 1217 431 1217 m 422 1389 l 500 1503 l 660 1503 l 543 1389 l 422 1389 z "},"Ã":{"ha":972,"x_min":72,"x_max":900,"o":"m 72 0 l 357 1111 l 615 1111 l 900 0 l 735 0 l 489 993 l 475 993 l 228 0 l 72 0 m 246 376 l 246 526 l 726 526 l 726 376 l 246 376 m 244 1238 q 288 1391 253 1344 q 397 1438 324 1438 q 478 1421 449 1438 q 530 1388 508 1404 q 575 1371 551 1371 q 602 1388 593 1371 q 617 1443 611 1406 l 728 1443 q 684 1290 719 1338 q 575 1243 649 1243 q 494 1260 524 1243 q 443 1293 464 1276 q 397 1310 422 1310 q 371 1293 381 1310 q 356 1238 361 1276 l 244 1238 z "},"Æ":{"ha":972,"x_min":18,"x_max":926,"o":"m 493 0 l 493 376 l 244 376 l 244 515 l 493 515 l 493 963 l 449 963 l 176 0 l 18 0 l 340 1111 l 926 1111 l 926 963 l 649 963 l 649 629 l 871 629 l 871 490 l 649 490 l 649 149 l 913 149 l 913 0 l 493 0 z "},"Ǽ":{"ha":972,"x_min":18,"x_max":926,"o":"m 493 0 l 493 376 l 244 376 l 244 515 l 493 515 l 493 963 l 449 963 l 176 0 l 18 0 l 340 1111 l 926 1111 l 926 963 l 649 963 l 649 629 l 871 629 l 871 490 l 649 490 l 649 149 l 913 149 l 913 0 l 493 0 m 483 1236 l 622 1444 l 800 1444 l 619 1236 l 483 1236 z "},"B":{"ha":972,"x_min":169,"x_max":882,"o":"m 169 0 l 169 1111 l 500 1111 q 765 1031 668 1111 q 863 810 863 950 q 820 669 863 729 q 701 585 778 610 l 701 563 q 835 468 788 536 q 882 306 882 400 q 780 82 882 164 q 500 0 678 0 l 169 0 m 328 147 l 500 147 q 666 192 608 147 q 724 319 724 238 q 666 447 724 401 q 500 492 608 492 l 328 492 l 328 147 m 328 631 l 500 631 q 657 674 603 631 q 711 797 711 717 q 657 921 711 878 q 500 964 603 964 l 328 964 l 328 631 z "},"C":{"ha":972,"x_min":113,"x_max":896,"o":"m 510 -22 q 212 122 311 -22 q 113 556 113 265 q 215 990 113 846 q 522 1133 317 1133 q 714 1086 633 1133 q 841 948 794 1039 q 896 726 888 857 l 750 726 q 673 919 731 853 q 522 985 615 985 q 332 881 393 985 q 271 556 271 776 q 328 231 271 335 q 510 126 386 126 q 653 188 599 126 q 725 365 707 249 l 871 365 q 818 155 863 242 q 695 23 774 68 q 510 -22 617 -22 z "},"Ć":{"ha":972,"x_min":113,"x_max":896,"o":"m 510 -22 q 212 122 311 -22 q 113 556 113 265 q 215 990 113 846 q 522 1133 317 1133 q 714 1086 633 1133 q 841 948 794 1039 q 896 726 888 857 l 750 726 q 673 919 731 853 q 522 985 615 985 q 332 881 393 985 q 271 556 271 776 q 328 231 271 335 q 510 126 386 126 q 653 188 599 126 q 725 365 707 249 l 871 365 q 818 155 863 242 q 695 23 774 68 q 510 -22 617 -22 m 413 1236 l 551 1444 l 729 1444 l 549 1236 l 413 1236 z "},"Č":{"ha":972,"x_min":113,"x_max":896,"o":"m 510 -22 q 212 122 311 -22 q 113 556 113 265 q 215 990 113 846 q 522 1133 317 1133 q 714 1086 633 1133 q 841 948 794 1039 q 896 726 888 857 l 750 726 q 673 919 731 853 q 522 985 615 985 q 332 881 393 985 q 271 556 271 776 q 328 231 271 335 q 510 126 386 126 q 653 188 599 126 q 725 365 707 249 l 871 365 q 818 155 863 242 q 695 23 774 68 q 510 -22 617 -22 m 744 1444 l 611 1236 l 433 1236 l 300 1444 l 433 1444 l 565 1283 l 479 1283 l 611 1444 l 744 1444 z "},"Ç":{"ha":972,"x_min":113,"x_max":896,"o":"m 510 -22 q 212 122 311 -22 q 113 556 113 265 q 215 990 113 846 q 522 1133 317 1133 q 714 1086 633 1133 q 841 948 794 1039 q 896 726 888 857 l 750 726 q 673 919 731 853 q 522 985 615 985 q 332 881 393 985 q 271 556 271 776 q 328 231 271 335 q 510 126 386 126 q 653 188 599 126 q 725 365 707 249 l 871 365 q 818 155 863 242 q 695 23 774 68 q 510 -22 617 -22 m 488 28 l 607 28 l 586 -57 q 667 -97 639 -67 q 694 -171 694 -126 q 647 -266 694 -232 q 513 -300 599 -300 q 385 -267 432 -300 q 335 -175 339 -235 l 450 -175 q 472 -201 456 -192 q 513 -211 488 -211 q 549 -199 536 -211 q 563 -168 563 -187 q 550 -136 563 -149 q 513 -122 538 -124 l 456 -115 l 488 28 z "},"Ċ":{"ha":972,"x_min":113,"x_max":896,"o":"m 510 -22 q 212 122 311 -22 q 113 556 113 265 q 215 990 113 846 q 522 1133 317 1133 q 714 1086 633 1133 q 841 948 794 1039 q 896 726 888 857 l 750 726 q 673 919 731 853 q 522 985 615 985 q 332 881 393 985 q 271 556 271 776 q 328 231 271 335 q 510 126 386 126 q 653 188 599 126 q 725 365 707 249 l 871 365 q 818 155 863 242 q 695 23 774 68 q 510 -22 617 -22 m 522 1235 q 438 1265 468 1235 q 407 1347 407 1294 q 438 1430 407 1400 q 522 1460 468 1460 q 607 1430 576 1460 q 638 1347 638 1400 q 607 1265 638 1294 q 522 1235 576 1235 z "},"D":{"ha":972,"x_min":129,"x_max":892,"o":"m 129 0 l 129 1111 l 440 1111 q 778 972 665 1111 q 892 556 892 832 q 778 140 892 279 q 440 0 665 0 l 129 0 m 288 149 l 440 149 q 660 249 588 149 q 733 556 733 350 q 660 863 733 763 q 440 963 588 963 l 288 963 l 288 149 z "},"Ð":{"ha":972,"x_min":51,"x_max":892,"o":"m 51 482 l 51 629 l 444 629 l 444 482 l 51 482 m 129 0 l 129 1111 l 440 1111 q 778 972 665 1111 q 892 556 892 832 q 778 140 892 279 q 440 0 665 0 l 129 0 m 288 149 l 440 149 q 660 249 588 149 q 733 556 733 350 q 660 863 733 763 q 440 963 588 963 l 288 963 l 288 149 z "},"Ď":{"ha":972,"x_min":129,"x_max":892,"o":"m 129 0 l 129 1111 l 440 1111 q 778 972 665 1111 q 892 556 892 832 q 778 140 892 279 q 440 0 665 0 l 129 0 m 288 149 l 440 149 q 660 249 588 149 q 733 556 733 350 q 660 863 733 763 q 440 963 588 963 l 288 963 l 288 149 m 685 1444 l 551 1236 l 374 1236 l 240 1444 l 374 1444 l 506 1283 l 419 1283 l 551 1444 l 685 1444 z "},"Đ":{"ha":972,"x_min":51,"x_max":892,"o":"m 51 482 l 51 629 l 444 629 l 444 482 l 51 482 m 129 0 l 129 1111 l 440 1111 q 778 972 665 1111 q 892 556 892 832 q 778 140 892 279 q 440 0 665 0 l 129 0 m 288 149 l 440 149 q 660 249 588 149 q 733 556 733 350 q 660 863 733 763 q 440 963 588 963 l 288 963 l 288 149 z "},"Ḍ":{"ha":972,"x_min":129,"x_max":892,"o":"m 129 0 l 129 1111 l 440 1111 q 778 972 665 1111 q 892 556 892 832 q 778 140 892 279 q 440 0 665 0 l 129 0 m 288 149 l 440 149 q 660 249 588 149 q 733 556 733 350 q 660 863 733 763 q 440 963 588 963 l 288 963 l 288 149 m 463 -349 q 378 -319 408 -349 q 347 -236 347 -289 q 378 -153 347 -183 q 463 -124 408 -124 q 547 -153 517 -124 q 578 -236 578 -183 q 547 -319 578 -289 q 463 -349 517 -349 z "},"E":{"ha":972,"x_min":194,"x_max":851,"o":"m 194 0 l 194 1111 l 851 1111 l 851 963 l 353 963 l 353 629 l 782 629 l 782 490 l 353 490 l 353 149 l 838 149 l 838 0 l 194 0 z "},"É":{"ha":972,"x_min":194,"x_max":851,"o":"m 194 0 l 194 1111 l 851 1111 l 851 963 l 353 963 l 353 629 l 782 629 l 782 490 l 353 490 l 353 149 l 838 149 l 838 0 l 194 0 m 425 1236 l 564 1444 l 742 1444 l 561 1236 l 425 1236 z "},"Ě":{"ha":972,"x_min":194,"x_max":851,"o":"m 194 0 l 194 1111 l 851 1111 l 851 963 l 353 963 l 353 629 l 782 629 l 782 490 l 353 490 l 353 149 l 838 149 l 838 0 l 194 0 m 757 1444 l 624 1236 l 446 1236 l 313 1444 l 446 1444 l 578 1283 l 492 1283 l 624 1444 l 757 1444 z "},"Ê":{"ha":972,"x_min":194,"x_max":851,"o":"m 194 0 l 194 1111 l 851 1111 l 851 963 l 353 963 l 353 629 l 782 629 l 782 490 l 353 490 l 353 149 l 838 149 l 838 0 l 194 0 m 313 1236 l 446 1444 l 624 1444 l 757 1236 l 624 1236 l 492 1397 l 578 1397 l 446 1236 l 313 1236 z "},"Ë":{"ha":972,"x_min":194,"x_max":851,"o":"m 194 0 l 194 1111 l 851 1111 l 851 963 l 353 963 l 353 629 l 782 629 l 782 490 l 353 490 l 353 149 l 838 149 l 838 0 l 194 0 m 367 1247 q 290 1274 318 1247 q 263 1347 263 1301 q 290 1420 263 1393 q 367 1447 318 1447 q 443 1420 415 1447 q 471 1347 471 1393 q 443 1274 471 1301 q 367 1247 415 1247 m 703 1247 q 626 1274 654 1247 q 599 1347 599 1301 q 626 1420 599 1393 q 703 1447 654 1447 q 779 1420 751 1447 q 807 1347 807 1393 q 779 1274 807 1301 q 703 1247 751 1247 z "},"Ė":{"ha":972,"x_min":194,"x_max":851,"o":"m 194 0 l 194 1111 l 851 1111 l 851 963 l 353 963 l 353 629 l 782 629 l 782 490 l 353 490 l 353 149 l 838 149 l 838 0 l 194 0 m 535 1235 q 450 1265 481 1235 q 419 1347 419 1294 q 450 1430 419 1400 q 535 1460 481 1460 q 619 1430 589 1460 q 650 1347 650 1400 q 619 1265 650 1294 q 535 1235 589 1235 z "},"È":{"ha":972,"x_min":194,"x_max":851,"o":"m 194 0 l 194 1111 l 851 1111 l 851 963 l 353 963 l 353 629 l 782 629 l 782 490 l 353 490 l 353 149 l 838 149 l 838 0 l 194 0 m 643 1236 l 507 1236 l 328 1444 l 506 1444 l 643 1236 z "},"Ē":{"ha":972,"x_min":194,"x_max":851,"o":"m 194 0 l 194 1111 l 851 1111 l 851 963 l 353 963 l 353 629 l 782 629 l 782 490 l 353 490 l 353 149 l 838 149 l 838 0 l 194 0 m 311 1278 l 311 1403 l 758 1403 l 758 1278 l 311 1278 z "},"Ę":{"ha":972,"x_min":194,"x_max":851,"o":"m 194 0 l 194 1111 l 851 1111 l 851 963 l 353 963 l 353 629 l 782 629 l 782 490 l 353 490 l 353 149 l 838 149 l 838 0 l 194 0 m 753 -300 q 633 -264 678 -300 q 589 -164 589 -228 q 615 -74 589 -118 q 683 0 640 -31 l 750 3 l 825 0 q 754 -59 781 -25 q 728 -128 728 -93 q 744 -172 728 -156 q 786 -189 760 -189 q 808 -187 799 -189 q 825 -183 817 -186 l 825 -292 q 794 -298 811 -296 q 753 -300 776 -300 z "},"Ẽ":{"ha":972,"x_min":194,"x_max":851,"o":"m 194 0 l 194 1111 l 851 1111 l 851 963 l 353 963 l 353 629 l 782 629 l 782 490 l 353 490 l 353 149 l 838 149 l 838 0 l 194 0 m 293 1238 q 337 1391 301 1344 q 446 1438 372 1438 q 527 1421 497 1438 q 578 1388 557 1404 q 624 1371 600 1371 q 651 1388 642 1371 q 665 1443 660 1406 l 776 1443 q 733 1290 768 1338 q 624 1243 697 1243 q 542 1260 572 1243 q 492 1293 513 1276 q 446 1310 471 1310 q 419 1293 429 1310 q 404 1238 410 1276 l 293 1238 z "},"Ə":{"ha":972,"x_min":79,"x_max":892,"o":"m 786 463 l 218 463 l 258 528 q 313 223 258 321 q 482 125 367 125 q 672 227 610 125 q 733 546 733 329 q 670 880 733 774 q 472 986 607 986 q 327 933 388 986 q 228 768 267 879 l 79 768 q 217 1040 117 947 q 472 1133 318 1133 q 787 986 682 1133 q 892 546 892 839 q 789 120 892 263 q 482 -22 686 -22 q 195 113 290 -22 q 100 525 100 249 q 101 579 100 560 q 104 604 103 599 l 786 604 l 786 463 z "},"F":{"ha":972,"x_min":222,"x_max":879,"o":"m 222 0 l 222 1111 l 879 1111 l 879 963 l 381 963 l 381 613 l 810 613 l 810 474 l 381 474 l 381 0 l 222 0 z "},"G":{"ha":972,"x_min":99,"x_max":881,"o":"m 464 -21 q 195 126 292 -21 q 99 556 99 272 q 201 989 99 844 q 508 1133 304 1133 q 698 1088 618 1133 q 824 959 778 1043 q 881 754 871 875 l 733 754 q 657 925 713 865 q 508 985 601 985 q 318 881 379 985 q 257 556 257 776 q 318 224 257 331 q 507 118 379 118 q 614 158 565 118 q 692 263 663 197 q 721 408 721 329 l 485 408 l 485 556 l 856 556 l 856 0 l 721 0 l 721 88 l 679 88 q 599 8 656 38 q 464 -21 542 -21 z "},"Ğ":{"ha":972,"x_min":99,"x_max":881,"o":"m 464 -21 q 195 126 292 -21 q 99 556 99 272 q 201 989 99 844 q 508 1133 304 1133 q 698 1088 618 1133 q 824 959 778 1043 q 881 754 871 875 l 733 754 q 657 925 713 865 q 508 985 601 985 q 318 881 379 985 q 257 556 257 776 q 318 224 257 331 q 507 118 379 118 q 614 158 565 118 q 692 263 663 197 q 721 408 721 329 l 485 408 l 485 556 l 856 556 l 856 0 l 721 0 l 721 88 l 679 88 q 599 8 656 38 q 464 -21 542 -21 m 408 1431 q 439 1353 413 1379 q 511 1328 465 1328 q 584 1353 558 1328 q 614 1431 610 1379 l 749 1431 q 681 1275 740 1328 q 511 1222 621 1222 q 342 1275 401 1222 q 274 1431 282 1328 l 408 1431 z "},"Ǧ":{"ha":972,"x_min":99,"x_max":881,"o":"m 464 -21 q 195 126 292 -21 q 99 556 99 272 q 201 989 99 844 q 508 1133 304 1133 q 698 1088 618 1133 q 824 959 778 1043 q 881 754 871 875 l 733 754 q 657 925 713 865 q 508 985 601 985 q 318 881 379 985 q 257 556 257 776 q 318 224 257 331 q 507 118 379 118 q 614 158 565 118 q 692 263 663 197 q 721 408 721 329 l 485 408 l 485 556 l 856 556 l 856 0 l 721 0 l 721 88 l 679 88 q 599 8 656 38 q 464 -21 542 -21 m 733 1444 l 600 1236 l 422 1236 l 289 1444 l 422 1444 l 554 1283 l 468 1283 l 600 1444 l 733 1444 z "},"Ģ":{"ha":972,"x_min":99,"x_max":881,"o":"m 464 -21 q 195 126 292 -21 q 99 556 99 272 q 201 989 99 844 q 508 1133 304 1133 q 698 1088 618 1133 q 824 959 778 1043 q 881 754 871 875 l 733 754 q 657 925 713 865 q 508 985 601 985 q 318 881 379 985 q 257 556 257 776 q 318 224 257 331 q 507 118 379 118 q 614 158 565 118 q 692 263 663 197 q 721 408 721 329 l 485 408 l 485 556 l 856 556 l 856 0 l 721 0 l 721 88 l 679 88 q 599 8 656 38 q 464 -21 542 -21 m 508 -236 q 443 -215 468 -236 q 418 -160 418 -194 q 443 -104 418 -125 q 508 -83 468 -83 q 574 -104 549 -83 q 599 -160 599 -125 q 574 -215 599 -194 q 508 -236 549 -236 m 411 -347 q 483 -282 458 -315 q 508 -225 508 -249 l 508 -83 q 579 -108 554 -83 q 604 -181 604 -133 q 589 -265 604 -221 q 547 -347 574 -308 l 411 -347 z "},"Ġ":{"ha":972,"x_min":99,"x_max":881,"o":"m 464 -21 q 195 126 292 -21 q 99 556 99 272 q 201 989 99 844 q 508 1133 304 1133 q 698 1088 618 1133 q 824 959 778 1043 q 881 754 871 875 l 733 754 q 657 925 713 865 q 508 985 601 985 q 318 881 379 985 q 257 556 257 776 q 318 224 257 331 q 507 118 379 118 q 614 158 565 118 q 692 263 663 197 q 721 408 721 329 l 485 408 l 485 556 l 856 556 l 856 0 l 721 0 l 721 88 l 679 88 q 599 8 656 38 q 464 -21 542 -21 m 511 1235 q 426 1265 457 1235 q 396 1347 396 1294 q 426 1430 396 1400 q 511 1460 457 1460 q 596 1430 565 1460 q 626 1347 626 1400 q 596 1265 626 1294 q 511 1235 565 1235 z "},"H":{"ha":972,"x_min":129,"x_max":843,"o":"m 129 0 l 129 1111 l 288 1111 l 288 635 l 685 635 l 685 1111 l 843 1111 l 843 0 l 685 0 l 685 485 l 288 485 l 288 0 l 129 0 z "},"Ħ":{"ha":972,"x_min":32,"x_max":940,"o":"m 143 0 l 143 1111 l 301 1111 l 301 635 l 671 635 l 671 1111 l 829 1111 l 829 0 l 671 0 l 671 485 l 301 485 l 301 0 l 143 0 m 32 833 l 32 958 l 940 958 l 940 833 l 32 833 z "},"Ḥ":{"ha":972,"x_min":129,"x_max":843,"o":"m 129 0 l 129 1111 l 288 1111 l 288 635 l 685 635 l 685 1111 l 843 1111 l 843 0 l 685 0 l 685 485 l 288 485 l 288 0 l 129 0 m 486 -349 q 401 -319 432 -349 q 371 -236 371 -289 q 401 -153 371 -183 q 486 -124 432 -124 q 571 -153 540 -124 q 601 -236 601 -183 q 571 -319 601 -289 q 486 -349 540 -349 z "},"I":{"ha":972,"x_min":129,"x_max":843,"o":"m 129 0 l 129 149 l 407 149 l 407 963 l 129 963 l 129 1111 l 843 1111 l 843 963 l 565 963 l 565 149 l 843 149 l 843 0 l 129 0 z "},"Ĳ":{"ha":972,"x_min":101,"x_max":871,"o":"m 101 0 l 101 1111 l 260 1111 l 260 0 l 101 0 m 513 -22 l 440 -22 l 440 126 l 513 126 q 660 184 607 126 q 713 343 713 242 l 713 1111 l 871 1111 l 871 329 q 828 141 871 219 q 705 20 785 63 q 513 -22 625 -22 z "},"Í":{"ha":972,"x_min":129,"x_max":843,"o":"m 129 0 l 129 149 l 407 149 l 407 963 l 129 963 l 129 1111 l 843 1111 l 843 963 l 565 963 l 565 149 l 843 149 l 843 0 l 129 0 m 376 1236 l 515 1444 l 693 1444 l 513 1236 l 376 1236 z "},"Î":{"ha":972,"x_min":129,"x_max":843,"o":"m 129 0 l 129 149 l 407 149 l 407 963 l 129 963 l 129 1111 l 843 1111 l 843 963 l 565 963 l 565 149 l 843 149 l 843 0 l 129 0 m 264 1236 l 397 1444 l 575 1444 l 708 1236 l 575 1236 l 443 1397 l 529 1397 l 397 1236 l 264 1236 z "},"Ï":{"ha":972,"x_min":129,"x_max":843,"o":"m 129 0 l 129 149 l 407 149 l 407 963 l 129 963 l 129 1111 l 843 1111 l 843 963 l 565 963 l 565 149 l 843 149 l 843 0 l 129 0 m 318 1247 q 242 1274 269 1247 q 214 1347 214 1301 q 242 1420 214 1393 q 318 1447 269 1447 q 394 1420 367 1447 q 422 1347 422 1393 q 394 1274 422 1301 q 318 1247 367 1247 m 654 1247 q 578 1274 606 1247 q 550 1347 550 1301 q 578 1420 550 1393 q 654 1447 606 1447 q 731 1420 703 1447 q 758 1347 758 1393 q 731 1274 758 1301 q 654 1247 703 1247 z "},"İ":{"ha":972,"x_min":129,"x_max":843,"o":"m 129 0 l 129 149 l 407 149 l 407 963 l 129 963 l 129 1111 l 843 1111 l 843 963 l 565 963 l 565 149 l 843 149 l 843 0 l 129 0 m 486 1235 q 401 1265 432 1235 q 371 1347 371 1294 q 401 1430 371 1400 q 486 1460 432 1460 q 571 1430 540 1460 q 601 1347 601 1400 q 571 1265 601 1294 q 486 1235 540 1235 z "},"Ị":{"ha":972,"x_min":129,"x_max":843,"o":"m 129 0 l 129 149 l 407 149 l 407 963 l 129 963 l 129 1111 l 843 1111 l 843 963 l 565 963 l 565 149 l 843 149 l 843 0 l 129 0 m 486 -349 q 401 -319 432 -349 q 371 -236 371 -289 q 401 -153 371 -183 q 486 -124 432 -124 q 571 -153 540 -124 q 601 -236 601 -183 q 571 -319 601 -289 q 486 -349 540 -349 z "},"Ì":{"ha":972,"x_min":129,"x_max":843,"o":"m 129 0 l 129 149 l 407 149 l 407 963 l 129 963 l 129 1111 l 843 1111 l 843 963 l 565 963 l 565 149 l 843 149 l 843 0 l 129 0 m 596 1236 l 460 1236 l 279 1444 l 457 1444 l 596 1236 z "},"Ī":{"ha":972,"x_min":129,"x_max":843,"o":"m 129 0 l 129 149 l 407 149 l 407 963 l 129 963 l 129 1111 l 843 1111 l 843 963 l 565 963 l 565 149 l 843 149 l 843 0 l 129 0 m 263 1278 l 263 1403 l 710 1403 l 710 1278 l 263 1278 z "},"Į":{"ha":972,"x_min":129,"x_max":843,"o":"m 129 0 l 129 149 l 407 149 l 407 963 l 129 963 l 129 1111 l 843 1111 l 843 963 l 565 963 l 565 149 l 843 149 l 843 0 l 129 0 m 757 -300 q 638 -264 682 -300 q 593 -164 593 -228 q 619 -74 593 -118 q 688 0 644 -31 l 754 3 l 829 0 q 758 -59 785 -25 q 732 -128 732 -93 q 748 -172 732 -156 q 790 -189 764 -189 q 812 -187 803 -189 q 829 -183 821 -186 l 829 -292 q 798 -298 815 -296 q 757 -300 781 -300 z "},"Ĩ":{"ha":972,"x_min":129,"x_max":843,"o":"m 129 0 l 129 149 l 407 149 l 407 963 l 129 963 l 129 1111 l 843 1111 l 843 963 l 565 963 l 565 149 l 843 149 l 843 0 l 129 0 m 244 1238 q 288 1391 253 1344 q 397 1438 324 1438 q 478 1421 449 1438 q 530 1388 508 1404 q 575 1371 551 1371 q 602 1388 593 1371 q 617 1443 611 1406 l 728 1443 q 684 1290 719 1338 q 575 1243 649 1243 q 494 1260 524 1243 q 443 1293 464 1276 q 397 1310 422 1310 q 371 1293 381 1310 q 356 1238 361 1276 l 244 1238 z "},"J":{"ha":972,"x_min":107,"x_max":819,"o":"m 461 -22 q 272 20 351 -22 q 149 141 192 63 q 107 329 107 219 l 107 486 l 263 486 l 263 343 q 315 184 263 242 q 461 126 368 126 q 608 184 556 126 q 661 343 661 242 l 661 958 l 188 958 l 188 1111 l 819 1111 l 819 329 q 776 141 819 219 q 653 20 733 63 q 461 -22 574 -22 z "},"K":{"ha":972,"x_min":192,"x_max":901,"o":"m 192 1111 l 350 1111 l 350 0 l 192 0 l 192 1111 m 693 0 l 303 538 l 718 1111 l 901 1111 l 490 544 l 886 0 l 693 0 z "},"Ķ":{"ha":972,"x_min":192,"x_max":901,"o":"m 192 1111 l 350 1111 l 350 0 l 192 0 l 192 1111 m 693 0 l 303 538 l 718 1111 l 901 1111 l 490 544 l 886 0 l 693 0 m 507 -236 q 442 -215 467 -236 q 417 -160 417 -194 q 442 -104 417 -125 q 507 -83 467 -83 q 572 -104 547 -83 q 597 -160 597 -125 q 572 -215 597 -194 q 507 -236 547 -236 m 410 -347 q 482 -282 457 -315 q 507 -225 507 -249 l 507 -83 q 578 -108 553 -83 q 603 -181 603 -133 q 588 -265 603 -221 q 546 -347 572 -308 l 410 -347 z "},"L":{"ha":972,"x_min":250,"x_max":879,"o":"m 250 0 l 250 1111 l 408 1111 l 408 149 l 879 149 l 879 0 l 250 0 z "},"Ĺ":{"ha":972,"x_min":250,"x_max":879,"o":"m 250 0 l 250 1111 l 408 1111 l 408 149 l 879 149 l 879 0 l 250 0 m 264 1236 l 403 1444 l 581 1444 l 400 1236 l 264 1236 z "},"Ľ":{"ha":972,"x_min":250,"x_max":879,"o":"m 250 0 l 250 1111 l 408 1111 l 408 149 l 879 149 l 879 0 l 250 0 m 538 833 l 594 1111 l 747 1111 l 663 833 l 538 833 z "},"Ļ":{"ha":972,"x_min":250,"x_max":879,"o":"m 250 0 l 250 1111 l 408 1111 l 408 149 l 879 149 l 879 0 l 250 0 m 563 -236 q 497 -215 522 -236 q 472 -160 472 -194 q 497 -104 472 -125 q 563 -83 522 -83 q 628 -104 603 -83 q 653 -160 653 -125 q 628 -215 653 -194 q 563 -236 603 -236 m 465 -347 q 538 -282 513 -315 q 563 -225 563 -249 l 563 -83 q 633 -108 608 -83 q 658 -181 658 -133 q 643 -265 658 -221 q 601 -347 628 -308 l 465 -347 z "},"Ŀ":{"ha":1042,"x_min":250,"x_max":879,"o":"m 250 0 l 250 1111 l 408 1111 l 408 149 l 879 149 l 879 0 l 250 0 m 679 425 q 585 460 618 425 q 551 558 551 494 q 585 656 551 621 q 679 690 618 690 q 774 656 740 690 q 807 558 807 621 q 774 460 807 494 q 679 425 740 425 z "},"Ł":{"ha":972,"x_min":115,"x_max":879,"o":"m 115 332 l 115 486 l 633 771 l 633 617 l 115 332 m 250 0 l 250 1111 l 408 1111 l 408 149 l 879 149 l 879 0 l 250 0 z "},"M":{"ha":972,"x_min":101,"x_max":871,"o":"m 101 0 l 101 1111 l 353 1111 l 483 468 l 499 468 l 628 1111 l 871 1111 l 871 0 l 726 0 l 726 639 l 732 1000 l 715 1000 l 592 375 l 382 375 l 257 1000 l 240 1000 l 246 639 l 246 0 l 101 0 z "},"N":{"ha":972,"x_min":119,"x_max":853,"o":"m 119 0 l 119 1111 l 389 1111 l 697 101 l 713 101 l 707 421 l 707 1111 l 853 1111 l 853 0 l 583 0 l 275 1010 l 260 1010 l 265 690 l 265 0 l 119 0 z "},"Ń":{"ha":972,"x_min":119,"x_max":853,"o":"m 119 0 l 119 1111 l 389 1111 l 697 101 l 713 101 l 707 421 l 707 1111 l 853 1111 l 853 0 l 583 0 l 275 1010 l 260 1010 l 265 690 l 265 0 l 119 0 m 376 1236 l 515 1444 l 693 1444 l 513 1236 l 376 1236 z "},"Ň":{"ha":972,"x_min":119,"x_max":853,"o":"m 119 0 l 119 1111 l 389 1111 l 697 101 l 713 101 l 707 421 l 707 1111 l 853 1111 l 853 0 l 583 0 l 275 1010 l 260 1010 l 265 690 l 265 0 l 119 0 m 708 1444 l 575 1236 l 397 1236 l 264 1444 l 397 1444 l 529 1283 l 443 1283 l 575 1444 l 708 1444 z "},"Ņ":{"ha":972,"x_min":119,"x_max":853,"o":"m 119 0 l 119 1111 l 389 1111 l 697 101 l 713 101 l 707 421 l 707 1111 l 853 1111 l 853 0 l 583 0 l 275 1010 l 260 1010 l 265 690 l 265 0 l 119 0 m 483 -236 q 418 -215 443 -236 q 393 -160 393 -194 q 418 -104 393 -125 q 483 -83 443 -83 q 549 -104 524 -83 q 574 -160 574 -125 q 549 -215 574 -194 q 483 -236 524 -236 m 386 -347 q 458 -282 433 -315 q 483 -225 483 -249 l 483 -83 q 554 -108 529 -83 q 579 -181 579 -133 q 564 -265 579 -221 q 522 -347 549 -308 l 386 -347 z "},"Ɲ":{"ha":972,"x_min":-26,"x_max":853,"o":"m -26 -332 l -26 -201 l 0 -201 q 90 -165 60 -201 q 119 -60 119 -129 l 119 0 l 190 28 l 265 0 l 265 -51 q 199 -261 265 -190 q 3 -332 133 -332 l -26 -332 m 119 0 l 119 1111 l 389 1111 l 697 101 l 713 101 l 707 421 l 707 1111 l 853 1111 l 853 0 l 583 0 l 275 1010 l 260 1010 l 265 690 l 265 0 l 119 0 z "},"Ñ":{"ha":972,"x_min":119,"x_max":853,"o":"m 119 0 l 119 1111 l 389 1111 l 697 101 l 713 101 l 707 421 l 707 1111 l 853 1111 l 853 0 l 583 0 l 275 1010 l 260 1010 l 265 690 l 265 0 l 119 0 m 244 1238 q 288 1391 253 1344 q 397 1438 324 1438 q 478 1421 449 1438 q 530 1388 508 1404 q 575 1371 551 1371 q 602 1388 593 1371 q 617 1443 611 1406 l 728 1443 q 684 1290 719 1338 q 575 1243 649 1243 q 494 1260 524 1243 q 443 1293 464 1276 q 397 1310 422 1310 q 371 1293 381 1310 q 356 1238 361 1276 l 244 1238 z "},"Ŋ":{"ha":972,"x_min":119,"x_max":853,"o":"m 563 -332 l 563 -201 l 588 -201 q 677 -165 647 -201 q 707 -60 707 -129 l 707 0 l 779 28 l 853 0 l 853 -51 q 787 -261 853 -190 q 590 -332 721 -332 l 563 -332 m 119 0 l 119 1111 l 389 1111 l 697 101 l 713 101 l 707 421 l 707 1111 l 853 1111 l 853 0 l 583 0 l 275 1010 l 260 1010 l 265 690 l 265 0 l 119 0 z "},"O":{"ha":972,"x_min":81,"x_max":892,"o":"m 486 -22 q 182 122 283 -22 q 81 556 81 267 q 182 989 81 844 q 486 1133 283 1133 q 790 989 689 1133 q 892 556 892 844 q 790 122 892 267 q 486 -22 689 -22 m 486 126 q 674 231 614 126 q 733 556 733 335 q 674 881 733 776 q 486 985 614 985 q 299 881 358 985 q 239 556 239 776 q 299 231 239 335 q 486 126 358 126 z "},"Ó":{"ha":972,"x_min":81,"x_max":892,"o":"m 486 -22 q 182 122 283 -22 q 81 556 81 267 q 182 989 81 844 q 486 1133 283 1133 q 790 989 689 1133 q 892 556 892 844 q 790 122 892 267 q 486 -22 689 -22 m 486 126 q 674 231 614 126 q 733 556 733 335 q 674 881 733 776 q 486 985 614 985 q 299 881 358 985 q 239 556 239 776 q 299 231 239 335 q 486 126 358 126 m 376 1236 l 515 1444 l 693 1444 l 513 1236 l 376 1236 z "},"Ô":{"ha":972,"x_min":81,"x_max":892,"o":"m 486 -22 q 182 122 283 -22 q 81 556 81 267 q 182 989 81 844 q 486 1133 283 1133 q 790 989 689 1133 q 892 556 892 844 q 790 122 892 267 q 486 -22 689 -22 m 486 126 q 674 231 614 126 q 733 556 733 335 q 674 881 733 776 q 486 985 614 985 q 299 881 358 985 q 239 556 239 776 q 299 231 239 335 q 486 126 358 126 m 264 1236 l 397 1444 l 575 1444 l 708 1236 l 575 1236 l 443 1397 l 529 1397 l 397 1236 l 264 1236 z "},"Ö":{"ha":972,"x_min":81,"x_max":892,"o":"m 486 -22 q 182 122 283 -22 q 81 556 81 267 q 182 989 81 844 q 486 1133 283 1133 q 790 989 689 1133 q 892 556 892 844 q 790 122 892 267 q 486 -22 689 -22 m 486 126 q 674 231 614 126 q 733 556 733 335 q 674 881 733 776 q 486 985 614 985 q 299 881 358 985 q 239 556 239 776 q 299 231 239 335 q 486 126 358 126 m 318 1247 q 242 1274 269 1247 q 214 1347 214 1301 q 242 1420 214 1393 q 318 1447 269 1447 q 394 1420 367 1447 q 422 1347 422 1393 q 394 1274 422 1301 q 318 1247 367 1247 m 654 1247 q 578 1274 606 1247 q 550 1347 550 1301 q 578 1420 550 1393 q 654 1447 606 1447 q 731 1420 703 1447 q 758 1347 758 1393 q 731 1274 758 1301 q 654 1247 703 1247 z "},"Ọ":{"ha":972,"x_min":81,"x_max":892,"o":"m 486 -22 q 182 122 283 -22 q 81 556 81 267 q 182 989 81 844 q 486 1133 283 1133 q 790 989 689 1133 q 892 556 892 844 q 790 122 892 267 q 486 -22 689 -22 m 486 126 q 674 231 614 126 q 733 556 733 335 q 674 881 733 776 q 486 985 614 985 q 299 881 358 985 q 239 556 239 776 q 299 231 239 335 q 486 126 358 126 m 486 -349 q 401 -319 432 -349 q 371 -236 371 -289 q 401 -153 371 -183 q 486 -124 432 -124 q 571 -153 540 -124 q 601 -236 601 -183 q 571 -319 601 -289 q 486 -349 540 -349 z "},"Ò":{"ha":972,"x_min":81,"x_max":892,"o":"m 486 -22 q 182 122 283 -22 q 81 556 81 267 q 182 989 81 844 q 486 1133 283 1133 q 790 989 689 1133 q 892 556 892 844 q 790 122 892 267 q 486 -22 689 -22 m 486 126 q 674 231 614 126 q 733 556 733 335 q 674 881 733 776 q 486 985 614 985 q 299 881 358 985 q 239 556 239 776 q 299 231 239 335 q 486 126 358 126 m 596 1236 l 460 1236 l 279 1444 l 457 1444 l 596 1236 z "},"Ő":{"ha":972,"x_min":81,"x_max":892,"o":"m 486 -22 q 182 122 283 -22 q 81 556 81 267 q 182 989 81 844 q 486 1133 283 1133 q 790 989 689 1133 q 892 556 892 844 q 790 122 892 267 q 486 -22 689 -22 m 486 126 q 674 231 614 126 q 733 556 733 335 q 674 881 733 776 q 486 985 614 985 q 299 881 358 985 q 239 556 239 776 q 299 231 239 335 q 486 126 358 126 m 251 1236 l 371 1444 l 543 1444 l 382 1236 l 251 1236 m 514 1236 l 675 1444 l 858 1444 l 656 1236 l 514 1236 z "},"Ō":{"ha":972,"x_min":81,"x_max":892,"o":"m 486 -22 q 182 122 283 -22 q 81 556 81 267 q 182 989 81 844 q 486 1133 283 1133 q 790 989 689 1133 q 892 556 892 844 q 790 122 892 267 q 486 -22 689 -22 m 486 126 q 674 231 614 126 q 733 556 733 335 q 674 881 733 776 q 486 985 614 985 q 299 881 358 985 q 239 556 239 776 q 299 231 239 335 q 486 126 358 126 m 263 1278 l 263 1403 l 710 1403 l 710 1278 l 263 1278 z "},"Ø":{"ha":972,"x_min":81,"x_max":892,"o":"m 743 1133 l 892 1133 l 229 -22 l 81 -22 l 743 1133 m 486 -22 q 182 122 283 -22 q 81 556 81 267 q 182 989 81 844 q 486 1133 283 1133 q 790 989 689 1133 q 892 556 892 844 q 790 122 892 267 q 486 -22 689 -22 m 486 126 q 674 231 614 126 q 733 556 733 335 q 674 881 733 776 q 486 985 614 985 q 299 881 358 985 q 239 556 239 776 q 299 231 239 335 q 486 126 358 126 z "},"Ǿ":{"ha":972,"x_min":81,"x_max":892,"o":"m 743 1133 l 892 1133 l 229 -22 l 81 -22 l 743 1133 m 486 -22 q 182 122 283 -22 q 81 556 81 267 q 182 989 81 844 q 486 1133 283 1133 q 790 989 689 1133 q 892 556 892 844 q 790 122 892 267 q 486 -22 689 -22 m 486 126 q 674 231 614 126 q 733 556 733 335 q 674 881 733 776 q 486 985 614 985 q 299 881 358 985 q 239 556 239 776 q 299 231 239 335 q 486 126 358 126 m 376 1236 l 515 1444 l 693 1444 l 513 1236 l 376 1236 z "},"Õ":{"ha":972,"x_min":81,"x_max":892,"o":"m 486 -22 q 182 122 283 -22 q 81 556 81 267 q 182 989 81 844 q 486 1133 283 1133 q 790 989 689 1133 q 892 556 892 844 q 790 122 892 267 q 486 -22 689 -22 m 486 126 q 674 231 614 126 q 733 556 733 335 q 674 881 733 776 q 486 985 614 985 q 299 881 358 985 q 239 556 239 776 q 299 231 239 335 q 486 126 358 126 m 244 1238 q 288 1391 253 1344 q 397 1438 324 1438 q 478 1421 449 1438 q 530 1388 508 1404 q 575 1371 551 1371 q 602 1388 593 1371 q 617 1443 611 1406 l 728 1443 q 684 1290 719 1338 q 575 1243 649 1243 q 494 1260 524 1243 q 443 1293 464 1276 q 397 1310 422 1310 q 371 1293 381 1310 q 356 1238 361 1276 l 244 1238 z "},"Œ":{"ha":972,"x_min":50,"x_max":958,"o":"m 318 -22 q 197 9 249 -22 q 113 109 146 40 q 65 288 81 178 q 50 556 50 399 q 65 823 50 713 q 113 1002 81 933 q 197 1102 146 1071 q 318 1133 249 1133 q 422 1111 379 1133 q 490 1044 464 1089 l 518 1044 l 518 1111 l 958 1111 l 958 963 l 675 963 l 675 629 l 907 629 l 907 490 l 675 490 l 675 149 l 944 149 l 944 0 l 518 0 l 518 67 l 490 67 q 422 0 464 22 q 318 -22 379 -22 m 365 126 q 440 147 410 126 q 488 217 471 168 q 513 350 506 267 q 521 556 521 433 q 513 762 521 679 q 488 894 506 844 q 440 964 471 943 q 365 985 410 985 q 290 964 319 985 q 242 894 260 943 q 216 762 224 844 q 208 556 208 679 q 216 350 208 433 q 242 217 224 267 q 290 147 260 168 q 365 126 319 126 z "},"P":{"ha":972,"x_min":181,"x_max":908,"o":"m 181 0 l 181 1111 l 561 1111 q 744 1071 667 1111 q 865 958 822 1031 q 908 785 908 885 q 865 612 908 685 q 744 499 822 539 q 561 460 667 460 l 339 460 l 339 0 l 181 0 m 339 601 l 567 601 q 701 650 651 601 q 750 782 750 699 q 701 914 750 865 q 567 963 651 963 l 339 963 l 339 601 z "},"Þ":{"ha":972,"x_min":181,"x_max":908,"o":"m 181 0 l 181 1111 l 339 1111 l 339 896 l 561 896 q 744 856 667 896 q 865 742 822 815 q 908 568 908 668 q 865 397 908 469 q 744 283 822 324 q 561 243 667 243 l 339 243 l 339 0 l 181 0 m 339 386 l 567 386 q 701 434 651 386 q 750 567 750 482 q 701 698 750 650 q 567 746 651 746 l 339 746 l 339 386 z "},"Q":{"ha":972,"x_min":81,"x_max":892,"o":"m 444 -172 l 444 14 l 528 14 l 528 -40 l 843 -142 l 843 -300 l 444 -172 m 486 -22 q 182 122 283 -22 q 81 556 81 267 q 182 989 81 844 q 486 1133 283 1133 q 790 989 689 1133 q 892 556 892 844 q 790 122 892 267 q 486 -22 689 -22 m 486 126 q 674 231 614 126 q 733 556 733 335 q 674 881 733 776 q 486 985 614 985 q 299 881 358 985 q 239 556 239 776 q 299 231 239 335 q 486 126 358 126 z "},"R":{"ha":972,"x_min":160,"x_max":917,"o":"m 160 0 l 160 1111 l 536 1111 q 722 1072 643 1111 q 845 961 801 1033 q 889 790 889 889 q 844 628 889 697 q 721 519 800 558 q 536 479 642 479 l 318 479 l 318 0 l 160 0 m 736 0 l 436 507 l 607 507 l 917 0 l 736 0 m 318 617 l 539 617 q 678 664 626 617 q 731 789 731 711 q 678 915 731 868 q 539 963 626 963 l 318 963 l 318 617 z "},"Ŕ":{"ha":972,"x_min":160,"x_max":917,"o":"m 160 0 l 160 1111 l 536 1111 q 722 1072 643 1111 q 845 961 801 1033 q 889 790 889 889 q 844 628 889 697 q 721 519 800 558 q 536 479 642 479 l 318 479 l 318 0 l 160 0 m 736 0 l 436 507 l 607 507 l 917 0 l 736 0 m 318 617 l 539 617 q 678 664 626 617 q 731 789 731 711 q 678 915 731 868 q 539 963 626 963 l 318 963 l 318 617 m 376 1236 l 515 1444 l 693 1444 l 513 1236 l 376 1236 z "},"Ř":{"ha":972,"x_min":160,"x_max":917,"o":"m 160 0 l 160 1111 l 536 1111 q 722 1072 643 1111 q 845 961 801 1033 q 889 790 889 889 q 844 628 889 697 q 721 519 800 558 q 536 479 642 479 l 318 479 l 318 0 l 160 0 m 736 0 l 436 507 l 607 507 l 917 0 l 736 0 m 318 617 l 539 617 q 678 664 626 617 q 731 789 731 711 q 678 915 731 868 q 539 963 626 963 l 318 963 l 318 617 m 708 1444 l 575 1236 l 397 1236 l 264 1444 l 397 1444 l 529 1283 l 443 1283 l 575 1444 l 708 1444 z "},"Ŗ":{"ha":972,"x_min":160,"x_max":917,"o":"m 160 0 l 160 1111 l 536 1111 q 722 1072 643 1111 q 845 961 801 1033 q 889 790 889 889 q 844 628 889 697 q 721 519 800 558 q 536 479 642 479 l 318 479 l 318 0 l 160 0 m 736 0 l 436 507 l 607 507 l 917 0 l 736 0 m 318 617 l 539 617 q 678 664 626 617 q 731 789 731 711 q 678 915 731 868 q 539 963 626 963 l 318 963 l 318 617 m 511 -236 q 446 -215 471 -236 q 421 -160 421 -194 q 446 -104 421 -125 q 511 -83 471 -83 q 576 -104 551 -83 q 601 -160 601 -125 q 576 -215 601 -194 q 511 -236 551 -236 m 414 -347 q 486 -282 461 -315 q 511 -225 511 -249 l 511 -83 q 582 -108 557 -83 q 607 -181 607 -133 q 592 -265 607 -221 q 550 -347 576 -308 l 414 -347 z "},"S":{"ha":972,"x_min":118,"x_max":885,"o":"m 269 283 q 350 167 293 207 q 496 126 407 126 q 649 175 593 126 q 704 310 704 224 q 663 413 704 372 q 546 465 622 454 l 424 483 q 206 588 279 508 q 132 800 132 667 q 178 976 132 901 q 309 1092 225 1050 q 504 1133 393 1133 q 699 1093 615 1133 q 830 978 782 1053 q 885 800 878 904 l 735 800 q 654 937 713 889 q 504 985 596 985 q 345 935 403 985 q 288 800 288 886 q 328 696 288 736 q 444 643 369 656 l 567 625 q 786 522 713 601 q 860 310 860 442 q 815 134 860 208 q 688 19 769 60 q 496 -22 606 -22 q 302 15 385 -22 q 172 120 219 51 q 118 283 124 189 l 269 283 z "},"Ś":{"ha":972,"x_min":118,"x_max":885,"o":"m 269 283 q 350 167 293 207 q 496 126 407 126 q 649 175 593 126 q 704 310 704 224 q 663 413 704 372 q 546 465 622 454 l 424 483 q 206 588 279 508 q 132 800 132 667 q 178 976 132 901 q 309 1092 225 1050 q 504 1133 393 1133 q 699 1093 615 1133 q 830 978 782 1053 q 885 800 878 904 l 735 800 q 654 937 713 889 q 504 985 596 985 q 345 935 403 985 q 288 800 288 886 q 328 696 288 736 q 444 643 369 656 l 567 625 q 786 522 713 601 q 860 310 860 442 q 815 134 860 208 q 688 19 769 60 q 496 -22 606 -22 q 302 15 385 -22 q 172 120 219 51 q 118 283 124 189 l 269 283 m 396 1236 l 535 1444 l 713 1444 l 532 1236 l 396 1236 z "},"Ꞌ":{"ha":972,"x_min":435,"x_max":574,"o":"m 435 556 l 435 1111 l 574 1111 l 574 861 l 546 556 l 435 556 z "},"Š":{"ha":972,"x_min":118,"x_max":885,"o":"m 269 283 q 350 167 293 207 q 496 126 407 126 q 649 175 593 126 q 704 310 704 224 q 663 413 704 372 q 546 465 622 454 l 424 483 q 206 588 279 508 q 132 800 132 667 q 178 976 132 901 q 309 1092 225 1050 q 504 1133 393 1133 q 699 1093 615 1133 q 830 978 782 1053 q 885 800 878 904 l 735 800 q 654 937 713 889 q 504 985 596 985 q 345 935 403 985 q 288 800 288 886 q 328 696 288 736 q 444 643 369 656 l 567 625 q 786 522 713 601 q 860 310 860 442 q 815 134 860 208 q 688 19 769 60 q 496 -22 606 -22 q 302 15 385 -22 q 172 120 219 51 q 118 283 124 189 l 269 283 m 728 1444 l 594 1236 l 417 1236 l 283 1444 l 417 1444 l 549 1283 l 463 1283 l 594 1444 l 728 1444 z "},"Ş":{"ha":972,"x_min":118,"x_max":885,"o":"m 269 283 q 350 167 293 207 q 496 126 407 126 q 649 175 593 126 q 704 310 704 224 q 663 413 704 372 q 546 465 622 454 l 424 483 q 206 588 279 508 q 132 800 132 667 q 178 976 132 901 q 309 1092 225 1050 q 504 1133 393 1133 q 699 1093 615 1133 q 830 978 782 1053 q 885 800 878 904 l 735 800 q 654 937 713 889 q 504 985 596 985 q 345 935 403 985 q 288 800 288 886 q 328 696 288 736 q 444 643 369 656 l 567 625 q 786 522 713 601 q 860 310 860 442 q 815 134 860 208 q 688 19 769 60 q 496 -22 606 -22 q 302 15 385 -22 q 172 120 219 51 q 118 283 124 189 l 269 283 m 457 28 l 576 28 l 556 -57 q 636 -97 608 -67 q 664 -171 664 -126 q 616 -266 664 -232 q 482 -300 568 -300 q 355 -267 401 -300 q 304 -175 308 -235 l 419 -175 q 441 -201 425 -192 q 482 -211 457 -211 q 519 -199 506 -211 q 532 -168 532 -187 q 519 -136 532 -149 q 482 -122 507 -124 l 425 -115 l 457 28 z "},"Ș":{"ha":972,"x_min":118,"x_max":885,"o":"m 269 283 q 350 167 293 207 q 496 126 407 126 q 649 175 593 126 q 704 310 704 224 q 663 413 704 372 q 546 465 622 454 l 424 483 q 206 588 279 508 q 132 800 132 667 q 178 976 132 901 q 309 1092 225 1050 q 504 1133 393 1133 q 699 1093 615 1133 q 830 978 782 1053 q 885 800 878 904 l 735 800 q 654 937 713 889 q 504 985 596 985 q 345 935 403 985 q 288 800 288 886 q 328 696 288 736 q 444 643 369 656 l 567 625 q 786 522 713 601 q 860 310 860 442 q 815 134 860 208 q 688 19 769 60 q 496 -22 606 -22 q 302 15 385 -22 q 172 120 219 51 q 118 283 124 189 l 269 283 m 489 -236 q 424 -215 449 -236 q 399 -160 399 -194 q 424 -104 399 -125 q 489 -83 449 -83 q 554 -104 529 -83 q 579 -160 579 -125 q 554 -215 579 -194 q 489 -236 529 -236 m 392 -347 q 464 -282 439 -315 q 489 -225 489 -249 l 489 -83 q 560 -108 535 -83 q 585 -181 585 -133 q 569 -265 585 -221 q 528 -347 554 -308 l 392 -347 z "},"Ṣ":{"ha":972,"x_min":118,"x_max":885,"o":"m 269 283 q 350 167 293 207 q 496 126 407 126 q 649 175 593 126 q 704 310 704 224 q 663 413 704 372 q 546 465 622 454 l 424 483 q 206 588 279 508 q 132 800 132 667 q 178 976 132 901 q 309 1092 225 1050 q 504 1133 393 1133 q 699 1093 615 1133 q 830 978 782 1053 q 885 800 878 904 l 735 800 q 654 937 713 889 q 504 985 596 985 q 345 935 403 985 q 288 800 288 886 q 328 696 288 736 q 444 643 369 656 l 567 625 q 786 522 713 601 q 860 310 860 442 q 815 134 860 208 q 688 19 769 60 q 496 -22 606 -22 q 302 15 385 -22 q 172 120 219 51 q 118 283 124 189 l 269 283 m 492 -349 q 407 -319 438 -349 q 376 -236 376 -289 q 407 -153 376 -183 q 492 -124 438 -124 q 576 -153 546 -124 q 607 -236 607 -183 q 576 -319 607 -289 q 492 -349 546 -349 z "},"ẞ":{"ha":972,"x_min":132,"x_max":910,"o":"m 132 0 l 132 743 q 226 1017 132 922 q 496 1111 321 1111 l 840 1111 l 840 963 l 563 599 l 508 656 l 547 656 q 741 617 660 656 q 866 506 822 578 q 910 333 910 433 q 813 89 910 178 q 547 0 717 0 l 439 0 l 439 149 l 542 149 q 696 199 640 149 q 751 333 751 249 q 696 468 751 419 q 542 517 640 517 l 439 517 l 439 656 l 710 1013 l 710 963 l 490 963 q 342 908 394 963 q 290 749 290 853 l 290 0 l 132 0 z "},"T":{"ha":972,"x_min":79,"x_max":893,"o":"m 407 0 l 407 963 l 79 963 l 79 1111 l 893 1111 l 893 963 l 565 963 l 565 0 l 407 0 z "},"Ŧ":{"ha":972,"x_min":79,"x_max":893,"o":"m 201 478 l 201 611 l 771 611 l 771 478 l 201 478 m 407 0 l 407 963 l 79 963 l 79 1111 l 893 1111 l 893 963 l 565 963 l 565 0 l 407 0 z "},"Ť":{"ha":972,"x_min":79,"x_max":893,"o":"m 407 0 l 407 963 l 79 963 l 79 1111 l 893 1111 l 893 963 l 565 963 l 565 0 l 407 0 m 708 1444 l 575 1236 l 397 1236 l 264 1444 l 397 1444 l 529 1283 l 443 1283 l 575 1444 l 708 1444 z "},"Ţ":{"ha":972,"x_min":79,"x_max":893,"o":"m 407 0 l 407 963 l 79 963 l 79 1111 l 893 1111 l 893 963 l 565 963 l 565 0 l 407 0 m 443 28 l 563 28 l 542 -57 q 622 -97 594 -67 q 650 -171 650 -126 q 602 -266 650 -232 q 468 -300 554 -300 q 341 -267 388 -300 q 290 -175 294 -235 l 406 -175 q 427 -201 411 -192 q 468 -211 443 -211 q 505 -199 492 -211 q 518 -168 518 -187 q 506 -136 518 -149 q 468 -122 493 -124 l 411 -115 l 443 28 z "},"Ț":{"ha":972,"x_min":79,"x_max":893,"o":"m 407 0 l 407 963 l 79 963 l 79 1111 l 893 1111 l 893 963 l 565 963 l 565 0 l 407 0 m 483 -236 q 418 -215 443 -236 q 393 -160 393 -194 q 418 -104 393 -125 q 483 -83 443 -83 q 549 -104 524 -83 q 574 -160 574 -125 q 549 -215 574 -194 q 483 -236 524 -236 m 386 -347 q 458 -282 433 -315 q 483 -225 483 -249 l 483 -83 q 554 -108 529 -83 q 579 -181 579 -133 q 564 -265 579 -221 q 522 -347 549 -308 l 386 -347 z "},"Ṭ":{"ha":972,"x_min":79,"x_max":893,"o":"m 407 0 l 407 963 l 79 963 l 79 1111 l 893 1111 l 893 963 l 565 963 l 565 0 l 407 0 m 486 -349 q 401 -319 432 -349 q 371 -236 371 -289 q 401 -153 371 -183 q 486 -124 432 -124 q 571 -153 540 -124 q 601 -236 601 -183 q 571 -319 601 -289 q 486 -349 540 -349 z "},"U":{"ha":972,"x_min":118,"x_max":854,"o":"m 118 1111 l 276 1111 l 276 379 q 332 194 276 261 q 489 126 388 126 q 646 194 590 126 q 701 379 701 261 l 701 1111 l 854 1111 l 854 365 q 760 78 854 178 q 486 -22 665 -22 q 213 78 307 -22 q 118 365 118 178 l 118 1111 z "},"Ú":{"ha":972,"x_min":118,"x_max":854,"o":"m 118 1111 l 276 1111 l 276 379 q 332 194 276 261 q 489 126 388 126 q 646 194 590 126 q 701 379 701 261 l 701 1111 l 854 1111 l 854 365 q 760 78 854 178 q 486 -22 665 -22 q 213 78 307 -22 q 118 365 118 178 l 118 1111 m 376 1236 l 515 1444 l 693 1444 l 513 1236 l 376 1236 z "},"Ŭ":{"ha":972,"x_min":118,"x_max":854,"o":"m 118 1111 l 276 1111 l 276 379 q 332 194 276 261 q 489 126 388 126 q 646 194 590 126 q 701 379 701 261 l 701 1111 l 854 1111 l 854 365 q 760 78 854 178 q 486 -22 665 -22 q 213 78 307 -22 q 118 365 118 178 l 118 1111 m 383 1431 q 414 1353 388 1379 q 486 1328 440 1328 q 559 1353 533 1328 q 589 1431 585 1379 l 724 1431 q 656 1275 715 1328 q 486 1222 596 1222 q 317 1275 376 1222 q 249 1431 257 1328 l 383 1431 z "},"Û":{"ha":972,"x_min":118,"x_max":854,"o":"m 118 1111 l 276 1111 l 276 379 q 332 194 276 261 q 489 126 388 126 q 646 194 590 126 q 701 379 701 261 l 701 1111 l 854 1111 l 854 365 q 760 78 854 178 q 486 -22 665 -22 q 213 78 307 -22 q 118 365 118 178 l 118 1111 m 264 1236 l 397 1444 l 575 1444 l 708 1236 l 575 1236 l 443 1397 l 529 1397 l 397 1236 l 264 1236 z "},"Ü":{"ha":972,"x_min":118,"x_max":854,"o":"m 118 1111 l 276 1111 l 276 379 q 332 194 276 261 q 489 126 388 126 q 646 194 590 126 q 701 379 701 261 l 701 1111 l 854 1111 l 854 365 q 760 78 854 178 q 486 -22 665 -22 q 213 78 307 -22 q 118 365 118 178 l 118 1111 m 318 1247 q 242 1274 269 1247 q 214 1347 214 1301 q 242 1420 214 1393 q 318 1447 269 1447 q 394 1420 367 1447 q 422 1347 422 1393 q 394 1274 422 1301 q 318 1247 367 1247 m 654 1247 q 578 1274 606 1247 q 550 1347 550 1301 q 578 1420 550 1393 q 654 1447 606 1447 q 731 1420 703 1447 q 758 1347 758 1393 q 731 1274 758 1301 q 654 1247 703 1247 z "},"Ụ":{"ha":972,"x_min":118,"x_max":854,"o":"m 118 1111 l 276 1111 l 276 379 q 332 194 276 261 q 489 126 388 126 q 646 194 590 126 q 701 379 701 261 l 701 1111 l 854 1111 l 854 365 q 760 78 854 178 q 486 -22 665 -22 q 213 78 307 -22 q 118 365 118 178 l 118 1111 m 486 -349 q 401 -319 432 -349 q 371 -236 371 -289 q 401 -153 371 -183 q 486 -124 432 -124 q 571 -153 540 -124 q 601 -236 601 -183 q 571 -319 601 -289 q 486 -349 540 -349 z "},"Ù":{"ha":972,"x_min":118,"x_max":854,"o":"m 118 1111 l 276 1111 l 276 379 q 332 194 276 261 q 489 126 388 126 q 646 194 590 126 q 701 379 701 261 l 701 1111 l 854 1111 l 854 365 q 760 78 854 178 q 486 -22 665 -22 q 213 78 307 -22 q 118 365 118 178 l 118 1111 m 596 1236 l 460 1236 l 279 1444 l 457 1444 l 596 1236 z "},"Ű":{"ha":972,"x_min":118,"x_max":858,"o":"m 118 1111 l 276 1111 l 276 379 q 332 194 276 261 q 489 126 388 126 q 646 194 590 126 q 701 379 701 261 l 701 1111 l 854 1111 l 854 365 q 760 78 854 178 q 486 -22 665 -22 q 213 78 307 -22 q 118 365 118 178 l 118 1111 m 251 1236 l 371 1444 l 543 1444 l 382 1236 l 251 1236 m 514 1236 l 675 1444 l 858 1444 l 656 1236 l 514 1236 z "},"Ū":{"ha":972,"x_min":118,"x_max":854,"o":"m 118 1111 l 276 1111 l 276 379 q 332 194 276 261 q 489 126 388 126 q 646 194 590 126 q 701 379 701 261 l 701 1111 l 854 1111 l 854 365 q 760 78 854 178 q 486 -22 665 -22 q 213 78 307 -22 q 118 365 118 178 l 118 1111 m 263 1278 l 263 1403 l 710 1403 l 710 1278 l 263 1278 z "},"Ų":{"ha":972,"x_min":118,"x_max":854,"o":"m 118 1111 l 276 1111 l 276 379 q 332 194 276 261 q 489 126 388 126 q 646 194 590 126 q 701 379 701 261 l 701 1111 l 854 1111 l 854 365 q 760 78 854 178 q 486 -22 665 -22 q 213 78 307 -22 q 118 365 118 178 l 118 1111 m 561 -300 q 442 -264 486 -300 q 397 -164 397 -228 q 423 -74 397 -118 q 492 0 449 -31 l 558 3 l 633 0 q 563 -59 589 -25 q 536 -128 536 -93 q 552 -172 536 -156 q 594 -189 568 -189 q 616 -187 607 -189 q 633 -183 625 -186 l 633 -292 q 602 -298 619 -296 q 561 -300 585 -300 z "},"Ů":{"ha":972,"x_min":118,"x_max":854,"o":"m 118 1111 l 276 1111 l 276 379 q 332 194 276 261 q 489 126 388 126 q 646 194 590 126 q 701 379 701 261 l 701 1111 l 854 1111 l 854 365 q 760 78 854 178 q 486 -22 665 -22 q 213 78 307 -22 q 118 365 118 178 l 118 1111 m 486 1206 q 369 1247 414 1206 q 324 1354 324 1288 q 369 1462 324 1421 q 486 1503 414 1503 q 603 1462 558 1503 q 649 1354 649 1421 q 603 1247 649 1288 q 486 1206 558 1206 m 486 1283 q 538 1303 518 1283 q 557 1354 557 1324 q 538 1406 557 1386 q 486 1425 518 1425 q 435 1406 454 1425 q 415 1354 415 1386 q 435 1303 415 1324 q 486 1283 454 1283 z "},"Ũ":{"ha":972,"x_min":118,"x_max":854,"o":"m 118 1111 l 276 1111 l 276 379 q 332 194 276 261 q 489 126 388 126 q 646 194 590 126 q 701 379 701 261 l 701 1111 l 854 1111 l 854 365 q 760 78 854 178 q 486 -22 665 -22 q 213 78 307 -22 q 118 365 118 178 l 118 1111 m 244 1238 q 288 1391 253 1344 q 397 1438 324 1438 q 478 1421 449 1438 q 530 1388 508 1404 q 575 1371 551 1371 q 602 1388 593 1371 q 617 1443 611 1406 l 728 1443 q 684 1290 719 1338 q 575 1243 649 1243 q 494 1260 524 1243 q 443 1293 464 1276 q 397 1310 422 1310 q 371 1293 381 1310 q 356 1238 361 1276 l 244 1238 z "},"V":{"ha":972,"x_min":72,"x_max":900,"o":"m 238 1111 l 483 118 l 497 118 l 744 1111 l 900 1111 l 615 0 l 357 0 l 72 1111 l 238 1111 z "},"W":{"ha":972,"x_min":32,"x_max":940,"o":"m 179 1111 l 267 367 l 285 111 l 300 111 l 385 833 l 600 833 l 679 111 l 694 111 l 715 367 l 804 1111 l 940 1111 l 804 0 l 578 0 l 496 740 l 481 740 l 393 0 l 168 0 l 32 1111 l 179 1111 z "},"Ẃ":{"ha":972,"x_min":32,"x_max":940,"o":"m 179 1111 l 267 367 l 285 111 l 300 111 l 385 833 l 600 833 l 679 111 l 694 111 l 715 367 l 804 1111 l 940 1111 l 804 0 l 578 0 l 496 740 l 481 740 l 393 0 l 168 0 l 32 1111 l 179 1111 m 435 1236 l 574 1444 l 751 1444 l 571 1236 l 435 1236 z "},"Ŵ":{"ha":972,"x_min":32,"x_max":940,"o":"m 179 1111 l 267 367 l 285 111 l 300 111 l 385 833 l 600 833 l 679 111 l 694 111 l 715 367 l 804 1111 l 940 1111 l 804 0 l 578 0 l 496 740 l 481 740 l 393 0 l 168 0 l 32 1111 l 179 1111 m 264 1236 l 397 1444 l 575 1444 l 708 1236 l 575 1236 l 443 1397 l 529 1397 l 397 1236 l 264 1236 z "},"Ẅ":{"ha":972,"x_min":32,"x_max":940,"o":"m 179 1111 l 267 367 l 285 111 l 300 111 l 385 833 l 600 833 l 679 111 l 694 111 l 715 367 l 804 1111 l 940 1111 l 804 0 l 578 0 l 496 740 l 481 740 l 393 0 l 168 0 l 32 1111 l 179 1111 m 318 1247 q 242 1274 269 1247 q 214 1347 214 1301 q 242 1420 214 1393 q 318 1447 269 1447 q 394 1420 367 1447 q 422 1347 422 1393 q 394 1274 422 1301 q 318 1247 367 1247 m 654 1247 q 578 1274 606 1247 q 550 1347 550 1301 q 578 1420 550 1393 q 654 1447 606 1447 q 731 1420 703 1447 q 758 1347 758 1393 q 731 1274 758 1301 q 654 1247 703 1247 z "},"Ẁ":{"ha":972,"x_min":32,"x_max":940,"o":"m 179 1111 l 267 367 l 285 111 l 300 111 l 385 833 l 600 833 l 679 111 l 694 111 l 715 367 l 804 1111 l 940 1111 l 804 0 l 578 0 l 496 740 l 481 740 l 393 0 l 168 0 l 32 1111 l 179 1111 m 578 1236 l 442 1236 l 263 1444 l 440 1444 l 578 1236 z "},"X":{"ha":972,"x_min":71,"x_max":901,"o":"m 90 0 l 363 535 l 71 1111 l 249 1111 l 465 679 l 479 611 l 494 611 l 508 679 l 731 1111 l 901 1111 l 610 543 l 882 0 l 701 0 l 508 390 l 493 461 l 478 461 l 464 390 l 265 0 l 90 0 z "},"Y":{"ha":972,"x_min":57,"x_max":915,"o":"m 228 1111 l 468 667 l 483 617 l 497 617 l 511 667 l 756 1111 l 915 1111 l 565 476 l 565 0 l 407 0 l 407 476 l 57 1111 l 228 1111 z "},"Ý":{"ha":972,"x_min":57,"x_max":915,"o":"m 228 1111 l 468 667 l 483 617 l 497 617 l 511 667 l 756 1111 l 915 1111 l 565 476 l 565 0 l 407 0 l 407 476 l 57 1111 l 228 1111 m 376 1236 l 515 1444 l 693 1444 l 513 1236 l 376 1236 z "},"Ŷ":{"ha":972,"x_min":57,"x_max":915,"o":"m 228 1111 l 468 667 l 483 617 l 497 617 l 511 667 l 756 1111 l 915 1111 l 565 476 l 565 0 l 407 0 l 407 476 l 57 1111 l 228 1111 m 264 1236 l 397 1444 l 575 1444 l 708 1236 l 575 1236 l 443 1397 l 529 1397 l 397 1236 l 264 1236 z "},"Ÿ":{"ha":972,"x_min":57,"x_max":915,"o":"m 228 1111 l 468 667 l 483 617 l 497 617 l 511 667 l 756 1111 l 915 1111 l 565 476 l 565 0 l 407 0 l 407 476 l 57 1111 l 228 1111 m 318 1247 q 242 1274 269 1247 q 214 1347 214 1301 q 242 1420 214 1393 q 318 1447 269 1447 q 394 1420 367 1447 q 422 1347 422 1393 q 394 1274 422 1301 q 318 1247 367 1247 m 654 1247 q 578 1274 606 1247 q 550 1347 550 1301 q 578 1420 550 1393 q 654 1447 606 1447 q 731 1420 703 1447 q 758 1347 758 1393 q 731 1274 758 1301 q 654 1247 703 1247 z "},"Ỳ":{"ha":972,"x_min":57,"x_max":915,"o":"m 228 1111 l 468 667 l 483 617 l 497 617 l 511 667 l 756 1111 l 915 1111 l 565 476 l 565 0 l 407 0 l 407 476 l 57 1111 l 228 1111 m 596 1236 l 460 1236 l 279 1444 l 457 1444 l 596 1236 z "},"Ȳ":{"ha":972,"x_min":57,"x_max":915,"o":"m 228 1111 l 468 667 l 483 617 l 497 617 l 511 667 l 756 1111 l 915 1111 l 565 476 l 565 0 l 407 0 l 407 476 l 57 1111 l 228 1111 m 263 1278 l 263 1403 l 710 1403 l 710 1278 l 263 1278 z "},"Ỹ":{"ha":972,"x_min":57,"x_max":915,"o":"m 228 1111 l 468 667 l 483 617 l 497 617 l 511 667 l 756 1111 l 915 1111 l 565 476 l 565 0 l 407 0 l 407 476 l 57 1111 l 228 1111 m 244 1238 q 288 1391 253 1344 q 397 1438 324 1438 q 478 1421 449 1438 q 530 1388 508 1404 q 575 1371 551 1371 q 602 1388 593 1371 q 617 1443 611 1406 l 728 1443 q 684 1290 719 1338 q 575 1243 649 1243 q 494 1260 524 1243 q 443 1293 464 1276 q 397 1310 422 1310 q 371 1293 381 1310 q 356 1238 361 1276 l 244 1238 z "},"Z":{"ha":972,"x_min":143,"x_max":829,"o":"m 143 0 l 143 268 l 724 949 l 724 963 l 143 963 l 143 1111 l 829 1111 l 829 843 l 249 163 l 249 149 l 829 149 l 829 0 l 143 0 z "},"Ź":{"ha":972,"x_min":143,"x_max":829,"o":"m 143 0 l 143 268 l 724 949 l 724 963 l 143 963 l 143 1111 l 829 1111 l 829 843 l 249 163 l 249 149 l 829 149 l 829 0 l 143 0 m 376 1236 l 515 1444 l 693 1444 l 513 1236 l 376 1236 z "},"Ž":{"ha":972,"x_min":143,"x_max":829,"o":"m 143 0 l 143 268 l 724 949 l 724 963 l 143 963 l 143 1111 l 829 1111 l 829 843 l 249 163 l 249 149 l 829 149 l 829 0 l 143 0 m 708 1444 l 575 1236 l 397 1236 l 264 1444 l 397 1444 l 529 1283 l 443 1283 l 575 1444 l 708 1444 z "},"Ż":{"ha":972,"x_min":143,"x_max":829,"o":"m 143 0 l 143 268 l 724 949 l 724 963 l 143 963 l 143 1111 l 829 1111 l 829 843 l 249 163 l 249 149 l 829 149 l 829 0 l 143 0 m 486 1235 q 401 1265 432 1235 q 371 1347 371 1294 q 401 1430 371 1400 q 486 1460 432 1460 q 571 1430 540 1460 q 601 1347 601 1400 q 571 1265 601 1294 q 486 1235 540 1235 z "},"Ẓ":{"ha":972,"x_min":143,"x_max":829,"o":"m 143 0 l 143 268 l 724 949 l 724 963 l 143 963 l 143 1111 l 829 1111 l 829 843 l 249 163 l 249 149 l 829 149 l 829 0 l 143 0 m 486 -349 q 401 -319 432 -349 q 371 -236 371 -289 q 401 -153 371 -183 q 486 -124 432 -124 q 571 -153 540 -124 q 601 -236 601 -183 q 571 -319 601 -289 q 486 -349 540 -349 z "},"a":{"ha":972,"x_min":107,"x_max":808,"o":"m 675 521 l 675 386 l 425 347 q 338 307 367 338 q 310 226 310 276 q 345 150 310 179 q 436 121 381 121 q 548 150 497 121 q 629 228 599 179 q 660 338 660 278 l 660 542 q 611 668 660 622 q 478 714 563 714 q 371 694 418 714 q 294 638 324 675 q 253 546 264 600 l 107 546 q 162 711 114 642 q 292 818 210 781 q 482 856 374 856 q 723 776 638 856 q 808 551 808 697 l 808 0 l 660 0 l 660 76 l 618 76 q 531 4 585 29 q 400 -21 478 -21 q 267 9 324 -21 q 180 93 211 39 q 149 219 149 147 q 215 391 149 324 q 406 478 282 458 l 675 521 z "},"á":{"ha":972,"x_min":107,"x_max":808,"o":"m 675 521 l 675 386 l 425 347 q 338 307 367 338 q 310 226 310 276 q 345 150 310 179 q 436 121 381 121 q 548 150 497 121 q 629 228 599 179 q 660 338 660 278 l 660 542 q 611 668 660 622 q 478 714 563 714 q 371 694 418 714 q 294 638 324 675 q 253 546 264 600 l 107 546 q 162 711 114 642 q 292 818 210 781 q 482 856 374 856 q 723 776 638 856 q 808 551 808 697 l 808 0 l 660 0 l 660 76 l 618 76 q 531 4 585 29 q 400 -21 478 -21 q 267 9 324 -21 q 180 93 211 39 q 149 219 149 147 q 215 391 149 324 q 406 478 282 458 l 675 521 m 369 958 l 508 1167 l 686 1167 l 506 958 l 369 958 z "},"ă":{"ha":972,"x_min":107,"x_max":808,"o":"m 675 521 l 675 386 l 425 347 q 338 307 367 338 q 310 226 310 276 q 345 150 310 179 q 436 121 381 121 q 548 150 497 121 q 629 228 599 179 q 660 338 660 278 l 660 542 q 611 668 660 622 q 478 714 563 714 q 371 694 418 714 q 294 638 324 675 q 253 546 264 600 l 107 546 q 162 711 114 642 q 292 818 210 781 q 482 856 374 856 q 723 776 638 856 q 808 551 808 697 l 808 0 l 660 0 l 660 76 l 618 76 q 531 4 585 29 q 400 -21 478 -21 q 267 9 324 -21 q 180 93 211 39 q 149 219 149 147 q 215 391 149 324 q 406 478 282 458 l 675 521 m 376 1153 q 407 1076 381 1101 q 479 1050 433 1050 q 552 1076 526 1050 q 582 1153 578 1101 l 717 1153 q 649 997 708 1050 q 479 944 589 944 q 310 997 369 944 q 242 1153 250 1050 l 376 1153 z "},"ǎ":{"ha":972,"x_min":107,"x_max":808,"o":"m 675 521 l 675 386 l 425 347 q 338 307 367 338 q 310 226 310 276 q 345 150 310 179 q 436 121 381 121 q 548 150 497 121 q 629 228 599 179 q 660 338 660 278 l 660 542 q 611 668 660 622 q 478 714 563 714 q 371 694 418 714 q 294 638 324 675 q 253 546 264 600 l 107 546 q 162 711 114 642 q 292 818 210 781 q 482 856 374 856 q 723 776 638 856 q 808 551 808 697 l 808 0 l 660 0 l 660 76 l 618 76 q 531 4 585 29 q 400 -21 478 -21 q 267 9 324 -21 q 180 93 211 39 q 149 219 149 147 q 215 391 149 324 q 406 478 282 458 l 675 521 m 701 1167 l 568 958 l 390 958 l 257 1167 l 390 1167 l 522 1006 l 436 1006 l 568 1167 l 701 1167 z "},"â":{"ha":972,"x_min":107,"x_max":808,"o":"m 675 521 l 675 386 l 425 347 q 338 307 367 338 q 310 226 310 276 q 345 150 310 179 q 436 121 381 121 q 548 150 497 121 q 629 228 599 179 q 660 338 660 278 l 660 542 q 611 668 660 622 q 478 714 563 714 q 371 694 418 714 q 294 638 324 675 q 253 546 264 600 l 107 546 q 162 711 114 642 q 292 818 210 781 q 482 856 374 856 q 723 776 638 856 q 808 551 808 697 l 808 0 l 660 0 l 660 76 l 618 76 q 531 4 585 29 q 400 -21 478 -21 q 267 9 324 -21 q 180 93 211 39 q 149 219 149 147 q 215 391 149 324 q 406 478 282 458 l 675 521 m 257 958 l 390 1167 l 568 1167 l 701 958 l 568 958 l 436 1119 l 522 1119 l 390 958 l 257 958 z "},"ä":{"ha":972,"x_min":107,"x_max":808,"o":"m 675 521 l 675 386 l 425 347 q 338 307 367 338 q 310 226 310 276 q 345 150 310 179 q 436 121 381 121 q 548 150 497 121 q 629 228 599 179 q 660 338 660 278 l 660 542 q 611 668 660 622 q 478 714 563 714 q 371 694 418 714 q 294 638 324 675 q 253 546 264 600 l 107 546 q 162 711 114 642 q 292 818 210 781 q 482 856 374 856 q 723 776 638 856 q 808 551 808 697 l 808 0 l 660 0 l 660 76 l 618 76 q 531 4 585 29 q 400 -21 478 -21 q 267 9 324 -21 q 180 93 211 39 q 149 219 149 147 q 215 391 149 324 q 406 478 282 458 l 675 521 m 311 969 q 235 997 263 969 q 207 1069 207 1024 q 235 1142 207 1115 q 311 1169 263 1169 q 388 1142 360 1169 q 415 1069 415 1115 q 388 997 415 1024 q 311 969 360 969 m 647 969 q 571 997 599 969 q 543 1069 543 1024 q 571 1142 543 1115 q 647 1169 599 1169 q 724 1142 696 1169 q 751 1069 751 1115 q 724 997 751 1024 q 647 969 696 969 z "},"à":{"ha":972,"x_min":107,"x_max":808,"o":"m 675 521 l 675 386 l 425 347 q 338 307 367 338 q 310 226 310 276 q 345 150 310 179 q 436 121 381 121 q 548 150 497 121 q 629 228 599 179 q 660 338 660 278 l 660 542 q 611 668 660 622 q 478 714 563 714 q 371 694 418 714 q 294 638 324 675 q 253 546 264 600 l 107 546 q 162 711 114 642 q 292 818 210 781 q 482 856 374 856 q 723 776 638 856 q 808 551 808 697 l 808 0 l 660 0 l 660 76 l 618 76 q 531 4 585 29 q 400 -21 478 -21 q 267 9 324 -21 q 180 93 211 39 q 149 219 149 147 q 215 391 149 324 q 406 478 282 458 l 675 521 m 588 958 l 451 958 l 272 1167 l 450 1167 l 588 958 z "},"ā":{"ha":972,"x_min":107,"x_max":808,"o":"m 675 521 l 675 386 l 425 347 q 338 307 367 338 q 310 226 310 276 q 345 150 310 179 q 436 121 381 121 q 548 150 497 121 q 629 228 599 179 q 660 338 660 278 l 660 542 q 611 668 660 622 q 478 714 563 714 q 371 694 418 714 q 294 638 324 675 q 253 546 264 600 l 107 546 q 162 711 114 642 q 292 818 210 781 q 482 856 374 856 q 723 776 638 856 q 808 551 808 697 l 808 0 l 660 0 l 660 76 l 618 76 q 531 4 585 29 q 400 -21 478 -21 q 267 9 324 -21 q 180 93 211 39 q 149 219 149 147 q 215 391 149 324 q 406 478 282 458 l 675 521 m 256 1000 l 256 1125 l 703 1125 l 703 1000 l 256 1000 z "},"ą":{"ha":972,"x_min":107,"x_max":808,"o":"m 675 521 l 675 386 l 425 347 q 338 307 367 338 q 310 226 310 276 q 345 150 310 179 q 436 121 381 121 q 548 150 497 121 q 629 228 599 179 q 660 338 660 278 l 660 542 q 611 668 660 622 q 478 714 563 714 q 371 694 418 714 q 294 638 324 675 q 253 546 264 600 l 107 546 q 162 711 114 642 q 292 818 210 781 q 482 856 374 856 q 723 776 638 856 q 808 551 808 697 l 808 0 l 660 0 l 660 76 l 618 76 q 531 4 585 29 q 400 -21 478 -21 q 267 9 324 -21 q 180 93 211 39 q 149 219 149 147 q 215 391 149 324 q 406 478 282 458 l 675 521 m 736 -300 q 617 -264 661 -300 q 572 -164 572 -228 q 598 -74 572 -118 q 667 0 624 -31 l 733 3 l 808 0 q 738 -59 764 -25 q 711 -128 711 -93 q 727 -172 711 -156 q 769 -189 743 -189 q 791 -187 782 -189 q 808 -183 800 -186 l 808 -292 q 777 -298 794 -296 q 736 -300 760 -300 z "},"å":{"ha":972,"x_min":107,"x_max":808,"o":"m 675 521 l 675 386 l 425 347 q 338 307 367 338 q 310 226 310 276 q 345 150 310 179 q 436 121 381 121 q 548 150 497 121 q 629 228 599 179 q 660 338 660 278 l 660 542 q 611 668 660 622 q 478 714 563 714 q 371 694 418 714 q 294 638 324 675 q 253 546 264 600 l 107 546 q 162 711 114 642 q 292 818 210 781 q 482 856 374 856 q 723 776 638 856 q 808 551 808 697 l 808 0 l 660 0 l 660 76 l 618 76 q 531 4 585 29 q 400 -21 478 -21 q 267 9 324 -21 q 180 93 211 39 q 149 219 149 147 q 215 391 149 324 q 406 478 282 458 l 675 521 m 479 928 q 362 969 407 928 q 317 1076 317 1010 q 362 1184 317 1143 q 479 1225 407 1225 q 597 1184 551 1225 q 642 1076 642 1143 q 597 969 642 1010 q 479 928 551 928 m 479 1006 q 531 1026 511 1006 q 550 1076 550 1046 q 531 1128 550 1108 q 479 1147 511 1147 q 428 1128 447 1147 q 408 1076 408 1108 q 428 1026 408 1046 q 479 1006 447 1006 z "},"ǻ":{"ha":972,"x_min":107,"x_max":808,"o":"m 675 521 l 675 386 l 425 347 q 338 307 367 338 q 310 226 310 276 q 345 150 310 179 q 436 121 381 121 q 548 150 497 121 q 629 228 599 179 q 660 338 660 278 l 660 542 q 611 668 660 622 q 478 714 563 714 q 371 694 418 714 q 294 638 324 675 q 253 546 264 600 l 107 546 q 162 711 114 642 q 292 818 210 781 q 482 856 374 856 q 723 776 638 856 q 808 551 808 697 l 808 0 l 660 0 l 660 76 l 618 76 q 531 4 585 29 q 400 -21 478 -21 q 267 9 324 -21 q 180 93 211 39 q 149 219 149 147 q 215 391 149 324 q 406 478 282 458 l 675 521 m 479 928 q 362 969 407 928 q 317 1076 317 1010 q 362 1184 317 1143 q 479 1225 407 1225 q 597 1184 551 1225 q 642 1076 642 1143 q 597 969 642 1010 q 479 928 551 928 m 479 1006 q 531 1026 511 1006 q 550 1076 550 1046 q 531 1128 550 1108 q 479 1147 511 1147 q 428 1128 447 1147 q 408 1076 408 1108 q 428 1026 408 1046 q 479 1006 447 1006 m 403 1294 l 542 1503 l 719 1503 l 539 1294 l 403 1294 z "},"ã":{"ha":972,"x_min":107,"x_max":808,"o":"m 675 521 l 675 386 l 425 347 q 338 307 367 338 q 310 226 310 276 q 345 150 310 179 q 436 121 381 121 q 548 150 497 121 q 629 228 599 179 q 660 338 660 278 l 660 542 q 611 668 660 622 q 478 714 563 714 q 371 694 418 714 q 294 638 324 675 q 253 546 264 600 l 107 546 q 162 711 114 642 q 292 818 210 781 q 482 856 374 856 q 723 776 638 856 q 808 551 808 697 l 808 0 l 660 0 l 660 76 l 618 76 q 531 4 585 29 q 400 -21 478 -21 q 267 9 324 -21 q 180 93 211 39 q 149 219 149 147 q 215 391 149 324 q 406 478 282 458 l 675 521 m 238 960 q 281 1113 246 1067 q 390 1160 317 1160 q 472 1143 442 1160 q 523 1110 501 1126 q 568 1093 544 1093 q 595 1110 586 1093 q 610 1165 604 1128 l 721 1165 q 677 1013 713 1060 q 568 965 642 965 q 487 982 517 965 q 436 1015 457 999 q 390 1032 415 1032 q 364 1015 374 1032 q 349 960 354 999 l 238 960 z "},"æ":{"ha":972,"x_min":36,"x_max":936,"o":"m 693 -22 q 506 86 568 -22 q 443 424 443 194 q 503 749 443 642 q 689 856 564 856 q 819 811 768 856 q 894 673 869 767 q 918 431 918 579 q 917 399 918 415 q 915 367 917 382 l 532 367 l 532 501 l 828 501 l 778 429 q 768 597 778 533 q 738 688 758 660 q 683 717 718 717 q 619 686 644 717 q 583 591 594 656 q 571 424 571 526 q 583 249 571 317 q 622 149 596 182 q 688 117 649 117 q 756 150 729 117 q 796 256 782 183 l 936 256 q 859 48 922 118 q 693 -22 796 -22 m 442 521 l 442 386 l 311 349 q 238 302 263 335 q 214 221 214 269 q 238 149 214 176 q 301 121 263 121 q 394 172 360 121 q 428 310 428 222 l 428 542 q 401 672 428 631 q 318 714 374 714 q 230 673 264 714 q 179 546 196 632 l 36 546 q 123 776 49 696 q 324 856 197 856 q 497 776 436 856 q 557 551 557 697 l 557 143 l 525 96 l 469 96 q 392 8 442 38 q 272 -21 343 -21 q 113 41 172 -21 q 54 210 54 103 q 113 379 54 313 q 292 479 172 446 l 442 521 z "},"ǽ":{"ha":972,"x_min":36,"x_max":936,"o":"m 693 -22 q 506 86 568 -22 q 443 424 443 194 q 503 749 443 642 q 689 856 564 856 q 819 811 768 856 q 894 673 869 767 q 918 431 918 579 q 917 399 918 415 q 915 367 917 382 l 532 367 l 532 501 l 828 501 l 778 429 q 768 597 778 533 q 738 688 758 660 q 683 717 718 717 q 619 686 644 717 q 583 591 594 656 q 571 424 571 526 q 583 249 571 317 q 622 149 596 182 q 688 117 649 117 q 756 150 729 117 q 796 256 782 183 l 936 256 q 859 48 922 118 q 693 -22 796 -22 m 442 521 l 442 386 l 311 349 q 238 302 263 335 q 214 221 214 269 q 238 149 214 176 q 301 121 263 121 q 394 172 360 121 q 428 310 428 222 l 428 542 q 401 672 428 631 q 318 714 374 714 q 230 673 264 714 q 179 546 196 632 l 36 546 q 123 776 49 696 q 324 856 197 856 q 497 776 436 856 q 557 551 557 697 l 557 143 l 525 96 l 469 96 q 392 8 442 38 q 272 -21 343 -21 q 113 41 172 -21 q 54 210 54 103 q 113 379 54 313 q 292 479 172 446 l 442 521 m 376 958 l 515 1167 l 693 1167 l 513 958 l 376 958 z "},"b":{"ha":972,"x_min":144,"x_max":885,"o":"m 544 -22 q 422 5 478 -22 q 339 76 367 32 l 297 76 l 297 0 l 144 0 l 144 1178 l 297 1178 l 297 757 l 339 757 q 422 829 367 803 q 544 856 478 856 q 725 802 649 856 q 843 650 801 749 q 885 417 885 551 q 843 183 885 282 q 725 31 801 85 q 544 -22 649 -22 m 513 121 q 674 199 617 121 q 732 417 732 276 q 674 635 732 557 q 513 713 617 713 q 349 635 407 713 q 292 417 292 557 q 349 199 292 276 q 513 121 407 121 z "},"c":{"ha":972,"x_min":133,"x_max":871,"o":"m 506 -22 q 308 31 392 -22 q 179 181 225 83 q 133 413 133 279 q 181 648 133 549 q 315 801 228 747 q 519 856 401 856 q 700 813 622 856 q 822 694 778 771 q 871 511 867 617 l 731 511 q 656 660 713 607 q 514 713 600 713 q 344 633 404 713 q 285 413 285 554 q 343 198 285 275 q 506 121 401 121 q 637 167 583 121 q 711 297 690 214 l 851 297 q 799 128 844 200 q 677 17 753 57 q 506 -22 601 -22 z "},"ć":{"ha":972,"x_min":133,"x_max":871,"o":"m 506 -22 q 308 31 392 -22 q 179 181 225 83 q 133 413 133 279 q 181 648 133 549 q 315 801 228 747 q 519 856 401 856 q 700 813 622 856 q 822 694 778 771 q 871 511 867 617 l 731 511 q 656 660 713 607 q 514 713 600 713 q 344 633 404 713 q 285 413 285 554 q 343 198 285 275 q 506 121 401 121 q 637 167 583 121 q 711 297 690 214 l 851 297 q 799 128 844 200 q 677 17 753 57 q 506 -22 601 -22 m 407 958 l 546 1167 l 724 1167 l 543 958 l 407 958 z "},"č":{"ha":972,"x_min":133,"x_max":871,"o":"m 506 -22 q 308 31 392 -22 q 179 181 225 83 q 133 413 133 279 q 181 648 133 549 q 315 801 228 747 q 519 856 401 856 q 700 813 622 856 q 822 694 778 771 q 871 511 867 617 l 731 511 q 656 660 713 607 q 514 713 600 713 q 344 633 404 713 q 285 413 285 554 q 343 198 285 275 q 506 121 401 121 q 637 167 583 121 q 711 297 690 214 l 851 297 q 799 128 844 200 q 677 17 753 57 q 506 -22 601 -22 m 739 1167 l 606 958 l 428 958 l 294 1167 l 428 1167 l 560 1006 l 474 1006 l 606 1167 l 739 1167 z "},"ç":{"ha":972,"x_min":133,"x_max":871,"o":"m 506 -22 q 308 31 392 -22 q 179 181 225 83 q 133 413 133 279 q 181 648 133 549 q 315 801 228 747 q 519 856 401 856 q 700 813 622 856 q 822 694 778 771 q 871 511 867 617 l 731 511 q 656 660 713 607 q 514 713 600 713 q 344 633 404 713 q 285 413 285 554 q 343 198 285 275 q 506 121 401 121 q 637 167 583 121 q 711 297 690 214 l 851 297 q 799 128 844 200 q 677 17 753 57 q 506 -22 601 -22 m 482 28 l 601 28 l 581 -57 q 661 -97 633 -67 q 689 -171 689 -126 q 641 -266 689 -232 q 507 -300 593 -300 q 380 -267 426 -300 q 329 -175 333 -235 l 444 -175 q 466 -201 450 -192 q 507 -211 482 -211 q 544 -199 531 -211 q 557 -168 557 -187 q 544 -136 557 -149 q 507 -122 532 -124 l 450 -115 l 482 28 z "},"ċ":{"ha":972,"x_min":133,"x_max":871,"o":"m 506 -22 q 308 31 392 -22 q 179 181 225 83 q 133 413 133 279 q 181 648 133 549 q 315 801 228 747 q 519 856 401 856 q 700 813 622 856 q 822 694 778 771 q 871 511 867 617 l 731 511 q 656 660 713 607 q 514 713 600 713 q 344 633 404 713 q 285 413 285 554 q 343 198 285 275 q 506 121 401 121 q 637 167 583 121 q 711 297 690 214 l 851 297 q 799 128 844 200 q 677 17 753 57 q 506 -22 601 -22 m 517 957 q 432 987 463 957 q 401 1069 401 1017 q 432 1152 401 1122 q 517 1182 463 1182 q 601 1152 571 1182 q 632 1069 632 1122 q 601 987 632 1017 q 517 957 571 957 z "},"d":{"ha":972,"x_min":88,"x_max":828,"o":"m 428 -22 q 248 31 324 -22 q 130 183 172 85 q 88 417 88 282 q 130 650 88 551 q 248 802 172 749 q 428 856 324 856 q 551 829 496 856 q 633 757 607 803 l 675 757 l 675 1178 l 828 1178 l 828 0 l 675 0 l 675 76 l 633 76 q 551 5 607 32 q 428 -22 496 -22 m 460 121 q 623 199 565 121 q 681 417 681 276 q 623 635 681 557 q 460 713 565 713 q 298 635 356 713 q 240 417 240 557 q 298 199 240 276 q 460 121 356 121 z "},"ð":{"ha":972,"x_min":108,"x_max":864,"o":"m 474 -22 q 281 32 364 -22 q 153 185 199 86 q 108 417 108 283 q 156 643 108 547 q 285 792 203 739 q 474 844 368 844 q 532 839 503 844 q 582 824 561 833 l 597 838 q 467 988 550 907 q 292 1131 385 1068 l 410 1214 q 595 1048 513 1140 q 738 853 678 956 q 831 647 799 751 q 864 442 864 542 q 817 193 864 297 q 683 33 769 89 q 474 -22 596 -22 m 260 417 q 319 199 260 276 q 486 121 379 121 q 653 199 593 121 q 713 417 713 276 q 653 635 713 557 q 486 713 593 713 q 365 678 415 713 q 287 577 314 643 q 260 417 260 511 m 231 986 l 728 1135 l 757 1029 l 260 881 l 231 986 z "},"ď":{"ha":972,"x_min":74,"x_max":1082,"o":"m 400 -22 q 224 29 297 -22 q 113 179 151 81 q 74 417 74 278 q 113 654 74 556 q 224 804 151 753 q 400 856 297 856 q 517 831 468 856 q 592 757 567 806 l 633 757 l 633 1178 l 786 1178 l 786 0 l 633 0 l 633 76 l 592 76 q 517 3 567 29 q 400 -22 468 -22 m 639 417 q 586 638 639 563 q 432 713 533 713 q 279 638 332 713 q 226 417 226 563 q 279 197 226 272 q 432 121 332 121 q 586 197 533 121 q 639 417 639 272 m 879 900 l 929 1178 l 1082 1178 l 1004 900 l 879 900 z "},"đ":{"ha":972,"x_min":88,"x_max":944,"o":"m 472 942 l 472 1067 l 944 1067 l 944 942 l 472 942 m 428 -22 q 248 31 324 -22 q 130 183 172 85 q 88 417 88 282 q 130 650 88 551 q 248 802 172 749 q 428 856 324 856 q 551 829 496 856 q 633 757 607 803 l 675 757 l 675 1178 l 828 1178 l 828 0 l 675 0 l 675 76 l 633 76 q 551 5 607 32 q 428 -22 496 -22 m 460 121 q 623 199 565 121 q 681 417 681 276 q 623 635 681 557 q 460 713 565 713 q 298 635 356 713 q 240 417 240 557 q 298 199 240 276 q 460 121 356 121 z "},"ḍ":{"ha":972,"x_min":88,"x_max":828,"o":"m 428 -22 q 248 31 324 -22 q 130 183 172 85 q 88 417 88 282 q 130 650 88 551 q 248 802 172 749 q 428 856 324 856 q 551 829 496 856 q 633 757 607 803 l 675 757 l 675 1178 l 828 1178 l 828 0 l 675 0 l 675 76 l 633 76 q 551 5 607 32 q 428 -22 496 -22 m 460 121 q 623 199 565 121 q 681 417 681 276 q 623 635 681 557 q 460 713 565 713 q 298 635 356 713 q 240 417 240 557 q 298 199 240 276 q 460 121 356 121 m 486 -349 q 401 -319 432 -349 q 371 -236 371 -289 q 401 -153 371 -183 q 486 -124 432 -124 q 571 -153 540 -124 q 601 -236 601 -183 q 571 -319 601 -289 q 486 -349 540 -349 z "},"e":{"ha":972,"x_min":133,"x_max":863,"o":"m 249 501 l 750 501 l 699 429 q 649 643 699 569 q 503 717 599 717 q 340 640 399 717 q 282 424 282 563 q 340 196 282 275 q 507 117 399 117 q 631 152 578 117 q 719 256 683 188 l 863 256 q 792 107 842 169 q 670 11 743 44 q 507 -22 597 -22 q 306 31 390 -22 q 178 183 222 83 q 133 424 133 283 q 178 653 133 557 q 307 803 224 750 q 503 856 390 856 q 685 806 610 856 q 800 660 760 756 q 840 431 840 565 q 840 399 840 415 q 838 367 839 382 l 249 367 l 249 501 z "},"é":{"ha":972,"x_min":133,"x_max":863,"o":"m 249 501 l 750 501 l 699 429 q 649 643 699 569 q 503 717 599 717 q 340 640 399 717 q 282 424 282 563 q 340 196 282 275 q 507 117 399 117 q 631 152 578 117 q 719 256 683 188 l 863 256 q 792 107 842 169 q 670 11 743 44 q 507 -22 597 -22 q 306 31 390 -22 q 178 183 222 83 q 133 424 133 283 q 178 653 133 557 q 307 803 224 750 q 503 856 390 856 q 685 806 610 856 q 800 660 760 756 q 840 431 840 565 q 840 399 840 415 q 838 367 839 382 l 249 367 l 249 501 m 388 958 l 526 1167 l 704 1167 l 524 958 l 388 958 z "},"ě":{"ha":972,"x_min":133,"x_max":863,"o":"m 249 501 l 750 501 l 699 429 q 649 643 699 569 q 503 717 599 717 q 340 640 399 717 q 282 424 282 563 q 340 196 282 275 q 507 117 399 117 q 631 152 578 117 q 719 256 683 188 l 863 256 q 792 107 842 169 q 670 11 743 44 q 507 -22 597 -22 q 306 31 390 -22 q 178 183 222 83 q 133 424 133 283 q 178 653 133 557 q 307 803 224 750 q 503 856 390 856 q 685 806 610 856 q 800 660 760 756 q 840 431 840 565 q 840 399 840 415 q 838 367 839 382 l 249 367 l 249 501 m 719 1167 l 586 958 l 408 958 l 275 1167 l 408 1167 l 540 1006 l 454 1006 l 586 1167 l 719 1167 z "},"ê":{"ha":972,"x_min":133,"x_max":863,"o":"m 249 501 l 750 501 l 699 429 q 649 643 699 569 q 503 717 599 717 q 340 640 399 717 q 282 424 282 563 q 340 196 282 275 q 507 117 399 117 q 631 152 578 117 q 719 256 683 188 l 863 256 q 792 107 842 169 q 670 11 743 44 q 507 -22 597 -22 q 306 31 390 -22 q 178 183 222 83 q 133 424 133 283 q 178 653 133 557 q 307 803 224 750 q 503 856 390 856 q 685 806 610 856 q 800 660 760 756 q 840 431 840 565 q 840 399 840 415 q 838 367 839 382 l 249 367 l 249 501 m 275 958 l 408 1167 l 586 1167 l 719 958 l 586 958 l 454 1119 l 540 1119 l 408 958 l 275 958 z "},"ë":{"ha":972,"x_min":133,"x_max":863,"o":"m 249 501 l 750 501 l 699 429 q 649 643 699 569 q 503 717 599 717 q 340 640 399 717 q 282 424 282 563 q 340 196 282 275 q 507 117 399 117 q 631 152 578 117 q 719 256 683 188 l 863 256 q 792 107 842 169 q 670 11 743 44 q 507 -22 597 -22 q 306 31 390 -22 q 178 183 222 83 q 133 424 133 283 q 178 653 133 557 q 307 803 224 750 q 503 856 390 856 q 685 806 610 856 q 800 660 760 756 q 840 431 840 565 q 840 399 840 415 q 838 367 839 382 l 249 367 l 249 501 m 329 969 q 253 997 281 969 q 225 1069 225 1024 q 253 1142 225 1115 q 329 1169 281 1169 q 406 1142 378 1169 q 433 1069 433 1115 q 406 997 433 1024 q 329 969 378 969 m 665 969 q 589 997 617 969 q 561 1069 561 1024 q 589 1142 561 1115 q 665 1169 617 1169 q 742 1142 714 1169 q 769 1069 769 1115 q 742 997 769 1024 q 665 969 714 969 z "},"ė":{"ha":972,"x_min":133,"x_max":863,"o":"m 249 501 l 750 501 l 699 429 q 649 643 699 569 q 503 717 599 717 q 340 640 399 717 q 282 424 282 563 q 340 196 282 275 q 507 117 399 117 q 631 152 578 117 q 719 256 683 188 l 863 256 q 792 107 842 169 q 670 11 743 44 q 507 -22 597 -22 q 306 31 390 -22 q 178 183 222 83 q 133 424 133 283 q 178 653 133 557 q 307 803 224 750 q 503 856 390 856 q 685 806 610 856 q 800 660 760 756 q 840 431 840 565 q 840 399 840 415 q 838 367 839 382 l 249 367 l 249 501 m 497 957 q 413 987 443 957 q 382 1069 382 1017 q 413 1152 382 1122 q 497 1182 443 1182 q 582 1152 551 1182 q 613 1069 613 1122 q 582 987 613 1017 q 497 957 551 957 z "},"è":{"ha":972,"x_min":133,"x_max":863,"o":"m 249 501 l 750 501 l 699 429 q 649 643 699 569 q 503 717 599 717 q 340 640 399 717 q 282 424 282 563 q 340 196 282 275 q 507 117 399 117 q 631 152 578 117 q 719 256 683 188 l 863 256 q 792 107 842 169 q 670 11 743 44 q 507 -22 597 -22 q 306 31 390 -22 q 178 183 222 83 q 133 424 133 283 q 178 653 133 557 q 307 803 224 750 q 503 856 390 856 q 685 806 610 856 q 800 660 760 756 q 840 431 840 565 q 840 399 840 415 q 838 367 839 382 l 249 367 l 249 501 m 607 958 l 471 958 l 290 1167 l 468 1167 l 607 958 z "},"ē":{"ha":972,"x_min":133,"x_max":863,"o":"m 249 501 l 750 501 l 699 429 q 649 643 699 569 q 503 717 599 717 q 340 640 399 717 q 282 424 282 563 q 340 196 282 275 q 507 117 399 117 q 631 152 578 117 q 719 256 683 188 l 863 256 q 792 107 842 169 q 670 11 743 44 q 507 -22 597 -22 q 306 31 390 -22 q 178 183 222 83 q 133 424 133 283 q 178 653 133 557 q 307 803 224 750 q 503 856 390 856 q 685 806 610 856 q 800 660 760 756 q 840 431 840 565 q 840 399 840 415 q 838 367 839 382 l 249 367 l 249 501 m 274 1000 l 274 1125 l 721 1125 l 721 1000 l 274 1000 z "},"ę":{"ha":972,"x_min":133,"x_max":863,"o":"m 249 501 l 750 501 l 699 429 q 649 643 699 569 q 503 717 599 717 q 340 640 399 717 q 282 424 282 563 q 340 196 282 275 q 507 117 399 117 q 631 152 578 117 q 719 256 683 188 l 863 256 q 792 107 842 169 q 670 11 743 44 q 507 -22 597 -22 q 306 31 390 -22 q 178 183 222 83 q 133 424 133 283 q 178 653 133 557 q 307 803 224 750 q 503 856 390 856 q 685 806 610 856 q 800 660 760 756 q 840 431 840 565 q 840 399 840 415 q 838 367 839 382 l 249 367 l 249 501 m 701 -300 q 582 -264 626 -300 q 538 -165 538 -228 q 569 -64 538 -118 q 654 38 600 -10 l 863 256 q 826 158 854 211 q 757 54 799 104 q 698 -34 719 8 q 676 -117 676 -76 q 693 -169 676 -150 q 739 -189 710 -189 q 758 -187 749 -189 q 774 -183 767 -186 l 774 -292 q 742 -298 758 -296 q 701 -300 725 -300 z "},"ẽ":{"ha":972,"x_min":133,"x_max":863,"o":"m 249 501 l 750 501 l 699 429 q 649 643 699 569 q 503 717 599 717 q 340 640 399 717 q 282 424 282 563 q 340 196 282 275 q 507 117 399 117 q 631 152 578 117 q 719 256 683 188 l 863 256 q 792 107 842 169 q 670 11 743 44 q 507 -22 597 -22 q 306 31 390 -22 q 178 183 222 83 q 133 424 133 283 q 178 653 133 557 q 307 803 224 750 q 503 856 390 856 q 685 806 610 856 q 800 660 760 756 q 840 431 840 565 q 840 399 840 415 q 838 367 839 382 l 249 367 l 249 501 m 256 960 q 299 1113 264 1067 q 408 1160 335 1160 q 490 1143 460 1160 q 541 1110 519 1126 q 586 1093 563 1093 q 613 1110 604 1093 q 628 1165 622 1128 l 739 1165 q 695 1013 731 1060 q 586 965 660 965 q 505 982 535 965 q 454 1015 475 999 q 408 1032 433 1032 q 382 1015 392 1032 q 367 960 372 999 l 256 960 z "},"ə":{"ha":972,"x_min":110,"x_max":839,"o":"m 724 332 l 222 332 l 274 404 q 324 191 274 265 q 469 117 375 117 q 632 194 574 117 q 690 410 690 272 q 633 638 690 560 q 465 717 575 717 q 342 681 396 717 q 253 578 289 646 l 110 578 q 180 726 131 664 q 302 822 229 789 q 465 856 375 856 q 667 803 583 856 q 794 651 750 750 q 839 410 839 551 q 794 181 839 278 q 666 31 749 83 q 469 -22 583 -22 q 288 28 364 -22 q 172 173 213 78 q 132 403 132 268 q 133 435 132 418 q 135 467 133 453 l 724 467 l 724 332 z "},"f":{"ha":972,"x_min":182,"x_max":929,"o":"m 521 0 l 368 0 l 368 690 l 182 690 l 182 833 l 368 833 l 368 924 q 442 1126 368 1053 q 649 1200 517 1200 q 848 1136 774 1200 q 929 958 922 1072 l 790 958 q 735 1033 771 1007 q 649 1058 700 1058 q 554 1021 588 1058 q 521 914 521 983 l 521 833 l 838 833 l 838 690 l 521 690 l 521 0 z "},"g":{"ha":972,"x_min":107,"x_max":831,"o":"m 831 28 q 787 -146 831 -72 q 662 -260 743 -219 q 467 -300 581 -300 q 282 -267 361 -300 q 157 -174 203 -235 q 107 -32 111 -114 l 253 -32 q 331 -128 275 -94 q 467 -161 386 -161 q 622 -109 567 -161 q 678 38 678 -57 l 678 126 l 636 126 q 556 63 608 86 q 442 39 503 39 q 265 88 340 39 q 150 229 190 138 q 110 444 110 321 q 150 663 110 571 q 265 806 190 756 q 442 856 340 856 q 557 831 504 856 q 636 764 610 806 l 678 764 l 678 833 l 831 833 l 831 28 m 261 444 q 317 247 261 318 q 474 176 374 176 q 631 247 575 176 q 688 444 688 318 q 631 642 688 571 q 474 713 575 713 q 317 642 374 713 q 261 444 261 571 z "},"ğ":{"ha":972,"x_min":107,"x_max":831,"o":"m 831 28 q 787 -146 831 -72 q 662 -260 743 -219 q 467 -300 581 -300 q 282 -267 361 -300 q 157 -174 203 -235 q 107 -32 111 -114 l 253 -32 q 331 -128 275 -94 q 467 -161 386 -161 q 622 -109 567 -161 q 678 38 678 -57 l 678 126 l 636 126 q 556 63 608 86 q 442 39 503 39 q 265 88 340 39 q 150 229 190 138 q 110 444 110 321 q 150 663 110 571 q 265 806 190 756 q 442 856 340 856 q 557 831 504 856 q 636 764 610 806 l 678 764 l 678 833 l 831 833 l 831 28 m 261 444 q 317 247 261 318 q 474 176 374 176 q 631 247 575 176 q 688 444 688 318 q 631 642 688 571 q 474 713 575 713 q 317 642 374 713 q 261 444 261 571 m 397 1153 q 428 1076 401 1101 q 500 1050 454 1050 q 573 1076 547 1050 q 603 1153 599 1101 l 738 1153 q 669 997 729 1050 q 500 944 610 944 q 331 997 390 944 q 263 1153 271 1050 l 397 1153 z "},"ǧ":{"ha":972,"x_min":107,"x_max":831,"o":"m 831 28 q 787 -146 831 -72 q 662 -260 743 -219 q 467 -300 581 -300 q 282 -267 361 -300 q 157 -174 203 -235 q 107 -32 111 -114 l 253 -32 q 331 -128 275 -94 q 467 -161 386 -161 q 622 -109 567 -161 q 678 38 678 -57 l 678 126 l 636 126 q 556 63 608 86 q 442 39 503 39 q 265 88 340 39 q 150 229 190 138 q 110 444 110 321 q 150 663 110 571 q 265 806 190 756 q 442 856 340 856 q 557 831 504 856 q 636 764 610 806 l 678 764 l 678 833 l 831 833 l 831 28 m 261 444 q 317 247 261 318 q 474 176 374 176 q 631 247 575 176 q 688 444 688 318 q 631 642 688 571 q 474 713 575 713 q 317 642 374 713 q 261 444 261 571 m 722 1167 l 589 958 l 411 958 l 278 1167 l 411 1167 l 543 1006 l 457 1006 l 589 1167 l 722 1167 z "},"ģ":{"ha":972,"x_min":107,"x_max":831,"o":"m 831 28 q 787 -146 831 -72 q 662 -260 743 -219 q 467 -300 581 -300 q 282 -267 361 -300 q 157 -174 203 -235 q 107 -32 111 -114 l 253 -32 q 331 -128 275 -94 q 467 -161 386 -161 q 622 -109 567 -161 q 678 38 678 -57 l 678 126 l 636 126 q 556 63 608 86 q 442 39 503 39 q 265 88 340 39 q 150 229 190 138 q 110 444 110 321 q 150 663 110 571 q 265 806 190 756 q 442 856 340 856 q 557 831 504 856 q 636 764 610 806 l 678 764 l 678 833 l 831 833 l 831 28 m 261 444 q 317 247 261 318 q 474 176 374 176 q 631 247 575 176 q 688 444 688 318 q 631 642 688 571 q 474 713 575 713 q 317 642 374 713 q 261 444 261 571 m 499 1069 q 565 1049 540 1069 q 589 993 589 1028 q 565 938 589 958 q 499 917 540 917 q 434 938 458 917 q 410 993 410 958 q 434 1049 410 1028 q 499 1069 458 1069 m 596 1181 q 524 1115 549 1149 q 499 1058 499 1082 l 499 917 q 429 942 454 917 q 404 1014 404 967 q 419 1098 404 1054 q 460 1181 433 1142 l 596 1181 z "},"ġ":{"ha":972,"x_min":107,"x_max":831,"o":"m 831 28 q 787 -146 831 -72 q 662 -260 743 -219 q 467 -300 581 -300 q 282 -267 361 -300 q 157 -174 203 -235 q 107 -32 111 -114 l 253 -32 q 331 -128 275 -94 q 467 -161 386 -161 q 622 -109 567 -161 q 678 38 678 -57 l 678 126 l 636 126 q 556 63 608 86 q 442 39 503 39 q 265 88 340 39 q 150 229 190 138 q 110 444 110 321 q 150 663 110 571 q 265 806 190 756 q 442 856 340 856 q 557 831 504 856 q 636 764 610 806 l 678 764 l 678 833 l 831 833 l 831 28 m 261 444 q 317 247 261 318 q 474 176 374 176 q 631 247 575 176 q 688 444 688 318 q 631 642 688 571 q 474 713 575 713 q 317 642 374 713 q 261 444 261 571 m 500 957 q 415 987 446 957 q 385 1069 385 1017 q 415 1152 385 1122 q 500 1182 446 1182 q 585 1152 554 1182 q 615 1069 615 1122 q 585 987 615 1017 q 500 957 554 957 z "},"h":{"ha":972,"x_min":157,"x_max":831,"o":"m 157 0 l 157 1178 l 310 1178 l 310 771 l 351 771 q 433 833 383 811 q 543 856 483 856 q 694 817 631 856 q 794 707 758 778 q 831 540 831 636 l 831 0 l 678 0 l 678 499 q 631 656 678 603 q 494 710 585 710 q 357 656 404 710 q 310 499 310 603 l 310 0 l 157 0 z "},"ħ":{"ha":972,"x_min":40,"x_max":831,"o":"m 40 942 l 40 1067 l 513 1067 l 513 942 l 40 942 m 157 0 l 157 1178 l 310 1178 l 310 771 l 351 771 q 433 833 383 811 q 543 856 483 856 q 694 817 631 856 q 794 707 758 778 q 831 540 831 636 l 831 0 l 678 0 l 678 499 q 631 656 678 603 q 494 710 585 710 q 357 656 404 710 q 310 499 310 603 l 310 0 l 157 0 z "},"ḥ":{"ha":972,"x_min":157,"x_max":831,"o":"m 157 0 l 157 1178 l 310 1178 l 310 771 l 351 771 q 433 833 383 811 q 543 856 483 856 q 694 817 631 856 q 794 707 758 778 q 831 540 831 636 l 831 0 l 678 0 l 678 499 q 631 656 678 603 q 494 710 585 710 q 357 656 404 710 q 310 499 310 603 l 310 0 l 157 0 m 486 -349 q 401 -319 432 -349 q 371 -236 371 -289 q 401 -153 371 -183 q 486 -124 432 -124 q 571 -153 540 -124 q 601 -236 601 -183 q 571 -319 601 -289 q 486 -349 540 -349 z "},"i":{"ha":972,"x_min":201,"x_max":858,"o":"m 201 833 l 607 833 l 607 143 l 858 143 l 858 0 l 201 0 l 201 143 l 454 143 l 454 690 l 201 690 l 201 833 m 519 957 q 435 987 465 957 q 404 1069 404 1017 q 435 1152 404 1122 q 519 1182 465 1182 q 604 1152 574 1182 q 635 1069 635 1122 q 604 987 635 1017 q 519 957 574 957 z "},"ı":{"ha":972,"x_min":201,"x_max":858,"o":"m 201 833 l 607 833 l 607 143 l 858 143 l 858 0 l 201 0 l 201 143 l 454 143 l 454 690 l 201 690 l 201 833 z "},"í":{"ha":972,"x_min":201,"x_max":858,"o":"m 201 833 l 607 833 l 607 143 l 858 143 l 858 0 l 201 0 l 201 143 l 454 143 l 454 690 l 201 690 l 201 833 m 450 958 l 589 1167 l 767 1167 l 586 958 l 450 958 z "},"î":{"ha":972,"x_min":201,"x_max":858,"o":"m 201 833 l 607 833 l 607 143 l 858 143 l 858 0 l 201 0 l 201 143 l 454 143 l 454 690 l 201 690 l 201 833 m 297 958 l 431 1167 l 608 1167 l 742 958 l 608 958 l 476 1119 l 563 1119 l 431 958 l 297 958 z "},"ï":{"ha":972,"x_min":201,"x_max":858,"o":"m 201 833 l 607 833 l 607 143 l 858 143 l 858 0 l 201 0 l 201 143 l 454 143 l 454 690 l 201 690 l 201 833 m 351 969 q 275 997 303 969 q 247 1069 247 1024 q 275 1142 247 1115 q 351 1169 303 1169 q 428 1142 400 1169 q 456 1069 456 1115 q 428 997 456 1024 q 351 969 400 969 m 688 969 q 611 997 639 969 q 583 1069 583 1024 q 611 1142 583 1115 q 688 1169 639 1169 q 764 1142 736 1169 q 792 1069 792 1115 q 764 997 792 1024 q 688 969 736 969 z "},"ị":{"ha":972,"x_min":201,"x_max":858,"o":"m 201 833 l 607 833 l 607 143 l 858 143 l 858 0 l 201 0 l 201 143 l 454 143 l 454 690 l 201 690 l 201 833 m 519 957 q 435 987 465 957 q 404 1069 404 1017 q 435 1152 404 1122 q 519 1182 465 1182 q 604 1152 574 1182 q 635 1069 635 1122 q 604 987 635 1017 q 519 957 574 957 m 519 -349 q 435 -319 465 -349 q 404 -236 404 -289 q 435 -153 404 -183 q 519 -124 465 -124 q 604 -153 574 -124 q 635 -236 635 -183 q 604 -319 635 -289 q 519 -349 574 -349 z "},"ì":{"ha":972,"x_min":201,"x_max":858,"o":"m 201 833 l 607 833 l 607 143 l 858 143 l 858 0 l 201 0 l 201 143 l 454 143 l 454 690 l 201 690 l 201 833 m 588 958 l 451 958 l 271 1167 l 449 1167 l 588 958 z "},"ĳ":{"ha":972,"x_min":108,"x_max":864,"o":"m 301 833 l 301 0 l 149 0 l 149 833 l 301 833 m 225 957 q 140 987 171 957 q 108 1069 108 1017 q 140 1152 108 1122 q 225 1182 171 1182 q 310 1152 279 1182 q 340 1069 340 1122 q 310 987 340 1017 q 225 957 279 957 m 824 833 l 824 -26 q 751 -228 824 -157 q 543 -300 678 -300 l 440 -300 l 440 -160 l 543 -160 q 638 -122 604 -160 q 671 -18 671 -85 l 671 833 l 824 833 m 747 957 q 663 987 693 957 q 632 1069 632 1017 q 663 1152 632 1122 q 747 1182 693 1182 q 833 1152 801 1182 q 864 1069 864 1122 q 833 987 864 1017 q 747 957 801 957 z "},"ī":{"ha":972,"x_min":201,"x_max":858,"o":"m 201 833 l 607 833 l 607 143 l 858 143 l 858 0 l 201 0 l 201 143 l 454 143 l 454 690 l 201 690 l 201 833 m 296 1000 l 296 1125 l 743 1125 l 743 1000 l 296 1000 z "},"į":{"ha":972,"x_min":201,"x_max":858,"o":"m 201 833 l 607 833 l 607 143 l 858 143 l 858 0 l 201 0 l 201 143 l 454 143 l 454 690 l 201 690 l 201 833 m 519 957 q 435 987 465 957 q 404 1069 404 1017 q 435 1152 404 1122 q 519 1182 465 1182 q 604 1152 574 1182 q 635 1069 635 1122 q 604 987 635 1017 q 519 957 574 957 m 774 -300 q 654 -264 699 -300 q 610 -164 610 -228 q 635 -74 610 -118 q 704 0 661 -31 l 771 3 l 846 0 q 775 -59 801 -25 q 749 -128 749 -93 q 765 -172 749 -156 q 807 -189 781 -189 q 828 -187 819 -189 q 846 -183 838 -186 l 846 -292 q 815 -298 832 -296 q 774 -300 797 -300 z "},"ĩ":{"ha":972,"x_min":201,"x_max":858,"o":"m 201 833 l 607 833 l 607 143 l 858 143 l 858 0 l 201 0 l 201 143 l 454 143 l 454 690 l 201 690 l 201 833 m 278 960 q 322 1113 286 1067 q 431 1160 357 1160 q 512 1143 482 1160 q 563 1110 542 1126 q 608 1093 585 1093 q 635 1110 626 1093 q 650 1165 644 1128 l 761 1165 q 717 1013 753 1060 q 608 965 682 965 q 527 982 557 965 q 476 1015 497 999 q 431 1032 456 1032 q 404 1015 414 1032 q 389 960 394 999 l 278 960 z "},"j":{"ha":972,"x_min":136,"x_max":738,"o":"m 183 833 l 697 833 l 697 -26 q 624 -228 697 -157 q 417 -300 551 -300 q 218 -238 292 -300 q 136 -64 144 -176 l 278 -64 q 331 -135 297 -111 q 417 -160 365 -160 q 511 -122 478 -160 q 544 -18 544 -85 l 544 690 l 183 690 l 183 833 m 621 957 q 536 987 567 957 q 506 1069 506 1017 q 536 1152 506 1122 q 621 1182 567 1182 q 706 1152 675 1182 q 736 1069 736 1122 q 706 987 736 1017 q 621 957 675 957 z "},"ȷ":{"ha":972,"x_min":136,"x_max":697,"o":"m 183 833 l 697 833 l 697 -26 q 624 -228 697 -157 q 417 -300 551 -300 q 218 -238 292 -300 q 136 -64 144 -176 l 278 -64 q 331 -135 297 -111 q 417 -160 365 -160 q 511 -122 478 -160 q 544 -18 544 -85 l 544 690 l 183 690 l 183 833 z "},"k":{"ha":972,"x_min":222,"x_max":892,"o":"m 686 0 l 329 406 l 699 833 l 892 833 l 524 411 l 888 0 l 686 0 m 222 0 l 222 1178 l 375 1178 l 375 0 l 222 0 z "},"ķ":{"ha":972,"x_min":222,"x_max":892,"o":"m 686 0 l 329 406 l 699 833 l 892 833 l 524 411 l 888 0 l 686 0 m 222 0 l 222 1178 l 375 1178 l 375 0 l 222 0 m 525 -236 q 460 -215 485 -236 q 435 -160 435 -194 q 460 -104 435 -125 q 525 -83 485 -83 q 590 -104 565 -83 q 615 -160 615 -125 q 590 -215 615 -194 q 525 -236 565 -236 m 428 -347 q 500 -282 475 -315 q 525 -225 525 -249 l 525 -83 q 596 -108 571 -83 q 621 -181 621 -133 q 606 -265 621 -221 q 564 -347 590 -308 l 428 -347 z "},"ĸ":{"ha":972,"x_min":207,"x_max":876,"o":"m 671 0 l 314 406 l 685 833 l 876 833 l 510 411 l 872 0 l 671 0 m 207 0 l 207 833 l 360 833 l 360 0 l 207 0 z "},"l":{"ha":972,"x_min":181,"x_max":838,"o":"m 181 1178 l 586 1178 l 586 143 l 838 143 l 838 0 l 181 0 l 181 143 l 433 143 l 433 1035 l 181 1035 l 181 1178 z "},"ĺ":{"ha":972,"x_min":181,"x_max":838,"o":"m 181 1178 l 586 1178 l 586 143 l 838 143 l 838 0 l 181 0 l 181 143 l 433 143 l 433 1035 l 181 1035 l 181 1178 m 442 1303 l 581 1511 l 758 1511 l 578 1303 l 442 1303 z "},"ľ":{"ha":972,"x_min":181,"x_max":888,"o":"m 181 1178 l 586 1178 l 586 143 l 838 143 l 838 0 l 181 0 l 181 143 l 433 143 l 433 1035 l 181 1035 l 181 1178 m 678 900 l 735 1178 l 888 1178 l 803 900 l 678 900 z "},"ļ":{"ha":972,"x_min":181,"x_max":838,"o":"m 181 1178 l 586 1178 l 586 143 l 838 143 l 838 0 l 181 0 l 181 143 l 433 143 l 433 1035 l 181 1035 l 181 1178 m 507 -236 q 442 -215 467 -236 q 417 -160 417 -194 q 442 -104 417 -125 q 507 -83 467 -83 q 572 -104 547 -83 q 597 -160 597 -125 q 572 -215 597 -194 q 507 -236 547 -236 m 410 -347 q 482 -282 457 -315 q 507 -225 507 -249 l 507 -83 q 578 -108 553 -83 q 603 -181 603 -133 q 588 -265 603 -221 q 546 -347 572 -308 l 410 -347 z "},"ŀ":{"ha":1042,"x_min":111,"x_max":904,"o":"m 111 1178 l 517 1178 l 517 143 l 768 143 l 768 0 l 111 0 l 111 143 l 364 143 l 364 1035 l 111 1035 l 111 1178 m 776 458 q 682 493 715 458 q 649 592 649 528 q 682 689 649 654 q 776 724 715 724 q 871 689 838 724 q 904 592 904 654 q 871 493 904 528 q 776 458 838 458 z "},"ł":{"ha":972,"x_min":181,"x_max":838,"o":"m 218 407 l 218 551 l 764 850 l 764 707 l 218 407 m 181 1178 l 586 1178 l 586 143 l 838 143 l 838 0 l 181 0 l 181 143 l 433 143 l 433 1035 l 181 1035 l 181 1178 z "},"m":{"ha":972,"x_min":106,"x_max":872,"o":"m 106 833 l 258 833 l 258 767 l 368 767 l 286 718 q 326 819 290 782 q 418 856 361 856 q 508 814 472 856 q 553 701 544 772 l 467 760 l 646 760 l 568 715 q 612 817 572 779 q 713 856 651 856 q 828 795 785 856 q 872 633 872 735 l 872 0 l 726 0 l 726 574 q 706 659 726 631 q 643 688 685 688 q 582 659 603 688 q 561 574 561 631 l 561 0 l 417 0 l 417 574 q 396 659 417 631 q 335 688 375 688 q 272 659 293 688 q 251 574 251 631 l 251 0 l 106 0 l 106 833 z "},"n":{"ha":972,"x_min":157,"x_max":831,"o":"m 157 0 l 157 833 l 310 833 l 310 771 l 351 771 q 433 833 383 811 q 543 856 483 856 q 694 817 631 856 q 794 707 758 778 q 831 540 831 636 l 831 0 l 678 0 l 678 499 q 631 656 678 603 q 494 710 585 710 q 357 656 404 710 q 310 499 310 603 l 310 0 l 157 0 z "},"ń":{"ha":972,"x_min":157,"x_max":831,"o":"m 157 0 l 157 833 l 310 833 l 310 771 l 351 771 q 433 833 383 811 q 543 856 483 856 q 694 817 631 856 q 794 707 758 778 q 831 540 831 636 l 831 0 l 678 0 l 678 499 q 631 656 678 603 q 494 710 585 710 q 357 656 404 710 q 310 499 310 603 l 310 0 l 157 0 m 376 958 l 515 1167 l 693 1167 l 513 958 l 376 958 z "},"ň":{"ha":972,"x_min":157,"x_max":831,"o":"m 157 0 l 157 833 l 310 833 l 310 771 l 351 771 q 433 833 383 811 q 543 856 483 856 q 694 817 631 856 q 794 707 758 778 q 831 540 831 636 l 831 0 l 678 0 l 678 499 q 631 656 678 603 q 494 710 585 710 q 357 656 404 710 q 310 499 310 603 l 310 0 l 157 0 m 708 1167 l 575 958 l 397 958 l 264 1167 l 397 1167 l 529 1006 l 443 1006 l 575 1167 l 708 1167 z "},"ņ":{"ha":972,"x_min":157,"x_max":831,"o":"m 157 0 l 157 833 l 310 833 l 310 771 l 351 771 q 433 833 383 811 q 543 856 483 856 q 694 817 631 856 q 794 707 758 778 q 831 540 831 636 l 831 0 l 678 0 l 678 499 q 631 656 678 603 q 494 710 585 710 q 357 656 404 710 q 310 499 310 603 l 310 0 l 157 0 m 483 -236 q 418 -215 443 -236 q 393 -160 393 -194 q 418 -104 393 -125 q 483 -83 443 -83 q 549 -104 524 -83 q 574 -160 574 -125 q 549 -215 574 -194 q 483 -236 524 -236 m 386 -347 q 458 -282 433 -315 q 483 -225 483 -249 l 483 -83 q 554 -108 529 -83 q 579 -181 579 -133 q 564 -265 579 -221 q 522 -347 549 -308 l 386 -347 z "},"ɲ":{"ha":972,"x_min":25,"x_max":831,"o":"m 25 -300 l 25 -169 l 47 -169 q 157 -36 157 -169 l 157 0 l 233 28 l 310 0 l 310 -28 q 244 -232 310 -164 q 49 -300 179 -300 l 25 -300 m 157 0 l 157 833 l 310 833 l 310 771 l 351 771 q 433 833 383 811 q 543 856 483 856 q 694 817 631 856 q 794 707 758 778 q 831 540 831 636 l 831 0 l 678 0 l 678 499 q 631 656 678 603 q 494 710 585 710 q 357 656 404 710 q 310 499 310 603 l 310 0 l 157 0 z "},"ñ":{"ha":972,"x_min":157,"x_max":831,"o":"m 157 0 l 157 833 l 310 833 l 310 771 l 351 771 q 433 833 383 811 q 543 856 483 856 q 694 817 631 856 q 794 707 758 778 q 831 540 831 636 l 831 0 l 678 0 l 678 499 q 631 656 678 603 q 494 710 585 710 q 357 656 404 710 q 310 499 310 603 l 310 0 l 157 0 m 244 960 q 288 1113 253 1067 q 397 1160 324 1160 q 478 1143 449 1160 q 530 1110 508 1126 q 575 1093 551 1093 q 602 1110 593 1093 q 617 1165 611 1128 l 728 1165 q 684 1013 719 1060 q 575 965 649 965 q 494 982 524 965 q 443 1015 464 999 q 397 1032 422 1032 q 371 1015 381 1032 q 356 960 361 999 l 244 960 z "},"ŋ":{"ha":972,"x_min":157,"x_max":831,"o":"m 546 -300 l 546 -169 l 567 -169 q 678 -36 678 -169 l 678 0 l 754 28 l 831 0 l 831 -28 q 765 -232 831 -164 q 569 -300 700 -300 l 546 -300 m 157 0 l 157 833 l 310 833 l 310 771 l 351 771 q 433 833 383 811 q 543 856 483 856 q 694 817 631 856 q 794 707 758 778 q 831 540 831 636 l 831 0 l 678 0 l 678 499 q 631 656 678 603 q 494 710 585 710 q 357 656 404 710 q 310 499 310 603 l 310 0 l 157 0 z "},"o":{"ha":972,"x_min":108,"x_max":864,"o":"m 486 -22 q 286 31 371 -22 q 155 183 201 85 q 108 417 108 282 q 155 650 108 551 q 286 802 201 749 q 486 856 371 856 q 687 802 603 856 q 817 650 771 749 q 864 417 864 551 q 817 183 864 282 q 687 31 771 85 q 486 -22 603 -22 m 486 121 q 653 199 593 121 q 713 417 713 276 q 653 635 713 557 q 486 713 593 713 q 319 635 379 713 q 260 417 260 557 q 319 199 260 276 q 486 121 379 121 z "},"ó":{"ha":972,"x_min":108,"x_max":864,"o":"m 486 -22 q 286 31 371 -22 q 155 183 201 85 q 108 417 108 282 q 155 650 108 551 q 286 802 201 749 q 486 856 371 856 q 687 802 603 856 q 817 650 771 749 q 864 417 864 551 q 817 183 864 282 q 687 31 771 85 q 486 -22 603 -22 m 486 121 q 653 199 593 121 q 713 417 713 276 q 653 635 713 557 q 486 713 593 713 q 319 635 379 713 q 260 417 260 557 q 319 199 260 276 q 486 121 379 121 m 376 958 l 515 1167 l 693 1167 l 513 958 l 376 958 z "},"ô":{"ha":972,"x_min":108,"x_max":864,"o":"m 486 -22 q 286 31 371 -22 q 155 183 201 85 q 108 417 108 282 q 155 650 108 551 q 286 802 201 749 q 486 856 371 856 q 687 802 603 856 q 817 650 771 749 q 864 417 864 551 q 817 183 864 282 q 687 31 771 85 q 486 -22 603 -22 m 486 121 q 653 199 593 121 q 713 417 713 276 q 653 635 713 557 q 486 713 593 713 q 319 635 379 713 q 260 417 260 557 q 319 199 260 276 q 486 121 379 121 m 264 958 l 397 1167 l 575 1167 l 708 958 l 575 958 l 443 1119 l 529 1119 l 397 958 l 264 958 z "},"ö":{"ha":972,"x_min":108,"x_max":864,"o":"m 486 -22 q 286 31 371 -22 q 155 183 201 85 q 108 417 108 282 q 155 650 108 551 q 286 802 201 749 q 486 856 371 856 q 687 802 603 856 q 817 650 771 749 q 864 417 864 551 q 817 183 864 282 q 687 31 771 85 q 486 -22 603 -22 m 486 121 q 653 199 593 121 q 713 417 713 276 q 653 635 713 557 q 486 713 593 713 q 319 635 379 713 q 260 417 260 557 q 319 199 260 276 q 486 121 379 121 m 318 969 q 242 997 269 969 q 214 1069 214 1024 q 242 1142 214 1115 q 318 1169 269 1169 q 394 1142 367 1169 q 422 1069 422 1115 q 394 997 422 1024 q 318 969 367 969 m 654 969 q 578 997 606 969 q 550 1069 550 1024 q 578 1142 550 1115 q 654 1169 606 1169 q 731 1142 703 1169 q 758 1069 758 1115 q 731 997 758 1024 q 654 969 703 969 z "},"ọ":{"ha":972,"x_min":108,"x_max":864,"o":"m 486 -22 q 286 31 371 -22 q 155 183 201 85 q 108 417 108 282 q 155 650 108 551 q 286 802 201 749 q 486 856 371 856 q 687 802 603 856 q 817 650 771 749 q 864 417 864 551 q 817 183 864 282 q 687 31 771 85 q 486 -22 603 -22 m 486 121 q 653 199 593 121 q 713 417 713 276 q 653 635 713 557 q 486 713 593 713 q 319 635 379 713 q 260 417 260 557 q 319 199 260 276 q 486 121 379 121 m 486 -349 q 401 -319 432 -349 q 371 -236 371 -289 q 401 -153 371 -183 q 486 -124 432 -124 q 571 -153 540 -124 q 601 -236 601 -183 q 571 -319 601 -289 q 486 -349 540 -349 z "},"ò":{"ha":972,"x_min":108,"x_max":864,"o":"m 486 -22 q 286 31 371 -22 q 155 183 201 85 q 108 417 108 282 q 155 650 108 551 q 286 802 201 749 q 486 856 371 856 q 687 802 603 856 q 817 650 771 749 q 864 417 864 551 q 817 183 864 282 q 687 31 771 85 q 486 -22 603 -22 m 486 121 q 653 199 593 121 q 713 417 713 276 q 653 635 713 557 q 486 713 593 713 q 319 635 379 713 q 260 417 260 557 q 319 199 260 276 q 486 121 379 121 m 596 958 l 460 958 l 279 1167 l 457 1167 l 596 958 z "},"ő":{"ha":972,"x_min":108,"x_max":864,"o":"m 486 -22 q 286 31 371 -22 q 155 183 201 85 q 108 417 108 282 q 155 650 108 551 q 286 802 201 749 q 486 856 371 856 q 687 802 603 856 q 817 650 771 749 q 864 417 864 551 q 817 183 864 282 q 687 31 771 85 q 486 -22 603 -22 m 486 121 q 653 199 593 121 q 713 417 713 276 q 653 635 713 557 q 486 713 593 713 q 319 635 379 713 q 260 417 260 557 q 319 199 260 276 q 486 121 379 121 m 251 958 l 371 1167 l 543 1167 l 382 958 l 251 958 m 514 958 l 675 1167 l 858 1167 l 656 958 l 514 958 z "},"ō":{"ha":972,"x_min":108,"x_max":864,"o":"m 486 -22 q 286 31 371 -22 q 155 183 201 85 q 108 417 108 282 q 155 650 108 551 q 286 802 201 749 q 486 856 371 856 q 687 802 603 856 q 817 650 771 749 q 864 417 864 551 q 817 183 864 282 q 687 31 771 85 q 486 -22 603 -22 m 486 121 q 653 199 593 121 q 713 417 713 276 q 653 635 713 557 q 486 713 593 713 q 319 635 379 713 q 260 417 260 557 q 319 199 260 276 q 486 121 379 121 m 263 1000 l 263 1125 l 710 1125 l 710 1000 l 263 1000 z "},"ø":{"ha":972,"x_min":108,"x_max":864,"o":"m 717 856 l 864 856 l 256 -22 l 108 -22 l 717 856 m 486 -22 q 286 31 371 -22 q 155 183 201 85 q 108 417 108 282 q 155 650 108 551 q 286 802 201 749 q 486 856 371 856 q 687 802 603 856 q 817 650 771 749 q 864 417 864 551 q 817 183 864 282 q 687 31 771 85 q 486 -22 603 -22 m 486 121 q 653 199 593 121 q 713 417 713 276 q 653 635 713 557 q 486 713 593 713 q 319 635 379 713 q 260 417 260 557 q 319 199 260 276 q 486 121 379 121 z "},"ǿ":{"ha":972,"x_min":108,"x_max":864,"o":"m 717 856 l 864 856 l 256 -22 l 108 -22 l 717 856 m 486 -22 q 286 31 371 -22 q 155 183 201 85 q 108 417 108 282 q 155 650 108 551 q 286 802 201 749 q 486 856 371 856 q 687 802 603 856 q 817 650 771 749 q 864 417 864 551 q 817 183 864 282 q 687 31 771 85 q 486 -22 603 -22 m 486 121 q 653 199 593 121 q 713 417 713 276 q 653 635 713 557 q 486 713 593 713 q 319 635 379 713 q 260 417 260 557 q 319 199 260 276 q 486 121 379 121 m 376 958 l 515 1167 l 693 1167 l 513 958 l 376 958 z "},"õ":{"ha":972,"x_min":108,"x_max":864,"o":"m 486 -22 q 286 31 371 -22 q 155 183 201 85 q 108 417 108 282 q 155 650 108 551 q 286 802 201 749 q 486 856 371 856 q 687 802 603 856 q 817 650 771 749 q 864 417 864 551 q 817 183 864 282 q 687 31 771 85 q 486 -22 603 -22 m 486 121 q 653 199 593 121 q 713 417 713 276 q 653 635 713 557 q 486 713 593 713 q 319 635 379 713 q 260 417 260 557 q 319 199 260 276 q 486 121 379 121 m 244 960 q 288 1113 253 1067 q 397 1160 324 1160 q 478 1143 449 1160 q 530 1110 508 1126 q 575 1093 551 1093 q 602 1110 593 1093 q 617 1165 611 1128 l 728 1165 q 684 1013 719 1060 q 575 965 649 965 q 494 982 524 965 q 443 1015 464 999 q 397 1032 422 1032 q 371 1015 381 1032 q 356 960 361 999 l 244 960 z "},"œ":{"ha":972,"x_min":61,"x_max":936,"o":"m 315 -22 q 172 25 229 -22 q 88 169 115 72 q 61 417 61 267 q 88 664 61 567 q 172 808 115 761 q 315 856 229 856 q 460 808 404 856 q 544 664 517 761 q 571 417 571 567 q 544 169 571 267 q 460 25 517 72 q 315 -22 404 -22 m 325 121 q 389 152 364 121 q 426 249 414 183 q 438 417 438 314 q 426 585 438 521 q 389 681 414 650 q 325 713 364 713 q 261 681 286 713 q 224 585 236 650 q 213 417 213 521 q 224 249 213 314 q 261 152 236 183 q 325 121 286 121 m 699 -22 q 560 26 615 -22 q 480 172 506 74 q 454 424 454 271 q 480 667 454 572 q 559 809 506 763 q 694 856 613 856 q 823 813 774 856 q 895 678 872 771 q 918 431 918 585 q 917 399 918 415 q 915 367 917 382 l 543 367 l 543 501 l 828 501 l 778 429 q 769 597 778 535 q 742 688 761 660 q 690 717 722 717 q 631 686 654 717 q 596 591 607 656 q 585 424 585 526 q 597 249 585 317 q 633 149 608 182 q 696 117 657 117 q 758 151 732 117 q 796 256 783 186 l 936 256 q 862 48 922 118 q 699 -22 801 -22 z "},"p":{"ha":972,"x_min":144,"x_max":885,"o":"m 144 -278 l 144 833 l 297 833 l 297 757 l 339 757 q 422 829 367 803 q 544 856 478 856 q 725 802 649 856 q 843 650 801 749 q 885 417 885 551 q 843 183 885 282 q 725 31 801 85 q 544 -22 649 -22 q 422 5 478 -22 q 339 76 367 32 l 297 76 l 297 -278 l 144 -278 m 513 121 q 674 199 617 121 q 732 417 732 276 q 674 635 732 557 q 513 713 617 713 q 349 635 407 713 q 292 417 292 557 q 349 199 292 276 q 513 121 407 121 z "},"þ":{"ha":972,"x_min":144,"x_max":885,"o":"m 544 -22 q 422 5 478 -22 q 339 76 367 32 l 297 76 l 297 -278 l 144 -278 l 144 1178 l 297 1178 l 297 757 l 339 757 q 422 829 367 803 q 544 856 478 856 q 725 802 649 856 q 843 650 801 749 q 885 417 885 551 q 843 183 885 282 q 725 31 801 85 q 544 -22 649 -22 m 292 417 q 349 199 292 276 q 513 121 407 121 q 674 199 617 121 q 732 417 732 276 q 674 635 732 557 q 513 713 617 713 q 349 635 407 713 q 292 417 292 557 z "},"q":{"ha":972,"x_min":88,"x_max":828,"o":"m 675 -278 l 675 76 l 633 76 q 551 5 607 32 q 428 -22 496 -22 q 248 31 324 -22 q 130 183 172 85 q 88 417 88 282 q 130 650 88 551 q 248 802 172 749 q 428 856 324 856 q 551 829 496 856 q 633 757 607 803 l 675 757 l 675 833 l 828 833 l 828 -278 l 675 -278 m 460 121 q 623 199 565 121 q 681 417 681 276 q 623 635 681 557 q 460 713 565 713 q 298 635 356 713 q 240 417 240 557 q 298 199 240 276 q 460 121 356 121 z "},"r":{"ha":972,"x_min":132,"x_max":882,"o":"m 132 833 l 457 833 l 457 772 l 499 772 q 567 834 524 813 q 665 856 610 856 q 824 785 765 856 q 882 593 882 715 l 882 472 l 724 472 l 724 571 q 610 711 724 711 q 502 647 538 711 q 467 454 467 582 l 467 143 l 725 143 l 725 0 l 157 0 l 157 143 l 314 143 l 314 690 l 132 690 l 132 833 z "},"ŕ":{"ha":972,"x_min":132,"x_max":882,"o":"m 132 833 l 457 833 l 457 772 l 499 772 q 567 834 524 813 q 665 856 610 856 q 824 785 765 856 q 882 593 882 715 l 882 472 l 724 472 l 724 571 q 610 711 724 711 q 502 647 538 711 q 467 454 467 582 l 467 143 l 725 143 l 725 0 l 157 0 l 157 143 l 314 143 l 314 690 l 132 690 l 132 833 m 404 958 l 543 1167 l 721 1167 l 540 958 l 404 958 z "},"ř":{"ha":972,"x_min":132,"x_max":882,"o":"m 132 833 l 457 833 l 457 772 l 499 772 q 567 834 524 813 q 665 856 610 856 q 824 785 765 856 q 882 593 882 715 l 882 472 l 724 472 l 724 571 q 610 711 724 711 q 502 647 538 711 q 467 454 467 582 l 467 143 l 725 143 l 725 0 l 157 0 l 157 143 l 314 143 l 314 690 l 132 690 l 132 833 m 736 1167 l 603 958 l 425 958 l 292 1167 l 425 1167 l 557 1006 l 471 1006 l 603 1167 l 736 1167 z "},"ŗ":{"ha":972,"x_min":132,"x_max":882,"o":"m 132 833 l 457 833 l 457 772 l 499 772 q 567 834 524 813 q 665 856 610 856 q 824 785 765 856 q 882 593 882 715 l 882 472 l 724 472 l 724 571 q 610 711 724 711 q 502 647 538 711 q 467 454 467 582 l 467 143 l 725 143 l 725 0 l 157 0 l 157 143 l 314 143 l 314 690 l 132 690 l 132 833 m 388 -236 q 322 -215 347 -236 q 297 -160 297 -194 q 322 -104 297 -125 q 388 -83 347 -83 q 453 -104 428 -83 q 478 -160 478 -125 q 453 -215 478 -194 q 388 -236 428 -236 m 290 -347 q 363 -282 338 -315 q 388 -225 388 -249 l 388 -83 q 458 -108 433 -83 q 483 -181 483 -133 q 468 -265 483 -221 q 426 -347 453 -308 l 290 -347 z "},"s":{"ha":972,"x_min":151,"x_max":844,"o":"m 293 256 q 364 156 313 190 q 496 121 415 121 q 624 151 579 121 q 668 236 668 181 q 632 299 668 274 q 525 333 596 324 l 424 349 q 222 429 288 369 q 157 596 157 489 q 247 786 157 717 q 493 856 336 856 q 746 778 653 856 q 844 561 839 700 l 706 561 q 632 674 686 635 q 490 713 578 713 q 356 683 403 713 q 308 597 308 653 q 344 535 308 560 q 451 500 381 510 l 553 485 q 755 404 690 464 q 819 238 819 344 q 780 99 819 157 q 668 9 740 40 q 494 -22 596 -22 q 249 51 339 -22 q 151 256 160 125 l 293 256 z "},"ś":{"ha":972,"x_min":151,"x_max":844,"o":"m 293 256 q 364 156 313 190 q 496 121 415 121 q 624 151 579 121 q 668 236 668 181 q 632 299 668 274 q 525 333 596 324 l 424 349 q 222 429 288 369 q 157 596 157 489 q 247 786 157 717 q 493 856 336 856 q 746 778 653 856 q 844 561 839 700 l 706 561 q 632 674 686 635 q 490 713 578 713 q 356 683 403 713 q 308 597 308 653 q 344 535 308 560 q 451 500 381 510 l 553 485 q 755 404 690 464 q 819 238 819 344 q 780 99 819 157 q 668 9 740 40 q 494 -22 596 -22 q 249 51 339 -22 q 151 256 160 125 l 293 256 m 388 958 l 526 1167 l 704 1167 l 524 958 l 388 958 z "},"ꞌ":{"ha":972,"x_min":436,"x_max":575,"o":"m 436 528 l 436 1056 l 575 1056 l 575 819 l 547 528 l 436 528 z "},"š":{"ha":972,"x_min":151,"x_max":844,"o":"m 293 256 q 364 156 313 190 q 496 121 415 121 q 624 151 579 121 q 668 236 668 181 q 632 299 668 274 q 525 333 596 324 l 424 349 q 222 429 288 369 q 157 596 157 489 q 247 786 157 717 q 493 856 336 856 q 746 778 653 856 q 844 561 839 700 l 706 561 q 632 674 686 635 q 490 713 578 713 q 356 683 403 713 q 308 597 308 653 q 344 535 308 560 q 451 500 381 510 l 553 485 q 755 404 690 464 q 819 238 819 344 q 780 99 819 157 q 668 9 740 40 q 494 -22 596 -22 q 249 51 339 -22 q 151 256 160 125 l 293 256 m 719 1167 l 586 958 l 408 958 l 275 1167 l 408 1167 l 540 1006 l 454 1006 l 586 1167 l 719 1167 z "},"ş":{"ha":972,"x_min":151,"x_max":844,"o":"m 293 256 q 364 156 313 190 q 496 121 415 121 q 624 151 579 121 q 668 236 668 181 q 632 299 668 274 q 525 333 596 324 l 424 349 q 222 429 288 369 q 157 596 157 489 q 247 786 157 717 q 493 856 336 856 q 746 778 653 856 q 844 561 839 700 l 706 561 q 632 674 686 635 q 490 713 578 713 q 356 683 403 713 q 308 597 308 653 q 344 535 308 560 q 451 500 381 510 l 553 485 q 755 404 690 464 q 819 238 819 344 q 780 99 819 157 q 668 9 740 40 q 494 -22 596 -22 q 249 51 339 -22 q 151 256 160 125 l 293 256 m 463 28 l 582 28 l 561 -57 q 642 -97 614 -67 q 669 -171 669 -126 q 622 -266 669 -232 q 488 -300 574 -300 q 360 -267 407 -300 q 310 -175 314 -235 l 425 -175 q 447 -201 431 -192 q 488 -211 463 -211 q 524 -199 511 -211 q 538 -168 538 -187 q 525 -136 538 -149 q 488 -122 513 -124 l 431 -115 l 463 28 z "},"ș":{"ha":972,"x_min":151,"x_max":844,"o":"m 293 256 q 364 156 313 190 q 496 121 415 121 q 624 151 579 121 q 668 236 668 181 q 632 299 668 274 q 525 333 596 324 l 424 349 q 222 429 288 369 q 157 596 157 489 q 247 786 157 717 q 493 856 336 856 q 746 778 653 856 q 844 561 839 700 l 706 561 q 632 674 686 635 q 490 713 578 713 q 356 683 403 713 q 308 597 308 653 q 344 535 308 560 q 451 500 381 510 l 553 485 q 755 404 690 464 q 819 238 819 344 q 780 99 819 157 q 668 9 740 40 q 494 -22 596 -22 q 249 51 339 -22 q 151 256 160 125 l 293 256 m 494 -236 q 429 -215 454 -236 q 404 -160 404 -194 q 429 -104 404 -125 q 494 -83 454 -83 q 560 -104 535 -83 q 585 -160 585 -125 q 560 -215 585 -194 q 494 -236 535 -236 m 397 -347 q 469 -282 444 -315 q 494 -225 494 -249 l 494 -83 q 565 -108 540 -83 q 590 -181 590 -133 q 575 -265 590 -221 q 533 -347 560 -308 l 397 -347 z "},"ṣ":{"ha":972,"x_min":151,"x_max":844,"o":"m 293 256 q 364 156 313 190 q 496 121 415 121 q 624 151 579 121 q 668 236 668 181 q 632 299 668 274 q 525 333 596 324 l 424 349 q 222 429 288 369 q 157 596 157 489 q 247 786 157 717 q 493 856 336 856 q 746 778 653 856 q 844 561 839 700 l 706 561 q 632 674 686 635 q 490 713 578 713 q 356 683 403 713 q 308 597 308 653 q 344 535 308 560 q 451 500 381 510 l 553 485 q 755 404 690 464 q 819 238 819 344 q 780 99 819 157 q 668 9 740 40 q 494 -22 596 -22 q 249 51 339 -22 q 151 256 160 125 l 293 256 m 497 -349 q 413 -319 443 -349 q 382 -236 382 -289 q 413 -153 382 -183 q 497 -124 443 -124 q 582 -153 551 -124 q 613 -236 613 -183 q 582 -319 613 -289 q 497 -349 551 -349 z "},"ß":{"ha":972,"x_min":144,"x_max":885,"o":"m 442 0 l 550 0 q 726 42 651 0 q 843 159 801 83 q 885 336 885 235 q 830 536 885 456 q 681 636 775 617 l 681 661 q 767 750 735 690 q 799 886 799 810 q 758 1050 799 979 q 647 1160 718 1121 q 485 1200 576 1200 q 234 1099 324 1200 q 144 817 144 999 l 144 0 l 297 0 l 297 803 q 347 990 297 924 q 485 1057 396 1057 q 601 1006 557 1057 q 646 872 646 954 q 603 738 646 788 q 485 688 560 688 l 442 688 l 442 551 l 522 551 q 672 497 617 551 q 726 347 726 442 q 671 199 726 254 q 522 143 615 143 l 442 143 l 442 0 z "},"t":{"ha":972,"x_min":113,"x_max":849,"o":"m 449 1050 l 449 833 l 824 833 l 824 690 l 449 690 l 449 274 q 479 160 449 200 q 568 121 510 121 q 663 163 629 121 q 714 292 697 206 l 849 292 q 768 58 842 139 q 563 -22 694 -22 q 365 54 435 -22 q 296 268 296 131 l 296 690 l 113 690 l 113 833 l 296 833 l 296 1050 l 449 1050 z "},"ŧ":{"ha":972,"x_min":113,"x_max":849,"o":"m 449 1050 l 449 833 l 824 833 l 824 690 l 449 690 l 449 274 q 479 160 449 200 q 568 121 510 121 q 663 163 629 121 q 714 292 697 206 l 849 292 q 768 58 842 139 q 563 -22 694 -22 q 365 54 435 -22 q 296 268 296 131 l 296 690 l 113 690 l 113 833 l 296 833 l 296 1050 l 449 1050 m 113 450 l 113 578 l 796 578 l 796 450 l 113 450 z "},"ť":{"ha":972,"x_min":113,"x_max":849,"o":"m 449 1050 l 449 833 l 824 833 l 824 690 l 449 690 l 449 274 q 479 160 449 200 q 568 121 510 121 q 663 163 629 121 q 714 292 697 206 l 849 292 q 768 58 842 139 q 563 -22 694 -22 q 365 54 435 -22 q 296 268 296 131 l 296 690 l 113 690 l 113 833 l 296 833 l 296 1050 l 449 1050 m 538 900 l 594 1178 l 747 1178 l 663 900 l 538 900 z "},"ţ":{"ha":972,"x_min":113,"x_max":849,"o":"m 449 1050 l 449 833 l 824 833 l 824 690 l 449 690 l 449 274 q 479 160 449 200 q 568 121 510 121 q 663 163 629 121 q 714 292 697 206 l 849 292 q 768 58 842 139 q 563 -22 694 -22 q 365 54 435 -22 q 296 268 296 131 l 296 690 l 113 690 l 113 833 l 296 833 l 296 1050 l 449 1050 m 538 28 l 657 28 l 636 -57 q 717 -97 689 -67 q 744 -171 744 -126 q 697 -266 744 -232 q 563 -300 649 -300 q 435 -267 482 -300 q 385 -175 389 -235 l 500 -175 q 522 -201 506 -192 q 563 -211 538 -211 q 599 -199 586 -211 q 613 -168 613 -187 q 600 -136 613 -149 q 563 -122 588 -124 l 506 -115 l 538 28 z "},"ț":{"ha":972,"x_min":113,"x_max":849,"o":"m 449 1050 l 449 833 l 824 833 l 824 690 l 449 690 l 449 274 q 479 160 449 200 q 568 121 510 121 q 663 163 629 121 q 714 292 697 206 l 849 292 q 768 58 842 139 q 563 -22 694 -22 q 365 54 435 -22 q 296 268 296 131 l 296 690 l 113 690 l 113 833 l 296 833 l 296 1050 l 449 1050 m 569 -236 q 504 -215 529 -236 q 479 -160 479 -194 q 504 -104 479 -125 q 569 -83 529 -83 q 635 -104 610 -83 q 660 -160 660 -125 q 635 -215 660 -194 q 569 -236 610 -236 m 472 -347 q 544 -282 519 -315 q 569 -225 569 -249 l 569 -83 q 640 -108 615 -83 q 665 -181 665 -133 q 650 -265 665 -221 q 608 -347 635 -308 l 472 -347 z "},"ṭ":{"ha":972,"x_min":113,"x_max":849,"o":"m 449 1050 l 449 833 l 824 833 l 824 690 l 449 690 l 449 274 q 479 160 449 200 q 568 121 510 121 q 663 163 629 121 q 714 292 697 206 l 849 292 q 768 58 842 139 q 563 -22 694 -22 q 365 54 435 -22 q 296 268 296 131 l 296 690 l 113 690 l 113 833 l 296 833 l 296 1050 l 449 1050 m 572 -349 q 488 -319 518 -349 q 457 -236 457 -289 q 488 -153 457 -183 q 572 -124 518 -124 q 657 -153 626 -124 q 688 -236 688 -183 q 657 -319 688 -289 q 572 -349 626 -349 z "},"u":{"ha":972,"x_min":142,"x_max":815,"o":"m 815 833 l 815 0 l 663 0 l 663 63 l 621 63 q 540 0 589 22 q 429 -22 490 -22 q 278 17 343 -22 q 178 126 214 56 q 142 293 142 197 l 142 833 l 294 833 l 294 335 q 341 177 294 231 q 478 124 388 124 q 615 177 568 124 q 663 335 663 231 l 663 833 l 815 833 z "},"ú":{"ha":972,"x_min":142,"x_max":815,"o":"m 815 833 l 815 0 l 663 0 l 663 63 l 621 63 q 540 0 589 22 q 429 -22 490 -22 q 278 17 343 -22 q 178 126 214 56 q 142 293 142 197 l 142 833 l 294 833 l 294 335 q 341 177 294 231 q 478 124 388 124 q 615 177 568 124 q 663 335 663 231 l 663 833 l 815 833 m 376 958 l 515 1167 l 693 1167 l 513 958 l 376 958 z "},"ŭ":{"ha":972,"x_min":142,"x_max":815,"o":"m 815 833 l 815 0 l 663 0 l 663 63 l 621 63 q 540 0 589 22 q 429 -22 490 -22 q 278 17 343 -22 q 178 126 214 56 q 142 293 142 197 l 142 833 l 294 833 l 294 335 q 341 177 294 231 q 478 124 388 124 q 615 177 568 124 q 663 335 663 231 l 663 833 l 815 833 m 383 1153 q 414 1076 388 1101 q 486 1050 440 1050 q 559 1076 533 1050 q 589 1153 585 1101 l 724 1153 q 656 997 715 1050 q 486 944 596 944 q 317 997 376 944 q 249 1153 257 1050 l 383 1153 z "},"û":{"ha":972,"x_min":142,"x_max":815,"o":"m 815 833 l 815 0 l 663 0 l 663 63 l 621 63 q 540 0 589 22 q 429 -22 490 -22 q 278 17 343 -22 q 178 126 214 56 q 142 293 142 197 l 142 833 l 294 833 l 294 335 q 341 177 294 231 q 478 124 388 124 q 615 177 568 124 q 663 335 663 231 l 663 833 l 815 833 m 264 958 l 397 1167 l 575 1167 l 708 958 l 575 958 l 443 1119 l 529 1119 l 397 958 l 264 958 z "},"ü":{"ha":972,"x_min":142,"x_max":815,"o":"m 815 833 l 815 0 l 663 0 l 663 63 l 621 63 q 540 0 589 22 q 429 -22 490 -22 q 278 17 343 -22 q 178 126 214 56 q 142 293 142 197 l 142 833 l 294 833 l 294 335 q 341 177 294 231 q 478 124 388 124 q 615 177 568 124 q 663 335 663 231 l 663 833 l 815 833 m 318 969 q 242 997 269 969 q 214 1069 214 1024 q 242 1142 214 1115 q 318 1169 269 1169 q 394 1142 367 1169 q 422 1069 422 1115 q 394 997 422 1024 q 318 969 367 969 m 654 969 q 578 997 606 969 q 550 1069 550 1024 q 578 1142 550 1115 q 654 1169 606 1169 q 731 1142 703 1169 q 758 1069 758 1115 q 731 997 758 1024 q 654 969 703 969 z "},"ụ":{"ha":972,"x_min":142,"x_max":815,"o":"m 815 833 l 815 0 l 663 0 l 663 63 l 621 63 q 540 0 589 22 q 429 -22 490 -22 q 278 17 343 -22 q 178 126 214 56 q 142 293 142 197 l 142 833 l 294 833 l 294 335 q 341 177 294 231 q 478 124 388 124 q 615 177 568 124 q 663 335 663 231 l 663 833 l 815 833 m 490 -349 q 406 -319 436 -349 q 375 -236 375 -289 q 406 -153 375 -183 q 490 -124 436 -124 q 576 -153 544 -124 q 607 -236 607 -183 q 576 -319 607 -289 q 490 -349 544 -349 z "},"ù":{"ha":972,"x_min":142,"x_max":815,"o":"m 815 833 l 815 0 l 663 0 l 663 63 l 621 63 q 540 0 589 22 q 429 -22 490 -22 q 278 17 343 -22 q 178 126 214 56 q 142 293 142 197 l 142 833 l 294 833 l 294 335 q 341 177 294 231 q 478 124 388 124 q 615 177 568 124 q 663 335 663 231 l 663 833 l 815 833 m 596 958 l 460 958 l 279 1167 l 457 1167 l 596 958 z "},"ű":{"ha":972,"x_min":142,"x_max":858,"o":"m 815 833 l 815 0 l 663 0 l 663 63 l 621 63 q 540 0 589 22 q 429 -22 490 -22 q 278 17 343 -22 q 178 126 214 56 q 142 293 142 197 l 142 833 l 294 833 l 294 335 q 341 177 294 231 q 478 124 388 124 q 615 177 568 124 q 663 335 663 231 l 663 833 l 815 833 m 251 958 l 371 1167 l 543 1167 l 382 958 l 251 958 m 514 958 l 675 1167 l 858 1167 l 656 958 l 514 958 z "},"ū":{"ha":972,"x_min":142,"x_max":815,"o":"m 815 833 l 815 0 l 663 0 l 663 63 l 621 63 q 540 0 589 22 q 429 -22 490 -22 q 278 17 343 -22 q 178 126 214 56 q 142 293 142 197 l 142 833 l 294 833 l 294 335 q 341 177 294 231 q 478 124 388 124 q 615 177 568 124 q 663 335 663 231 l 663 833 l 815 833 m 263 1000 l 263 1125 l 710 1125 l 710 1000 l 263 1000 z "},"ų":{"ha":972,"x_min":142,"x_max":815,"o":"m 815 833 l 815 0 l 663 0 l 663 63 l 621 63 q 540 0 589 22 q 429 -22 490 -22 q 278 17 343 -22 q 178 126 214 56 q 142 293 142 197 l 142 833 l 294 833 l 294 335 q 341 177 294 231 q 478 124 388 124 q 615 177 568 124 q 663 335 663 231 l 663 833 l 815 833 m 742 -300 q 623 -264 667 -300 q 579 -164 579 -228 q 604 -74 579 -118 q 672 0 629 -31 l 739 3 l 815 0 q 743 -59 769 -25 q 717 -128 717 -93 q 733 -172 717 -156 q 775 -189 749 -189 q 797 -187 789 -189 q 815 -183 806 -186 l 815 -292 q 783 -298 800 -296 q 742 -300 765 -300 z "},"ů":{"ha":972,"x_min":142,"x_max":815,"o":"m 815 833 l 815 0 l 663 0 l 663 63 l 621 63 q 540 0 589 22 q 429 -22 490 -22 q 278 17 343 -22 q 178 126 214 56 q 142 293 142 197 l 142 833 l 294 833 l 294 335 q 341 177 294 231 q 478 124 388 124 q 615 177 568 124 q 663 335 663 231 l 663 833 l 815 833 m 486 928 q 369 969 414 928 q 324 1076 324 1010 q 369 1184 324 1143 q 486 1225 414 1225 q 603 1184 558 1225 q 649 1076 649 1143 q 603 969 649 1010 q 486 928 558 928 m 486 1006 q 538 1026 518 1006 q 557 1076 557 1046 q 538 1128 557 1108 q 486 1147 518 1147 q 435 1128 454 1147 q 415 1076 415 1108 q 435 1026 415 1046 q 486 1006 454 1006 z "},"ũ":{"ha":972,"x_min":142,"x_max":815,"o":"m 815 833 l 815 0 l 663 0 l 663 63 l 621 63 q 540 0 589 22 q 429 -22 490 -22 q 278 17 343 -22 q 178 126 214 56 q 142 293 142 197 l 142 833 l 294 833 l 294 335 q 341 177 294 231 q 478 124 388 124 q 615 177 568 124 q 663 335 663 231 l 663 833 l 815 833 m 244 960 q 288 1113 253 1067 q 397 1160 324 1160 q 478 1143 449 1160 q 530 1110 508 1126 q 575 1093 551 1093 q 602 1110 593 1093 q 617 1165 611 1128 l 728 1165 q 684 1013 719 1060 q 575 965 649 965 q 494 982 524 965 q 443 1015 464 999 q 397 1032 422 1032 q 371 1015 381 1032 q 356 960 361 999 l 244 960 z "},"v":{"ha":972,"x_min":93,"x_max":879,"o":"m 93 833 l 256 833 l 485 138 l 499 138 l 726 833 l 879 833 l 603 0 l 369 0 l 93 833 z "},"w":{"ha":972,"x_min":42,"x_max":931,"o":"m 190 0 l 42 833 l 194 833 l 264 389 l 293 111 l 307 111 l 386 833 l 597 833 l 679 111 l 693 111 l 721 389 l 792 833 l 931 833 l 782 0 l 575 0 l 493 726 l 479 726 l 400 0 l 190 0 z "},"ẃ":{"ha":972,"x_min":42,"x_max":931,"o":"m 190 0 l 42 833 l 194 833 l 264 389 l 293 111 l 307 111 l 386 833 l 597 833 l 679 111 l 693 111 l 721 389 l 792 833 l 931 833 l 782 0 l 575 0 l 493 726 l 479 726 l 400 0 l 190 0 m 428 958 l 567 1167 l 744 1167 l 564 958 l 428 958 z "},"ŵ":{"ha":972,"x_min":42,"x_max":931,"o":"m 190 0 l 42 833 l 194 833 l 264 389 l 293 111 l 307 111 l 386 833 l 597 833 l 679 111 l 693 111 l 721 389 l 792 833 l 931 833 l 782 0 l 575 0 l 493 726 l 479 726 l 400 0 l 190 0 m 264 958 l 397 1167 l 575 1167 l 708 958 l 575 958 l 443 1119 l 529 1119 l 397 958 l 264 958 z "},"ẅ":{"ha":972,"x_min":42,"x_max":931,"o":"m 190 0 l 42 833 l 194 833 l 264 389 l 293 111 l 307 111 l 386 833 l 597 833 l 679 111 l 693 111 l 721 389 l 792 833 l 931 833 l 782 0 l 575 0 l 493 726 l 479 726 l 400 0 l 190 0 m 318 969 q 242 997 269 969 q 214 1069 214 1024 q 242 1142 214 1115 q 318 1169 269 1169 q 394 1142 367 1169 q 422 1069 422 1115 q 394 997 422 1024 q 318 969 367 969 m 654 969 q 578 997 606 969 q 550 1069 550 1024 q 578 1142 550 1115 q 654 1169 606 1169 q 731 1142 703 1169 q 758 1069 758 1115 q 731 997 758 1024 q 654 969 703 969 z "},"ẁ":{"ha":972,"x_min":42,"x_max":931,"o":"m 190 0 l 42 833 l 194 833 l 264 389 l 293 111 l 307 111 l 386 833 l 597 833 l 679 111 l 693 111 l 721 389 l 792 833 l 931 833 l 782 0 l 575 0 l 493 726 l 479 726 l 400 0 l 190 0 m 563 958 l 426 958 l 247 1167 l 425 1167 l 563 958 z "},"x":{"ha":972,"x_min":100,"x_max":872,"o":"m 115 0 l 358 396 l 100 833 l 278 833 l 467 513 l 479 472 l 493 472 l 506 513 l 706 833 l 872 833 l 608 410 l 857 0 l 675 0 l 500 289 l 488 329 l 474 329 l 461 289 l 285 0 l 115 0 z "},"y":{"ha":972,"x_min":94,"x_max":879,"o":"m 94 833 l 258 833 l 472 210 l 569 210 l 526 69 l 360 69 l 94 833 m 879 833 l 572 -121 q 489 -253 544 -206 q 360 -300 433 -300 q 193 -242 254 -300 q 124 -72 132 -183 l 263 -72 q 299 -139 279 -118 q 354 -160 319 -160 q 403 -140 385 -160 q 438 -76 422 -121 l 728 833 l 879 833 z "},"ý":{"ha":972,"x_min":94,"x_max":879,"o":"m 94 833 l 258 833 l 472 210 l 569 210 l 526 69 l 360 69 l 94 833 m 879 833 l 572 -121 q 489 -253 544 -206 q 360 -300 433 -300 q 193 -242 254 -300 q 124 -72 132 -183 l 263 -72 q 299 -139 279 -118 q 354 -160 319 -160 q 403 -140 385 -160 q 438 -76 422 -121 l 728 833 l 879 833 m 383 958 l 522 1167 l 700 1167 l 519 958 l 383 958 z "},"ŷ":{"ha":972,"x_min":94,"x_max":879,"o":"m 94 833 l 258 833 l 472 210 l 569 210 l 526 69 l 360 69 l 94 833 m 879 833 l 572 -121 q 489 -253 544 -206 q 360 -300 433 -300 q 193 -242 254 -300 q 124 -72 132 -183 l 263 -72 q 299 -139 279 -118 q 354 -160 319 -160 q 403 -140 385 -160 q 438 -76 422 -121 l 728 833 l 879 833 m 271 958 l 404 1167 l 582 1167 l 715 958 l 582 958 l 450 1119 l 536 1119 l 404 958 l 271 958 z "},"ÿ":{"ha":972,"x_min":94,"x_max":879,"o":"m 94 833 l 258 833 l 472 210 l 569 210 l 526 69 l 360 69 l 94 833 m 879 833 l 572 -121 q 489 -253 544 -206 q 360 -300 433 -300 q 193 -242 254 -300 q 124 -72 132 -183 l 263 -72 q 299 -139 279 -118 q 354 -160 319 -160 q 403 -140 385 -160 q 438 -76 422 -121 l 728 833 l 879 833 m 325 969 q 249 997 276 969 q 221 1069 221 1024 q 249 1142 221 1115 q 325 1169 276 1169 q 401 1142 374 1169 q 429 1069 429 1115 q 401 997 429 1024 q 325 969 374 969 m 661 969 q 585 997 613 969 q 557 1069 557 1024 q 585 1142 557 1115 q 661 1169 613 1169 q 738 1142 710 1169 q 765 1069 765 1115 q 738 997 765 1024 q 661 969 710 969 z "},"ỳ":{"ha":972,"x_min":94,"x_max":879,"o":"m 94 833 l 258 833 l 472 210 l 569 210 l 526 69 l 360 69 l 94 833 m 879 833 l 572 -121 q 489 -253 544 -206 q 360 -300 433 -300 q 193 -242 254 -300 q 124 -72 132 -183 l 263 -72 q 299 -139 279 -118 q 354 -160 319 -160 q 403 -140 385 -160 q 438 -76 422 -121 l 728 833 l 879 833 m 601 958 l 465 958 l 286 1167 l 464 1167 l 601 958 z "},"ȳ":{"ha":972,"x_min":94,"x_max":879,"o":"m 94 833 l 258 833 l 472 210 l 569 210 l 526 69 l 360 69 l 94 833 m 879 833 l 572 -121 q 489 -253 544 -206 q 360 -300 433 -300 q 193 -242 254 -300 q 124 -72 132 -183 l 263 -72 q 299 -139 279 -118 q 354 -160 319 -160 q 403 -140 385 -160 q 438 -76 422 -121 l 728 833 l 879 833 m 269 1000 l 269 1125 l 717 1125 l 717 1000 l 269 1000 z "},"ỹ":{"ha":972,"x_min":94,"x_max":879,"o":"m 94 833 l 258 833 l 472 210 l 569 210 l 526 69 l 360 69 l 94 833 m 879 833 l 572 -121 q 489 -253 544 -206 q 360 -300 433 -300 q 193 -242 254 -300 q 124 -72 132 -183 l 263 -72 q 299 -139 279 -118 q 354 -160 319 -160 q 403 -140 385 -160 q 438 -76 422 -121 l 728 833 l 879 833 m 251 960 q 295 1113 260 1067 q 404 1160 331 1160 q 485 1143 456 1160 q 537 1110 515 1126 q 582 1093 558 1093 q 609 1110 600 1093 q 624 1165 618 1128 l 735 1165 q 691 1013 726 1060 q 582 965 656 965 q 501 982 531 965 q 450 1015 471 999 q 404 1032 429 1032 q 378 1015 388 1032 q 363 960 368 999 l 251 960 z "},"z":{"ha":972,"x_min":172,"x_max":800,"o":"m 172 833 l 800 833 l 800 568 l 268 157 l 268 143 l 800 143 l 800 0 l 172 0 l 172 265 l 704 676 l 704 690 l 172 690 l 172 833 z "},"ź":{"ha":972,"x_min":172,"x_max":800,"o":"m 172 833 l 800 833 l 800 568 l 268 157 l 268 143 l 800 143 l 800 0 l 172 0 l 172 265 l 704 676 l 704 690 l 172 690 l 172 833 m 376 958 l 515 1167 l 693 1167 l 513 958 l 376 958 z "},"ž":{"ha":972,"x_min":172,"x_max":800,"o":"m 172 833 l 800 833 l 800 568 l 268 157 l 268 143 l 800 143 l 800 0 l 172 0 l 172 265 l 704 676 l 704 690 l 172 690 l 172 833 m 708 1167 l 575 958 l 397 958 l 264 1167 l 397 1167 l 529 1006 l 443 1006 l 575 1167 l 708 1167 z "},"ż":{"ha":972,"x_min":172,"x_max":800,"o":"m 172 833 l 800 833 l 800 568 l 268 157 l 268 143 l 800 143 l 800 0 l 172 0 l 172 265 l 704 676 l 704 690 l 172 690 l 172 833 m 486 957 q 401 987 432 957 q 371 1069 371 1017 q 401 1152 371 1122 q 486 1182 432 1182 q 571 1152 540 1182 q 601 1069 601 1122 q 571 987 601 1017 q 486 957 540 957 z "},"ẓ":{"ha":972,"x_min":172,"x_max":800,"o":"m 172 833 l 800 833 l 800 568 l 268 157 l 268 143 l 800 143 l 800 0 l 172 0 l 172 265 l 704 676 l 704 690 l 172 690 l 172 833 m 486 -349 q 401 -319 432 -349 q 371 -236 371 -289 q 401 -153 371 -183 q 486 -124 432 -124 q 571 -153 540 -124 q 601 -236 601 -183 q 571 -319 601 -289 q 486 -349 540 -349 z "},"ª":{"ha":972,"x_min":294,"x_max":674,"o":"m 440 657 q 353 692 388 657 q 318 782 318 728 q 354 876 318 839 q 454 924 390 913 l 561 943 l 561 853 l 476 839 q 448 824 458 836 q 438 796 438 813 q 449 768 438 779 q 479 757 461 757 q 533 780 513 757 q 554 833 554 803 l 554 956 q 538 1010 554 989 q 494 1031 522 1031 q 440 1010 463 1031 q 411 956 418 990 l 294 956 q 355 1088 303 1040 q 496 1135 407 1135 q 628 1091 582 1135 q 674 968 674 1047 l 674 667 l 554 667 l 554 708 l 543 708 q 503 670 531 683 q 440 657 476 657 z "},"º":{"ha":972,"x_min":269,"x_max":703,"o":"m 486 654 q 328 719 388 654 q 269 894 269 785 q 328 1069 269 1004 q 486 1135 388 1135 q 644 1069 585 1135 q 703 894 703 1004 q 644 719 703 785 q 486 654 585 654 m 486 761 q 558 797 532 761 q 583 894 583 832 q 558 992 583 957 q 486 1028 532 1028 q 415 992 440 1028 q 389 894 389 957 q 415 797 389 832 q 486 761 440 761 z "},"А":{"ha":972,"x_min":72,"x_max":900,"o":"m 72 0 l 357 1111 l 615 1111 l 900 0 l 735 0 l 489 993 l 475 993 l 228 0 l 72 0 m 246 376 l 246 526 l 726 526 l 726 376 l 246 376 z "},"Б":{"ha":972,"x_min":171,"x_max":883,"o":"m 171 0 l 171 1111 l 842 1111 l 842 963 l 329 963 l 329 651 l 536 651 q 719 612 642 651 q 840 499 797 572 q 883 326 883 426 q 840 154 883 228 q 719 40 797 81 q 536 0 642 0 l 171 0 m 329 149 l 542 149 q 676 197 626 149 q 725 329 725 246 q 676 461 725 413 q 542 510 626 510 l 329 510 l 329 149 z "},"В":{"ha":972,"x_min":169,"x_max":882,"o":"m 169 0 l 169 1111 l 500 1111 q 765 1031 668 1111 q 863 810 863 950 q 820 669 863 729 q 701 585 778 610 l 701 563 q 835 468 788 536 q 882 306 882 400 q 780 82 882 164 q 500 0 678 0 l 169 0 m 328 147 l 500 147 q 666 192 608 147 q 724 319 724 238 q 666 447 724 401 q 500 492 608 492 l 328 492 l 328 147 m 328 631 l 500 631 q 657 674 603 631 q 711 797 711 717 q 657 921 711 878 q 500 964 603 964 l 328 964 l 328 631 z "},"Г":{"ha":972,"x_min":250,"x_max":879,"o":"m 250 1111 l 879 1111 l 879 963 l 408 963 l 408 0 l 250 0 l 250 1111 z "},"Ґ":{"ha":972,"x_min":250,"x_max":879,"o":"m 726 1097 l 726 1350 l 879 1350 l 879 1097 l 726 1097 m 250 1111 l 879 1111 l 879 963 l 408 963 l 408 0 l 250 0 l 250 1111 z "},"Д":{"ha":972,"x_min":46,"x_max":926,"o":"m 46 -239 l 46 149 l 115 149 q 144 217 131 183 q 167 297 157 251 q 187 407 178 342 q 202 567 196 472 q 213 795 208 661 q 221 1111 218 929 l 804 1111 l 804 149 l 926 149 l 926 -239 l 774 -239 l 774 0 l 199 0 l 199 -239 l 46 -239 m 275 149 l 646 149 l 646 963 l 371 963 q 361 660 367 785 q 347 453 356 536 q 327 315 338 369 q 303 222 317 260 q 275 149 290 183 z "},"Е":{"ha":972,"x_min":194,"x_max":851,"o":"m 194 0 l 194 1111 l 851 1111 l 851 963 l 353 963 l 353 629 l 782 629 l 782 490 l 353 490 l 353 149 l 838 149 l 838 0 l 194 0 z "},"Ё":{"ha":972,"x_min":194,"x_max":851,"o":"m 194 0 l 194 1111 l 851 1111 l 851 963 l 353 963 l 353 629 l 782 629 l 782 490 l 353 490 l 353 149 l 838 149 l 838 0 l 194 0 m 367 1247 q 290 1274 318 1247 q 263 1347 263 1301 q 290 1420 263 1393 q 367 1447 318 1447 q 443 1420 415 1447 q 471 1347 471 1393 q 443 1274 471 1301 q 367 1247 415 1247 m 703 1247 q 626 1274 654 1247 q 599 1347 599 1301 q 626 1420 599 1393 q 703 1447 654 1447 q 779 1420 751 1447 q 807 1347 807 1393 q 779 1274 807 1301 q 703 1247 751 1247 z "},"Ж":{"ha":972,"x_min":28,"x_max":944,"o":"m 765 0 l 628 381 l 614 463 l 550 463 l 550 610 l 615 610 l 628 689 l 783 1111 l 944 1111 l 733 546 l 933 0 l 765 0 m 39 0 l 239 546 l 28 1111 l 189 1111 l 344 689 l 357 610 l 422 610 l 422 463 l 358 463 l 344 381 l 207 0 l 39 0 m 408 0 l 408 1111 l 564 1111 l 564 0 l 408 0 z "},"З":{"ha":972,"x_min":114,"x_max":858,"o":"m 854 296 q 808 129 854 201 q 681 17 761 57 q 496 -22 600 -22 q 299 19 382 -22 q 169 138 215 60 q 121 325 124 217 l 272 325 q 344 178 286 229 q 494 126 403 126 q 599 149 554 126 q 669 212 644 171 q 694 307 694 253 q 642 440 694 389 q 504 492 590 492 l 374 492 l 374 639 l 504 639 q 647 686 593 639 q 701 808 701 733 q 647 936 701 888 q 500 985 592 985 q 344 931 404 985 q 265 772 285 876 l 114 772 q 168 968 119 888 q 301 1091 217 1049 q 501 1133 386 1133 q 688 1094 607 1133 q 813 986 768 1056 q 858 819 858 917 q 810 665 858 729 q 683 581 763 601 l 683 558 q 808 467 761 538 q 854 296 854 397 z "},"И":{"ha":972,"x_min":119,"x_max":853,"o":"m 853 0 l 699 0 l 699 690 l 704 1010 l 689 1010 l 389 0 l 119 0 l 119 1111 l 274 1111 l 274 421 l 268 101 l 283 101 l 583 1111 l 853 1111 l 853 0 z "},"Й":{"ha":972,"x_min":119,"x_max":853,"o":"m 853 0 l 699 0 l 699 690 l 704 1010 l 689 1010 l 389 0 l 119 0 l 119 1111 l 274 1111 l 274 421 l 268 101 l 283 101 l 583 1111 l 853 1111 l 853 0 m 383 1431 q 414 1353 388 1379 q 486 1328 440 1328 q 559 1353 533 1328 q 589 1431 585 1379 l 724 1431 q 656 1275 715 1328 q 486 1222 596 1222 q 317 1275 376 1222 q 249 1431 257 1328 l 383 1431 z "},"К":{"ha":972,"x_min":192,"x_max":901,"o":"m 192 1111 l 350 1111 l 350 0 l 192 0 l 192 1111 m 693 0 l 303 538 l 718 1111 l 901 1111 l 490 544 l 886 0 l 693 0 z "},"Л":{"ha":972,"x_min":24,"x_max":843,"o":"m 685 0 l 685 963 l 338 963 l 338 1111 l 843 1111 l 843 0 l 685 0 m 24 -11 l 24 138 l 46 138 q 107 146 81 138 q 151 185 133 154 q 181 282 169 215 q 196 468 192 349 l 218 1111 l 371 1111 l 344 371 q 324 188 340 260 q 282 76 308 117 q 221 17 256 35 q 145 -6 186 -1 q 60 -11 104 -11 l 24 -11 z "},"М":{"ha":972,"x_min":101,"x_max":871,"o":"m 101 0 l 101 1111 l 353 1111 l 483 468 l 499 468 l 628 1111 l 871 1111 l 871 0 l 726 0 l 726 639 l 732 1000 l 715 1000 l 592 375 l 382 375 l 257 1000 l 240 1000 l 246 639 l 246 0 l 101 0 z "},"Н":{"ha":972,"x_min":129,"x_max":843,"o":"m 129 0 l 129 1111 l 288 1111 l 288 635 l 685 635 l 685 1111 l 843 1111 l 843 0 l 685 0 l 685 485 l 288 485 l 288 0 l 129 0 z "},"О":{"ha":972,"x_min":81,"x_max":892,"o":"m 486 -22 q 182 122 283 -22 q 81 556 81 267 q 182 989 81 844 q 486 1133 283 1133 q 790 989 689 1133 q 892 556 892 844 q 790 122 892 267 q 486 -22 689 -22 m 486 126 q 674 231 614 126 q 733 556 733 335 q 674 881 733 776 q 486 985 614 985 q 299 881 358 985 q 239 556 239 776 q 299 231 239 335 q 486 126 358 126 z "},"П":{"ha":972,"x_min":129,"x_max":843,"o":"m 129 1111 l 843 1111 l 843 0 l 685 0 l 685 960 l 288 960 l 288 0 l 129 0 l 129 1111 z "},"Р":{"ha":972,"x_min":181,"x_max":908,"o":"m 181 0 l 181 1111 l 561 1111 q 744 1071 667 1111 q 865 958 822 1031 q 908 785 908 885 q 865 612 908 685 q 744 499 822 539 q 561 460 667 460 l 339 460 l 339 0 l 181 0 m 339 601 l 567 601 q 701 650 651 601 q 750 782 750 699 q 701 914 750 865 q 567 963 651 963 l 339 963 l 339 601 z "},"С":{"ha":972,"x_min":113,"x_max":896,"o":"m 510 -22 q 212 122 311 -22 q 113 556 113 265 q 215 990 113 846 q 522 1133 317 1133 q 714 1086 633 1133 q 841 948 794 1039 q 896 726 888 857 l 750 726 q 673 919 731 853 q 522 985 615 985 q 332 881 393 985 q 271 556 271 776 q 328 231 271 335 q 510 126 386 126 q 653 188 599 126 q 725 365 707 249 l 871 365 q 818 155 863 242 q 695 23 774 68 q 510 -22 617 -22 z "},"Т":{"ha":972,"x_min":79,"x_max":893,"o":"m 407 0 l 407 963 l 79 963 l 79 1111 l 893 1111 l 893 963 l 565 963 l 565 0 l 407 0 z "},"У":{"ha":972,"x_min":90,"x_max":900,"o":"m 257 1111 l 517 496 l 656 496 l 608 363 l 411 363 l 90 1111 l 257 1111 m 746 1111 l 900 1111 l 651 215 q 597 81 629 133 q 522 3 565 28 q 421 -22 479 -22 q 267 38 324 -22 q 193 215 210 97 l 335 215 q 367 140 347 163 q 418 117 388 117 q 468 145 447 117 q 508 247 489 174 l 746 1111 z "},"Ў":{"ha":972,"x_min":90,"x_max":900,"o":"m 257 1111 l 517 496 l 656 496 l 608 363 l 411 363 l 90 1111 l 257 1111 m 746 1111 l 900 1111 l 651 215 q 597 81 629 133 q 522 3 565 28 q 421 -22 479 -22 q 267 38 324 -22 q 193 215 210 97 l 335 215 q 367 140 347 163 q 418 117 388 117 q 468 145 447 117 q 508 247 489 174 l 746 1111 m 415 1431 q 446 1353 419 1379 q 518 1328 472 1328 q 591 1353 565 1328 q 621 1431 617 1379 l 756 1431 q 688 1275 747 1328 q 518 1222 628 1222 q 349 1275 408 1222 q 281 1431 289 1328 l 415 1431 z "},"Ф":{"ha":972,"x_min":43,"x_max":929,"o":"m 407 -42 l 407 103 l 393 103 q 205 157 283 103 q 85 313 126 211 q 43 556 43 414 q 85 799 43 697 q 205 954 126 900 q 393 1008 283 1008 l 407 1008 l 407 1153 l 565 1153 l 565 1008 l 579 1008 q 767 954 689 1008 q 888 799 846 900 q 929 556 929 697 q 888 313 929 414 q 767 157 846 211 q 579 103 689 103 l 565 103 l 565 -42 l 407 -42 m 393 251 l 408 251 l 408 860 l 393 860 q 288 824 332 860 q 222 722 244 789 q 200 556 200 654 q 222 390 200 458 q 288 287 244 322 q 393 251 332 251 m 564 251 l 579 251 q 685 287 642 251 q 750 390 728 322 q 772 556 772 458 q 750 722 772 654 q 685 824 728 789 q 579 860 642 860 l 564 860 l 564 251 z "},"Х":{"ha":972,"x_min":71,"x_max":901,"o":"m 90 0 l 363 535 l 71 1111 l 249 1111 l 465 679 l 479 611 l 494 611 l 508 679 l 731 1111 l 901 1111 l 610 543 l 882 0 l 701 0 l 508 390 l 493 461 l 478 461 l 464 390 l 265 0 l 90 0 z "},"Ч":{"ha":972,"x_min":101,"x_max":819,"o":"m 101 1111 l 260 1111 l 260 763 q 309 605 260 654 q 467 556 358 556 q 565 564 521 556 q 661 593 608 572 l 661 1111 l 819 1111 l 819 0 l 661 0 l 661 444 q 552 415 603 424 q 435 406 501 406 q 101 749 101 406 l 101 1111 z "},"Ц":{"ha":972,"x_min":129,"x_max":936,"o":"m 129 0 l 129 1111 l 288 1111 l 288 149 l 657 149 l 657 1111 l 815 1111 l 815 149 l 936 149 l 936 -239 l 783 -239 l 783 0 l 129 0 z "},"Ш":{"ha":972,"x_min":74,"x_max":899,"o":"m 74 1111 l 221 1111 l 221 149 l 413 149 l 413 1111 l 560 1111 l 560 149 l 751 149 l 751 1111 l 899 1111 l 899 0 l 74 0 l 74 1111 z "},"Щ":{"ha":972,"x_min":71,"x_max":960,"o":"m 71 1111 l 218 1111 l 218 149 l 389 149 l 389 1111 l 536 1111 l 536 149 l 707 149 l 707 1111 l 854 1111 l 854 149 l 960 149 l 960 -239 l 811 -239 l 811 0 l 71 0 l 71 1111 z "},"Ь":{"ha":972,"x_min":181,"x_max":908,"o":"m 181 1111 l 339 1111 l 339 651 l 561 651 q 744 612 667 651 q 865 499 822 572 q 908 326 908 426 q 865 154 908 228 q 744 40 822 81 q 561 0 667 0 l 181 0 l 181 1111 m 339 510 l 339 149 l 567 149 q 701 197 651 149 q 750 329 750 246 q 701 461 750 413 q 567 510 651 510 l 339 510 z "},"Ы":{"ha":972,"x_min":101,"x_max":871,"o":"m 101 1111 l 256 1111 l 256 707 l 321 707 q 540 615 461 707 q 618 356 618 522 q 540 94 618 188 q 321 0 461 0 l 101 0 l 101 1111 m 256 567 l 256 147 l 324 147 q 428 200 393 147 q 464 357 464 253 q 428 514 464 461 q 324 567 393 567 l 256 567 m 717 1111 l 871 1111 l 871 0 l 717 0 l 717 1111 z "},"Ъ":{"ha":972,"x_min":64,"x_max":908,"o":"m 64 1111 l 413 1111 l 413 651 l 561 651 q 744 612 667 651 q 865 499 822 572 q 908 328 908 426 q 865 154 908 228 q 744 40 822 81 q 561 0 667 0 l 254 0 l 254 968 l 64 968 l 64 1111 m 413 149 l 567 149 q 701 197 651 149 q 750 329 750 246 q 701 461 750 413 q 567 510 651 510 l 413 510 l 413 149 z "},"Є":{"ha":972,"x_min":113,"x_max":896,"o":"m 633 483 l 251 483 l 251 628 l 633 628 l 633 483 m 510 -22 q 212 122 311 -22 q 113 556 113 265 q 215 990 113 846 q 522 1133 317 1133 q 714 1086 633 1133 q 841 948 794 1039 q 896 726 888 857 l 750 726 q 673 919 731 853 q 522 985 615 985 q 332 881 393 985 q 271 556 271 776 q 328 231 271 335 q 510 126 386 126 q 653 188 599 126 q 725 365 707 249 l 871 365 q 818 155 863 242 q 695 23 774 68 q 510 -22 617 -22 z "},"Э":{"ha":972,"x_min":76,"x_max":860,"o":"m 339 483 l 339 628 l 721 628 l 721 483 l 339 483 m 463 -22 q 277 23 356 -22 q 154 155 199 68 q 101 365 110 242 l 247 365 q 321 188 267 249 q 463 126 375 126 q 644 231 586 126 q 701 556 701 335 q 641 881 701 776 q 450 985 581 985 q 300 919 357 985 q 222 726 243 853 l 76 726 q 131 948 85 857 q 258 1086 178 1039 q 450 1133 339 1133 q 758 990 656 1133 q 860 556 860 846 q 760 122 860 265 q 463 -22 661 -22 z "},"І":{"ha":972,"x_min":129,"x_max":843,"o":"m 129 0 l 129 149 l 407 149 l 407 963 l 129 963 l 129 1111 l 843 1111 l 843 963 l 565 963 l 565 149 l 843 149 l 843 0 l 129 0 z "},"Ї":{"ha":972,"x_min":129,"x_max":843,"o":"m 129 0 l 129 149 l 407 149 l 407 963 l 129 963 l 129 1111 l 843 1111 l 843 963 l 565 963 l 565 149 l 843 149 l 843 0 l 129 0 m 318 1247 q 242 1274 269 1247 q 214 1347 214 1301 q 242 1420 214 1393 q 318 1447 269 1447 q 394 1420 367 1447 q 422 1347 422 1393 q 394 1274 422 1301 q 318 1247 367 1247 m 654 1247 q 578 1274 606 1247 q 550 1347 550 1301 q 578 1420 550 1393 q 654 1447 606 1447 q 731 1420 703 1447 q 758 1347 758 1393 q 731 1274 758 1301 q 654 1247 703 1247 z "},"Ю":{"ha":972,"x_min":65,"x_max":946,"o":"m 65 1111 l 224 1111 l 224 635 l 376 635 l 376 485 l 224 485 l 224 0 l 65 0 l 65 1111 m 647 -22 q 508 10 565 -22 q 415 110 451 42 q 360 289 378 179 q 343 556 343 399 q 360 822 343 713 q 415 1001 378 932 q 508 1101 451 1069 q 647 1133 565 1133 q 785 1101 728 1133 q 878 1001 842 1069 q 930 822 914 932 q 946 556 946 713 q 930 289 946 399 q 878 110 914 179 q 785 10 842 42 q 647 -22 728 -22 m 642 126 q 710 149 682 126 q 756 222 739 171 q 780 354 772 272 q 788 556 788 436 q 780 757 788 675 q 756 890 772 839 q 710 963 739 940 q 642 985 682 985 q 573 963 601 985 q 528 890 544 940 q 503 757 511 839 q 496 556 496 675 q 503 354 496 436 q 528 222 511 272 q 573 149 544 171 q 642 126 601 126 z "},"Я":{"ha":972,"x_min":56,"x_max":813,"o":"m 654 0 l 654 451 l 450 451 q 264 492 343 451 q 141 605 185 532 q 97 776 97 678 q 141 954 97 879 q 264 1070 185 1029 q 450 1111 343 1111 l 813 1111 l 813 0 l 654 0 m 56 0 l 393 479 l 565 479 l 235 0 l 56 0 m 457 589 l 654 589 l 654 963 l 457 963 q 309 913 363 963 q 256 775 256 863 q 309 639 256 689 q 457 589 363 589 z "},"Ҫ":{"ha":972,"x_min":113,"x_max":896,"o":"m 510 -22 q 212 122 311 -22 q 113 556 113 265 q 215 990 113 846 q 522 1133 317 1133 q 714 1086 633 1133 q 841 948 794 1039 q 896 726 888 857 l 750 726 q 673 919 731 853 q 522 985 615 985 q 332 881 393 985 q 271 556 271 776 q 328 231 271 335 q 510 126 386 126 q 653 188 599 126 q 725 365 707 249 l 871 365 q 818 155 863 242 q 695 23 774 68 q 510 -22 617 -22 m 488 28 l 607 28 l 586 -57 q 667 -97 639 -67 q 694 -171 694 -126 q 647 -266 694 -232 q 513 -300 599 -300 q 385 -267 432 -300 q 335 -175 339 -235 l 450 -175 q 472 -201 456 -192 q 513 -211 488 -211 q 549 -199 536 -211 q 563 -168 563 -187 q 550 -136 563 -149 q 513 -122 538 -124 l 456 -115 l 488 28 z "},"Ӑ":{"ha":972,"x_min":72,"x_max":900,"o":"m 72 0 l 357 1111 l 615 1111 l 900 0 l 735 0 l 489 993 l 475 993 l 228 0 l 72 0 m 246 376 l 246 526 l 726 526 l 726 376 l 246 376 m 383 1431 q 414 1353 388 1379 q 486 1328 440 1328 q 559 1353 533 1328 q 589 1431 585 1379 l 724 1431 q 656 1275 715 1328 q 486 1222 596 1222 q 317 1275 376 1222 q 249 1431 257 1328 l 383 1431 z "},"Ӗ":{"ha":972,"x_min":194,"x_max":851,"o":"m 194 0 l 194 1111 l 851 1111 l 851 963 l 353 963 l 353 629 l 782 629 l 782 490 l 353 490 l 353 149 l 838 149 l 838 0 l 194 0 m 432 1431 q 463 1353 436 1379 q 535 1328 489 1328 q 608 1353 582 1328 q 638 1431 633 1379 l 772 1431 q 704 1275 764 1328 q 535 1222 644 1222 q 365 1275 425 1222 q 297 1431 306 1328 l 432 1431 z "},"Ӳ":{"ha":972,"x_min":90,"x_max":900,"o":"m 257 1111 l 517 496 l 656 496 l 608 363 l 411 363 l 90 1111 l 257 1111 m 746 1111 l 900 1111 l 651 215 q 597 81 629 133 q 522 3 565 28 q 421 -22 479 -22 q 267 38 324 -22 q 193 215 210 97 l 335 215 q 367 140 347 163 q 418 117 388 117 q 468 145 447 117 q 508 247 489 174 l 746 1111 m 283 1236 l 403 1444 l 575 1444 l 414 1236 l 283 1236 m 546 1236 l 707 1444 l 890 1444 l 688 1236 l 546 1236 z "},"а":{"ha":972,"x_min":107,"x_max":808,"o":"m 675 521 l 675 386 l 425 347 q 338 307 367 338 q 310 226 310 276 q 345 150 310 179 q 436 121 381 121 q 548 150 497 121 q 629 228 599 179 q 660 338 660 278 l 660 542 q 611 668 660 622 q 478 714 563 714 q 371 694 418 714 q 294 638 324 675 q 253 546 264 600 l 107 546 q 162 711 114 642 q 292 818 210 781 q 482 856 374 856 q 723 776 638 856 q 808 551 808 697 l 808 0 l 660 0 l 660 76 l 618 76 q 531 4 585 29 q 400 -21 478 -21 q 267 9 324 -21 q 180 93 211 39 q 149 219 149 147 q 215 391 149 324 q 406 478 282 458 l 675 521 z "},"б":{"ha":972,"x_min":108,"x_max":864,"o":"m 488 -22 q 207 110 306 -22 q 108 486 108 243 q 205 947 108 794 q 503 1108 301 1099 l 615 1114 q 670 1131 656 1117 q 686 1181 685 1146 l 838 1181 q 812 1049 835 1094 q 742 986 789 1004 q 619 964 696 968 l 503 957 q 335 882 396 951 q 260 679 275 813 l 278 679 q 375 769 314 739 q 515 800 436 800 q 699 749 621 800 q 821 607 778 699 q 864 392 864 515 q 817 173 864 267 q 687 28 771 79 q 488 -22 603 -22 m 493 121 q 654 193 596 121 q 713 392 713 265 q 654 590 713 518 q 493 663 596 663 q 331 590 389 663 q 274 392 274 518 q 331 193 274 265 q 493 121 389 121 z "},"в":{"ha":972,"x_min":182,"x_max":839,"o":"m 182 0 l 182 833 l 546 833 q 752 772 679 833 q 825 600 825 711 q 794 502 825 546 q 710 439 763 458 l 710 422 q 804 351 769 401 q 839 233 839 300 q 765 61 839 122 q 554 0 690 0 l 182 0 m 335 142 l 556 142 q 653 169 619 142 q 688 247 688 196 q 653 326 688 299 q 556 353 619 353 l 335 353 l 335 142 m 335 486 l 547 486 q 645 513 611 486 q 679 589 679 540 q 645 665 679 638 q 547 692 611 692 l 335 692 l 335 486 z "},"г":{"ha":972,"x_min":274,"x_max":840,"o":"m 274 0 l 274 833 l 840 833 l 840 690 l 426 690 l 426 0 l 274 0 z "},"ґ":{"ha":972,"x_min":274,"x_max":840,"o":"m 688 819 l 688 1072 l 840 1072 l 840 819 l 688 819 m 274 0 l 274 833 l 840 833 l 840 690 l 426 690 l 426 0 l 274 0 z "},"д":{"ha":972,"x_min":74,"x_max":899,"o":"m 74 -211 l 74 143 l 126 143 q 169 206 151 172 q 197 290 186 240 q 214 410 207 339 q 225 585 221 482 q 233 833 229 689 l 796 833 l 796 143 l 899 143 l 899 -211 l 754 -211 l 754 0 l 218 0 l 218 -211 l 74 -211 m 296 143 l 643 143 l 643 690 l 375 690 q 364 475 369 563 q 350 326 358 388 q 329 222 342 265 q 296 143 317 179 z "},"е":{"ha":972,"x_min":133,"x_max":863,"o":"m 249 501 l 750 501 l 699 429 q 649 643 699 569 q 503 717 599 717 q 340 640 399 717 q 282 424 282 563 q 340 196 282 275 q 507 117 399 117 q 631 152 578 117 q 719 256 683 188 l 863 256 q 792 107 842 169 q 670 11 743 44 q 507 -22 597 -22 q 306 31 390 -22 q 178 183 222 83 q 133 424 133 283 q 178 653 133 557 q 307 803 224 750 q 503 856 390 856 q 685 806 610 856 q 800 660 760 756 q 840 431 840 565 q 840 399 840 415 q 838 367 839 382 l 249 367 l 249 501 z "},"ё":{"ha":972,"x_min":133,"x_max":863,"o":"m 249 501 l 750 501 l 699 429 q 649 643 699 569 q 503 717 599 717 q 340 640 399 717 q 282 424 282 563 q 340 196 282 275 q 507 117 399 117 q 631 152 578 117 q 719 256 683 188 l 863 256 q 792 107 842 169 q 670 11 743 44 q 507 -22 597 -22 q 306 31 390 -22 q 178 183 222 83 q 133 424 133 283 q 178 653 133 557 q 307 803 224 750 q 503 856 390 856 q 685 806 610 856 q 800 660 760 756 q 840 431 840 565 q 840 399 840 415 q 838 367 839 382 l 249 367 l 249 501 m 329 969 q 253 997 281 969 q 225 1069 225 1024 q 253 1142 225 1115 q 329 1169 281 1169 q 406 1142 378 1169 q 433 1069 433 1115 q 406 997 433 1024 q 329 969 378 969 m 665 969 q 589 997 617 969 q 561 1069 561 1024 q 589 1142 561 1115 q 665 1169 617 1169 q 742 1142 714 1169 q 769 1069 769 1115 q 742 997 769 1024 q 665 969 714 969 z "},"ж":{"ha":972,"x_min":42,"x_max":931,"o":"m 750 0 l 606 289 l 594 335 l 549 335 l 549 467 l 599 467 l 610 513 l 775 833 l 931 833 l 708 410 l 918 0 l 750 0 m 54 0 l 264 410 l 42 833 l 197 833 l 363 513 l 374 467 l 424 467 l 424 335 l 378 335 l 367 289 l 222 0 l 54 0 m 411 0 l 411 833 l 561 833 l 561 0 l 411 0 z "},"з":{"ha":972,"x_min":157,"x_max":840,"o":"m 507 -22 q 269 52 360 -22 q 169 256 178 126 l 314 256 q 380 155 328 192 q 507 118 432 118 q 601 134 561 118 q 664 178 642 150 q 686 244 686 207 q 649 326 686 297 q 547 356 611 356 l 429 356 l 429 483 l 547 483 q 652 513 614 483 q 690 592 690 542 q 667 656 690 628 q 604 699 644 683 q 510 715 564 715 q 371 670 426 715 q 301 547 315 625 l 157 547 q 260 774 165 692 q 510 856 354 856 q 685 823 611 856 q 799 734 758 790 q 840 603 840 678 q 809 505 840 549 q 724 439 778 461 l 724 422 q 808 348 778 400 q 839 231 839 296 q 797 98 839 154 q 681 10 756 42 q 507 -22 607 -22 z "},"и":{"ha":972,"x_min":143,"x_max":829,"o":"m 143 0 l 143 833 l 294 833 l 294 333 l 289 101 l 306 101 l 569 833 l 829 833 l 829 0 l 678 0 l 678 500 l 683 732 l 667 732 l 403 0 l 143 0 z "},"й":{"ha":972,"x_min":143,"x_max":829,"o":"m 143 0 l 143 833 l 294 833 l 294 333 l 289 101 l 306 101 l 569 833 l 829 833 l 829 0 l 678 0 l 678 500 l 683 732 l 667 732 l 403 0 l 143 0 m 374 1153 q 404 1076 378 1101 q 476 1050 431 1050 q 549 1076 524 1050 q 579 1153 575 1101 l 714 1153 q 646 997 706 1050 q 476 944 586 944 q 307 997 367 944 q 239 1153 247 1050 l 374 1153 z "},"к":{"ha":972,"x_min":207,"x_max":876,"o":"m 671 0 l 314 406 l 685 833 l 876 833 l 510 411 l 872 0 l 671 0 m 207 0 l 207 833 l 360 833 l 360 0 l 207 0 z "},"л":{"ha":972,"x_min":79,"x_max":815,"o":"m 79 -11 l 79 129 l 104 129 q 163 137 140 129 q 201 169 186 144 q 223 246 215 193 q 235 388 231 299 l 251 833 l 815 833 l 815 0 l 663 0 l 663 690 l 392 690 l 381 346 q 359 153 376 225 q 311 47 342 82 q 233 1 281 13 q 121 -11 186 -11 l 79 -11 z "},"м":{"ha":972,"x_min":111,"x_max":861,"o":"m 111 0 l 111 833 l 357 833 l 483 246 l 499 246 l 622 833 l 861 833 l 861 0 l 719 0 l 719 361 l 725 722 l 710 722 l 590 153 l 385 153 l 263 722 l 247 722 l 253 361 l 253 0 l 111 0 z "},"н":{"ha":972,"x_min":157,"x_max":815,"o":"m 157 0 l 157 833 l 310 833 l 310 482 l 663 482 l 663 833 l 815 833 l 815 0 l 663 0 l 663 338 l 310 338 l 310 0 l 157 0 z "},"о":{"ha":972,"x_min":108,"x_max":864,"o":"m 486 -22 q 286 31 371 -22 q 155 183 201 85 q 108 417 108 282 q 155 650 108 551 q 286 802 201 749 q 486 856 371 856 q 687 802 603 856 q 817 650 771 749 q 864 417 864 551 q 817 183 864 282 q 687 31 771 85 q 486 -22 603 -22 m 486 121 q 653 199 593 121 q 713 417 713 276 q 653 635 713 557 q 486 713 593 713 q 319 635 379 713 q 260 417 260 557 q 319 199 260 276 q 486 121 379 121 z "},"п":{"ha":972,"x_min":165,"x_max":807,"o":"m 165 0 l 165 833 l 807 833 l 807 0 l 654 0 l 654 690 l 318 690 l 318 0 l 165 0 z "},"р":{"ha":972,"x_min":144,"x_max":885,"o":"m 144 -278 l 144 833 l 297 833 l 297 757 l 339 757 q 422 829 367 803 q 544 856 478 856 q 725 802 649 856 q 843 650 801 749 q 885 417 885 551 q 843 183 885 282 q 725 31 801 85 q 544 -22 649 -22 q 422 5 478 -22 q 339 76 367 32 l 297 76 l 297 -278 l 144 -278 m 513 121 q 674 199 617 121 q 732 417 732 276 q 674 635 732 557 q 513 713 617 713 q 349 635 407 713 q 292 417 292 557 q 349 199 292 276 q 513 121 407 121 z "},"с":{"ha":972,"x_min":133,"x_max":871,"o":"m 506 -22 q 308 31 392 -22 q 179 181 225 83 q 133 413 133 279 q 181 648 133 549 q 315 801 228 747 q 519 856 401 856 q 700 813 622 856 q 822 694 778 771 q 871 511 867 617 l 731 511 q 656 660 713 607 q 514 713 600 713 q 344 633 404 713 q 285 413 285 554 q 343 198 285 275 q 506 121 401 121 q 637 167 583 121 q 711 297 690 214 l 851 297 q 799 128 844 200 q 677 17 753 57 q 506 -22 601 -22 z "},"т":{"ha":972,"x_min":132,"x_max":840,"o":"m 410 0 l 410 690 l 132 690 l 132 833 l 840 833 l 840 690 l 563 690 l 563 0 l 410 0 z "},"у":{"ha":972,"x_min":94,"x_max":879,"o":"m 94 833 l 258 833 l 472 210 l 569 210 l 526 69 l 360 69 l 94 833 m 879 833 l 572 -121 q 489 -253 544 -206 q 360 -300 433 -300 q 193 -242 254 -300 q 124 -72 132 -183 l 263 -72 q 299 -139 279 -118 q 354 -160 319 -160 q 403 -140 385 -160 q 438 -76 422 -121 l 728 833 l 879 833 z "},"ў":{"ha":972,"x_min":94,"x_max":879,"o":"m 94 833 l 258 833 l 472 210 l 569 210 l 526 69 l 360 69 l 94 833 m 879 833 l 572 -121 q 489 -253 544 -206 q 360 -300 433 -300 q 193 -242 254 -300 q 124 -72 132 -183 l 263 -72 q 299 -139 279 -118 q 354 -160 319 -160 q 403 -140 385 -160 q 438 -76 422 -121 l 728 833 l 879 833 m 390 1153 q 421 1076 394 1101 q 493 1050 447 1050 q 566 1076 540 1050 q 596 1153 592 1101 l 731 1153 q 663 997 722 1050 q 493 944 603 944 q 324 997 383 944 q 256 1153 264 1050 l 390 1153 z "},"ф":{"ha":972,"x_min":67,"x_max":906,"o":"m 410 -278 l 410 -22 l 385 -22 q 217 31 288 -22 q 106 184 146 85 q 67 418 67 283 q 106 651 67 553 q 217 802 146 749 q 385 856 288 856 l 410 856 l 410 1111 l 563 1111 l 563 856 l 588 856 q 756 802 685 856 q 867 651 828 749 q 906 418 906 553 q 867 184 906 283 q 756 31 828 85 q 588 -22 685 -22 l 563 -22 l 563 -278 l 410 -278 m 385 121 l 410 121 l 410 713 l 385 713 q 262 636 306 713 q 218 418 218 560 q 238 258 218 324 q 295 156 258 192 q 385 121 332 121 m 563 121 l 588 121 q 677 156 640 121 q 734 258 714 192 q 754 418 754 324 q 710 636 754 560 q 588 713 667 713 l 563 713 l 563 121 z "},"х":{"ha":972,"x_min":100,"x_max":872,"o":"m 115 0 l 358 396 l 100 833 l 278 833 l 467 513 l 479 472 l 493 472 l 506 513 l 706 833 l 872 833 l 608 410 l 857 0 l 675 0 l 500 289 l 488 329 l 474 329 l 461 289 l 285 0 l 115 0 z "},"ч":{"ha":972,"x_min":132,"x_max":790,"o":"m 638 0 l 638 311 q 547 289 594 297 q 440 281 499 281 q 210 356 288 281 q 132 574 132 431 l 132 833 l 285 833 l 285 574 q 328 460 285 497 q 463 422 371 422 q 554 430 513 422 q 638 453 596 438 l 638 833 l 790 833 l 790 0 l 638 0 z "},"ц":{"ha":972,"x_min":157,"x_max":901,"o":"m 757 -211 l 757 0 l 157 0 l 157 833 l 310 833 l 310 143 l 647 143 l 647 833 l 800 833 l 800 143 l 901 143 l 901 -211 l 757 -211 z "},"ш":{"ha":972,"x_min":82,"x_max":890,"o":"m 82 0 l 82 833 l 224 833 l 224 143 l 415 143 l 415 833 l 557 833 l 557 143 l 749 143 l 749 833 l 890 833 l 890 0 l 82 0 z "},"щ":{"ha":972,"x_min":83,"x_max":938,"o":"m 793 -211 l 793 0 l 83 0 l 83 833 l 225 833 l 225 143 l 389 143 l 389 833 l 531 833 l 531 143 l 693 143 l 693 833 l 835 833 l 835 143 l 938 143 l 938 -211 l 793 -211 z "},"ь":{"ha":972,"x_min":208,"x_max":865,"o":"m 208 0 l 208 833 l 361 833 l 361 558 l 565 558 q 785 484 704 558 q 865 279 865 410 q 785 74 865 149 q 565 0 704 0 l 208 0 m 361 144 l 565 144 q 675 180 636 144 q 714 281 714 215 q 675 381 714 346 q 565 417 636 417 l 361 417 l 361 144 z "},"ы":{"ha":972,"x_min":79,"x_max":893,"o":"m 79 0 l 79 833 l 232 833 l 232 558 l 328 558 q 542 484 464 558 q 619 279 619 410 q 542 74 619 149 q 328 0 464 0 l 79 0 m 232 144 l 338 144 q 433 181 399 144 q 468 281 468 217 q 433 381 468 344 q 338 417 399 417 l 232 417 l 232 144 m 740 0 l 740 833 l 893 833 l 893 0 l 740 0 z "},"ъ":{"ha":972,"x_min":68,"x_max":910,"o":"m 279 0 l 279 690 l 68 690 l 68 833 l 432 833 l 432 558 l 610 558 q 829 484 749 558 q 910 279 910 410 q 829 74 910 149 q 610 0 749 0 l 279 0 m 432 144 l 610 144 q 719 180 681 144 q 758 281 758 215 q 719 381 758 346 q 610 417 681 417 l 432 417 l 432 144 z "},"є":{"ha":972,"x_min":133,"x_max":871,"o":"m 267 346 l 267 479 l 613 479 l 613 346 l 267 346 m 506 -22 q 308 31 392 -22 q 179 181 225 83 q 133 413 133 279 q 181 648 133 549 q 315 801 228 747 q 519 856 401 856 q 700 813 622 856 q 822 694 778 771 q 871 511 867 617 l 731 511 q 656 660 713 607 q 514 713 600 713 q 344 633 404 713 q 285 413 285 554 q 343 198 285 275 q 506 121 401 121 q 637 167 583 121 q 711 297 690 214 l 851 297 q 799 128 844 200 q 677 17 753 57 q 506 -22 601 -22 z "},"э":{"ha":972,"x_min":101,"x_max":839,"o":"m 706 346 l 360 346 l 360 479 l 706 479 l 706 346 m 467 -22 q 295 17 371 -22 q 174 128 219 57 q 121 297 128 200 l 261 297 q 337 167 283 214 q 467 121 390 121 q 629 198 571 121 q 688 413 688 275 q 628 633 688 554 q 458 713 568 713 q 317 660 374 713 q 242 511 260 607 l 101 511 q 150 694 106 617 q 272 813 194 771 q 453 856 350 856 q 658 801 572 856 q 792 648 744 747 q 839 413 839 549 q 793 181 839 279 q 664 31 747 83 q 467 -22 581 -22 z "},"і":{"ha":972,"x_min":201,"x_max":858,"o":"m 201 833 l 607 833 l 607 143 l 858 143 l 858 0 l 201 0 l 201 143 l 454 143 l 454 690 l 201 690 l 201 833 m 519 957 q 435 987 465 957 q 404 1069 404 1017 q 435 1152 404 1122 q 519 1182 465 1182 q 604 1152 574 1182 q 635 1069 635 1122 q 604 987 635 1017 q 519 957 574 957 z "},"ї":{"ha":972,"x_min":201,"x_max":858,"o":"m 201 833 l 607 833 l 607 143 l 858 143 l 858 0 l 201 0 l 201 143 l 454 143 l 454 690 l 201 690 l 201 833 m 351 969 q 275 997 303 969 q 247 1069 247 1024 q 275 1142 247 1115 q 351 1169 303 1169 q 428 1142 400 1169 q 456 1069 456 1115 q 428 997 456 1024 q 351 969 400 969 m 688 969 q 611 997 639 969 q 583 1069 583 1024 q 611 1142 583 1115 q 688 1169 639 1169 q 764 1142 736 1169 q 792 1069 792 1115 q 764 997 792 1024 q 688 969 736 969 z "},"ю":{"ha":972,"x_min":79,"x_max":943,"o":"m 644 -22 q 477 26 543 -22 q 378 172 411 74 q 346 418 346 271 q 378 663 346 565 q 477 808 411 760 q 644 856 543 856 q 810 808 744 856 q 910 663 876 760 q 943 418 943 565 q 910 172 943 271 q 810 26 876 74 q 644 -22 744 -22 m 79 0 l 79 833 l 232 833 l 232 482 l 371 482 l 371 338 l 232 338 l 232 0 l 79 0 m 642 121 q 726 152 693 121 q 774 249 758 183 q 790 418 790 315 q 774 585 790 521 q 726 681 758 650 q 642 713 693 713 q 558 681 590 713 q 509 585 525 650 q 493 418 493 521 q 509 249 493 315 q 558 152 525 183 q 642 121 590 121 z "},"я":{"ha":972,"x_min":135,"x_max":793,"o":"m 640 0 l 640 306 l 457 306 q 299 338 365 306 q 197 428 232 369 q 161 569 161 488 q 197 710 161 651 q 299 801 232 769 q 457 833 365 833 l 793 833 l 793 0 l 640 0 m 135 0 l 372 347 l 543 347 l 311 0 l 135 0 m 457 443 l 640 443 l 640 690 l 457 690 q 351 658 389 690 q 313 567 313 625 q 351 476 313 508 q 457 443 389 443 z "},"ҫ":{"ha":972,"x_min":133,"x_max":871,"o":"m 506 -22 q 308 31 392 -22 q 179 181 225 83 q 133 413 133 279 q 181 648 133 549 q 315 801 228 747 q 519 856 401 856 q 700 813 622 856 q 822 694 778 771 q 871 511 867 617 l 731 511 q 656 660 713 607 q 514 713 600 713 q 344 633 404 713 q 285 413 285 554 q 343 198 285 275 q 506 121 401 121 q 637 167 583 121 q 711 297 690 214 l 851 297 q 799 128 844 200 q 677 17 753 57 q 506 -22 601 -22 m 482 28 l 601 28 l 581 -57 q 661 -97 633 -67 q 689 -171 689 -126 q 641 -266 689 -232 q 507 -300 593 -300 q 380 -267 426 -300 q 329 -175 333 -235 l 444 -175 q 466 -201 450 -192 q 507 -211 482 -211 q 544 -199 531 -211 q 557 -168 557 -187 q 544 -136 557 -149 q 507 -122 532 -124 l 450 -115 l 482 28 z "},"ӑ":{"ha":972,"x_min":107,"x_max":808,"o":"m 675 521 l 675 386 l 425 347 q 338 307 367 338 q 310 226 310 276 q 345 150 310 179 q 436 121 381 121 q 548 150 497 121 q 629 228 599 179 q 660 338 660 278 l 660 542 q 611 668 660 622 q 478 714 563 714 q 371 694 418 714 q 294 638 324 675 q 253 546 264 600 l 107 546 q 162 711 114 642 q 292 818 210 781 q 482 856 374 856 q 723 776 638 856 q 808 551 808 697 l 808 0 l 660 0 l 660 76 l 618 76 q 531 4 585 29 q 400 -21 478 -21 q 267 9 324 -21 q 180 93 211 39 q 149 219 149 147 q 215 391 149 324 q 406 478 282 458 l 675 521 m 376 1153 q 407 1076 381 1101 q 479 1050 433 1050 q 552 1076 526 1050 q 582 1153 578 1101 l 717 1153 q 649 997 708 1050 q 479 944 589 944 q 310 997 369 944 q 242 1153 250 1050 l 376 1153 z "},"ӗ":{"ha":972,"x_min":133,"x_max":863,"o":"m 249 501 l 750 501 l 699 429 q 649 643 699 569 q 503 717 599 717 q 340 640 399 717 q 282 424 282 563 q 340 196 282 275 q 507 117 399 117 q 631 152 578 117 q 719 256 683 188 l 863 256 q 792 107 842 169 q 670 11 743 44 q 507 -22 597 -22 q 306 31 390 -22 q 178 183 222 83 q 133 424 133 283 q 178 653 133 557 q 307 803 224 750 q 503 856 390 856 q 685 806 610 856 q 800 660 760 756 q 840 431 840 565 q 840 399 840 415 q 838 367 839 382 l 249 367 l 249 501 m 394 1153 q 425 1076 399 1101 q 497 1050 451 1050 q 570 1076 544 1050 q 600 1153 596 1101 l 735 1153 q 667 997 726 1050 q 497 944 607 944 q 328 997 388 944 q 260 1153 268 1050 l 394 1153 z "},"ӳ":{"ha":972,"x_min":94,"x_max":879,"o":"m 94 833 l 258 833 l 472 210 l 569 210 l 526 69 l 360 69 l 94 833 m 879 833 l 572 -121 q 489 -253 544 -206 q 360 -300 433 -300 q 193 -242 254 -300 q 124 -72 132 -183 l 263 -72 q 299 -139 279 -118 q 354 -160 319 -160 q 403 -140 385 -160 q 438 -76 422 -121 l 728 833 l 879 833 m 258 958 l 378 1167 l 550 1167 l 389 958 l 258 958 m 521 958 l 682 1167 l 865 1167 l 663 958 l 521 958 z "},"⁄":{"ha":972,"x_min":56,"x_max":917,"o":"m 917 1111 l 181 0 l 56 0 l 792 1111 l 917 1111 z "},"½":{"ha":972,"x_min":24,"x_max":958,"o":"m 917 1111 l 632 667 l 507 667 l 792 1111 l 917 1111 m 465 444 l 181 0 l 56 0 l 340 444 l 465 444 m 24 517 l 24 625 l 174 625 l 174 1079 l 226 1047 l 24 915 l 24 1044 l 131 1111 l 293 1111 l 293 625 l 426 625 l 426 517 l 24 517 m 557 178 l 774 301 q 822 347 804 319 q 839 404 839 374 q 815 474 839 450 q 750 499 792 499 q 687 476 713 499 q 653 414 661 454 l 533 414 q 599 555 540 503 q 750 607 657 607 q 903 554 847 607 q 958 406 958 501 q 925 294 958 344 q 825 206 892 243 l 588 72 l 578 108 l 946 108 l 946 0 l 557 0 l 557 178 z "},"¼":{"ha":972,"x_min":24,"x_max":938,"o":"m 917 1111 l 632 667 l 507 667 l 792 1111 l 917 1111 m 465 444 l 181 0 l 56 0 l 340 444 l 465 444 m 24 517 l 24 625 l 174 625 l 174 1079 l 226 1047 l 24 915 l 24 1044 l 131 1111 l 293 1111 l 293 625 l 426 625 l 426 517 l 24 517 m 854 594 l 854 267 l 938 267 l 938 158 l 854 158 l 854 0 l 735 0 l 735 158 l 463 158 l 463 288 l 676 594 l 854 594 m 544 228 l 528 267 l 735 267 l 735 589 l 796 589 l 544 228 z "},"¾":{"ha":972,"x_min":4,"x_max":939,"o":"m 917 1111 l 632 667 l 507 667 l 792 1111 l 917 1111 m 465 444 l 181 0 l 56 0 l 340 444 l 465 444 m 439 688 q 412 593 439 635 q 338 528 385 551 q 231 504 292 504 q 73 555 133 504 q 8 692 13 606 l 128 692 q 161 632 135 653 q 228 611 188 611 q 292 633 268 611 q 317 692 317 654 q 294 749 317 729 q 232 769 272 769 l 175 769 l 175 872 l 232 872 q 298 891 275 872 q 321 943 321 910 q 297 997 321 978 q 232 1017 272 1017 q 160 994 189 1017 q 122 931 131 972 l 4 931 q 72 1071 8 1018 q 235 1124 135 1124 q 341 1101 294 1124 q 414 1040 388 1079 q 440 949 440 1000 q 415 872 440 904 q 347 829 390 840 l 347 818 q 415 767 390 801 q 439 688 439 732 m 856 594 l 856 267 l 939 267 l 939 158 l 856 158 l 856 0 l 736 0 l 736 158 l 464 158 l 464 288 l 676 594 l 856 594 m 546 228 l 529 267 l 736 267 l 736 589 l 797 589 l 546 228 z "},"₀":{"ha":972,"x_min":254,"x_max":718,"o":"m 486 -162 q 314 -83 374 -162 q 254 147 254 -3 q 314 377 254 297 q 486 457 374 457 q 658 377 599 457 q 718 147 718 297 q 658 -83 718 -3 q 486 -162 599 -162 m 486 -56 q 571 -5 543 -56 q 599 147 599 46 q 571 299 599 249 q 486 350 543 350 q 402 299 431 350 q 374 147 374 249 q 402 -5 374 46 q 486 -56 431 -56 m 325 86 l 647 331 l 647 208 l 325 -36 l 325 86 z "},"₁":{"ha":972,"x_min":315,"x_max":718,"o":"m 315 -150 l 315 -42 l 465 -42 l 465 413 l 518 381 l 315 249 l 315 378 l 422 444 l 585 444 l 585 -42 l 718 -42 l 718 -150 l 315 -150 z "},"₂":{"ha":972,"x_min":278,"x_max":703,"o":"m 301 28 l 518 151 q 566 197 549 169 q 583 254 583 224 q 560 324 583 300 q 494 349 536 349 q 431 326 457 349 q 397 264 406 304 l 278 264 q 343 405 285 353 q 494 457 401 457 q 647 404 592 457 q 703 256 703 351 q 669 144 703 194 q 569 56 636 93 l 332 -78 l 322 -42 l 690 -42 l 690 -150 l 301 -150 l 301 28 z "},"₃":{"ha":972,"x_min":271,"x_max":707,"o":"m 706 21 q 678 -74 706 -32 q 605 -139 651 -115 q 497 -162 558 -162 q 340 -112 400 -162 q 275 25 279 -61 l 394 25 q 428 -35 401 -14 q 494 -56 454 -56 q 559 -34 535 -56 q 583 25 583 -12 q 561 83 583 63 q 499 103 539 103 l 442 103 l 442 206 l 499 206 q 565 224 542 206 q 588 276 588 243 q 563 331 588 311 q 499 350 539 350 q 426 328 456 350 q 389 264 397 306 l 271 264 q 338 404 275 351 q 501 457 401 457 q 608 435 561 457 q 681 373 654 413 q 707 282 707 333 q 682 206 707 238 q 614 163 657 174 l 614 151 q 681 100 657 135 q 706 21 706 65 z "},"₄":{"ha":972,"x_min":243,"x_max":718,"o":"m 633 444 l 633 117 l 718 117 l 718 8 l 633 8 l 633 -150 l 514 -150 l 514 8 l 243 8 l 243 138 l 456 444 l 633 444 m 324 78 l 307 117 l 514 117 l 514 439 l 576 439 l 324 78 z "},"₅":{"ha":972,"x_min":279,"x_max":714,"o":"m 297 444 l 701 444 l 701 336 l 365 336 l 417 396 l 417 217 l 429 217 q 472 238 447 231 q 525 246 497 246 q 663 191 611 246 q 714 44 714 136 q 655 -106 714 -50 q 496 -162 596 -162 q 347 -116 406 -162 q 279 8 288 -69 l 397 8 q 433 -41 407 -24 q 494 -58 458 -58 q 569 -31 543 -58 q 594 46 594 -3 q 569 118 594 92 q 499 144 544 144 q 445 132 469 144 q 410 97 421 119 l 297 97 l 297 444 z "},"₆":{"ha":972,"x_min":267,"x_max":706,"o":"m 486 -162 q 372 -137 422 -162 q 294 -65 322 -111 q 267 40 267 -19 q 284 135 267 89 q 339 236 301 182 l 481 444 l 614 444 l 472 242 l 485 231 q 499 233 492 232 q 515 235 507 235 q 614 210 571 235 q 681 141 657 185 q 706 40 706 97 q 678 -65 706 -19 q 601 -137 650 -111 q 486 -162 551 -162 m 386 42 q 413 -29 386 -3 q 486 -56 440 -56 q 559 -29 532 -56 q 586 42 586 -3 q 559 114 586 88 q 486 140 532 140 q 413 114 440 140 q 386 42 386 88 z "},"₇":{"ha":972,"x_min":314,"x_max":699,"o":"m 699 285 l 488 -150 l 363 -150 l 622 375 l 632 336 l 314 336 l 314 444 l 699 444 l 699 285 z "},"₈":{"ha":972,"x_min":267,"x_max":706,"o":"m 486 201 q 560 222 535 201 q 586 276 586 242 q 560 331 586 311 q 486 350 535 350 q 413 331 439 350 q 386 276 386 311 q 413 222 386 242 q 486 201 439 201 m 267 289 q 326 412 267 367 q 486 457 385 457 q 647 412 588 457 q 706 289 706 367 q 683 209 706 243 q 618 160 660 175 l 618 147 q 681 98 660 133 q 703 13 703 63 q 644 -114 703 -67 q 486 -161 586 -161 q 328 -114 386 -161 q 269 13 269 -67 q 292 98 269 63 q 354 147 314 133 l 354 160 q 290 209 313 175 q 267 289 267 243 m 389 25 q 415 -34 389 -14 q 486 -54 440 -54 q 558 -34 532 -54 q 583 25 583 -14 q 558 83 583 63 q 486 104 532 104 q 415 83 440 104 q 389 25 389 63 z "},"₉":{"ha":972,"x_min":267,"x_max":706,"o":"m 486 457 q 601 431 551 457 q 678 360 650 406 q 706 254 706 314 q 688 159 706 206 q 633 58 671 113 l 492 -150 l 358 -150 l 500 53 l 488 64 q 474 61 482 63 q 457 60 465 60 q 358 85 401 60 q 291 154 315 110 q 267 254 267 199 q 294 360 267 314 q 372 431 322 406 q 486 457 422 457 m 586 253 q 559 324 586 297 q 486 350 532 350 q 413 324 440 350 q 386 253 386 297 q 413 181 386 208 q 486 154 440 154 q 559 181 532 154 q 586 253 586 208 z "},"⁰":{"ha":972,"x_min":254,"x_max":718,"o":"m 486 654 q 314 734 374 654 q 254 964 254 814 q 314 1194 254 1114 q 486 1274 374 1274 q 658 1194 599 1274 q 718 964 718 1114 q 658 734 718 814 q 486 654 599 654 m 486 761 q 571 812 543 761 q 599 964 599 863 q 571 1116 599 1065 q 486 1167 543 1167 q 402 1116 431 1167 q 374 964 374 1065 q 402 812 374 863 q 486 761 431 761 m 325 903 l 647 1147 l 647 1025 l 325 781 l 325 903 z "},"¹":{"ha":972,"x_min":315,"x_max":718,"o":"m 315 667 l 315 775 l 465 775 l 465 1229 l 518 1197 l 315 1065 l 315 1194 l 422 1261 l 585 1261 l 585 775 l 718 775 l 718 667 l 315 667 z "},"²":{"ha":972,"x_min":278,"x_max":703,"o":"m 301 844 l 518 968 q 566 1013 549 986 q 583 1071 583 1040 q 560 1141 583 1117 q 494 1165 536 1165 q 431 1143 457 1165 q 397 1081 406 1121 l 278 1081 q 343 1222 285 1169 q 494 1274 401 1274 q 647 1221 592 1274 q 703 1072 703 1168 q 669 960 703 1011 q 569 872 636 910 l 332 739 l 322 775 l 690 775 l 690 667 l 301 667 l 301 844 z "},"³":{"ha":972,"x_min":271,"x_max":707,"o":"m 706 838 q 678 743 706 785 q 605 678 651 701 q 497 654 558 654 q 340 705 400 654 q 275 842 279 756 l 394 842 q 428 782 401 803 q 494 761 454 761 q 559 783 535 761 q 583 842 583 804 q 561 899 583 879 q 499 919 539 919 l 442 919 l 442 1022 l 499 1022 q 565 1041 542 1022 q 588 1093 588 1060 q 563 1147 588 1128 q 499 1167 539 1167 q 426 1144 456 1167 q 389 1081 397 1122 l 271 1081 q 338 1221 275 1168 q 501 1274 401 1274 q 608 1251 561 1274 q 681 1190 654 1229 q 707 1099 707 1150 q 682 1022 707 1054 q 614 979 657 990 l 614 968 q 681 917 657 951 q 706 838 706 882 z "},"⁴":{"ha":972,"x_min":243,"x_max":718,"o":"m 633 1261 l 633 933 l 718 933 l 718 825 l 633 825 l 633 667 l 514 667 l 514 825 l 243 825 l 243 954 l 456 1261 l 633 1261 m 324 894 l 307 933 l 514 933 l 514 1256 l 576 1256 l 324 894 z "},"⁵":{"ha":972,"x_min":279,"x_max":714,"o":"m 297 1261 l 701 1261 l 701 1153 l 365 1153 l 417 1213 l 417 1033 l 429 1033 q 472 1055 447 1047 q 525 1063 497 1063 q 663 1008 611 1063 q 714 861 714 953 q 655 710 714 767 q 496 654 596 654 q 347 701 406 654 q 279 825 288 747 l 397 825 q 433 776 407 793 q 494 758 458 758 q 569 786 543 758 q 594 863 594 814 q 569 935 594 908 q 499 961 544 961 q 445 949 469 961 q 410 914 421 936 l 297 914 l 297 1261 z "},"⁶":{"ha":972,"x_min":267,"x_max":706,"o":"m 486 654 q 372 680 422 654 q 294 751 322 706 q 267 857 267 797 q 284 952 267 906 q 339 1053 301 999 l 481 1261 l 614 1261 l 472 1058 l 485 1047 q 499 1050 492 1049 q 515 1051 507 1051 q 614 1026 571 1051 q 681 958 657 1001 q 706 857 706 914 q 678 751 706 797 q 601 680 650 706 q 486 654 551 654 m 386 858 q 413 788 386 814 q 486 761 440 761 q 559 788 532 761 q 586 858 586 814 q 559 931 586 904 q 486 957 532 957 q 413 931 440 957 q 386 858 386 904 z "},"⁷":{"ha":972,"x_min":314,"x_max":699,"o":"m 699 1101 l 488 667 l 363 667 l 622 1192 l 632 1153 l 314 1153 l 314 1261 l 699 1261 l 699 1101 z "},"⁸":{"ha":972,"x_min":267,"x_max":706,"o":"m 486 1018 q 560 1038 535 1018 q 586 1093 586 1058 q 560 1147 586 1128 q 486 1167 535 1167 q 413 1147 439 1167 q 386 1093 386 1128 q 413 1038 386 1058 q 486 1018 439 1018 m 267 1106 q 326 1228 267 1183 q 486 1274 385 1274 q 647 1228 588 1274 q 706 1106 706 1183 q 683 1026 706 1060 q 618 976 660 992 l 618 964 q 681 915 660 950 q 703 829 703 879 q 644 703 703 750 q 486 656 586 656 q 328 703 386 656 q 269 829 269 750 q 292 915 269 879 q 354 964 314 950 l 354 976 q 290 1026 313 992 q 267 1106 267 1060 m 389 842 q 415 783 389 803 q 486 763 440 763 q 558 783 532 763 q 583 842 583 803 q 558 900 583 879 q 486 921 532 921 q 415 900 440 921 q 389 842 389 879 z "},"⁹":{"ha":972,"x_min":267,"x_max":706,"o":"m 486 1274 q 601 1248 551 1274 q 678 1176 650 1222 q 706 1071 706 1131 q 688 976 706 1022 q 633 875 671 929 l 492 667 l 358 667 l 500 869 l 488 881 q 474 878 482 879 q 457 876 465 876 q 358 901 401 876 q 291 971 315 926 q 267 1071 267 1015 q 294 1176 267 1131 q 372 1248 322 1222 q 486 1274 422 1274 m 586 1069 q 559 1140 586 1114 q 486 1167 532 1167 q 413 1140 440 1167 q 386 1069 386 1114 q 413 998 386 1025 q 486 971 440 971 q 559 998 532 971 q 586 1069 586 1025 z "}," ":{"ha":972,"x_min":0,"x_max":0,"o":""}," ":{"ha":972,"x_min":0,"x_max":0,"o":""}," ":{"ha":972,"x_min":0,"x_max":0,"o":""}," ":{"ha":972,"x_min":0,"x_max":0,"o":""},".":{"ha":972,"x_min":358,"x_max":614,"o":"m 486 -11 q 392 24 425 -11 q 358 122 358 58 q 392 219 358 185 q 486 254 425 254 q 581 219 547 254 q 614 122 614 185 q 581 24 614 58 q 486 -11 547 -11 z "},",":{"ha":972,"x_min":342,"x_max":628,"o":"m 342 -250 q 433 -140 393 -208 q 486 0 474 -72 l 486 254 q 594 213 560 254 q 628 85 628 171 q 617 -40 628 22 q 586 -157 606 -103 q 539 -250 567 -211 l 342 -250 m 486 -11 q 392 24 425 -11 q 358 122 358 58 q 392 219 358 185 q 486 254 425 254 q 581 219 547 254 q 614 122 614 185 q 581 24 614 58 q 486 -11 547 -11 z "},":":{"ha":972,"x_min":358,"x_max":614,"o":"m 486 -11 q 392 24 425 -11 q 358 122 358 58 q 392 219 358 185 q 486 254 425 254 q 581 219 547 254 q 614 122 614 185 q 581 24 614 58 q 486 -11 547 -11 m 486 579 q 392 614 425 579 q 358 713 358 649 q 392 810 358 775 q 486 844 425 844 q 581 810 547 844 q 614 713 614 775 q 581 614 614 649 q 486 579 547 579 z "},";":{"ha":972,"x_min":342,"x_max":628,"o":"m 486 579 q 392 614 425 579 q 358 713 358 649 q 392 810 358 775 q 486 844 425 844 q 581 810 547 844 q 614 713 614 775 q 581 614 614 649 q 486 579 547 579 m 342 -250 q 433 -140 393 -208 q 486 0 474 -72 l 486 254 q 594 213 560 254 q 628 85 628 171 q 617 -40 628 22 q 586 -157 606 -103 q 539 -250 567 -211 l 342 -250 m 486 -11 q 392 24 425 -11 q 358 122 358 58 q 392 219 358 185 q 486 254 425 254 q 581 219 547 254 q 614 122 614 185 q 581 24 614 58 q 486 -11 547 -11 z "},"…":{"ha":972,"x_min":65,"x_max":907,"o":"m 486 -11 q 410 23 436 -11 q 383 122 383 57 q 410 220 383 186 q 486 254 436 254 q 563 220 536 254 q 590 122 590 186 q 563 23 590 57 q 486 -11 536 -11 m 804 -11 q 727 23 754 -11 q 700 122 700 57 q 727 220 700 186 q 804 254 754 254 q 881 220 854 254 q 907 122 907 186 q 881 23 907 57 q 804 -11 854 -11 m 168 -11 q 92 23 118 -11 q 65 122 65 57 q 92 220 65 186 q 168 254 118 254 q 245 220 218 254 q 272 122 272 186 q 245 23 272 57 q 168 -11 218 -11 z "},"!":{"ha":972,"x_min":367,"x_max":606,"o":"m 407 1111 l 565 1111 l 565 319 l 407 319 l 407 1111 m 486 -8 q 398 20 429 -8 q 367 100 367 49 q 398 182 367 153 q 486 211 429 211 q 574 182 543 211 q 606 100 606 153 q 574 20 606 49 q 486 -8 543 -8 z "},"¡":{"ha":972,"x_min":367,"x_max":606,"o":"m 565 -275 l 407 -275 l 407 517 l 565 517 l 565 -275 m 486 844 q 574 816 543 844 q 606 735 606 788 q 574 653 606 682 q 486 625 543 625 q 398 653 429 625 q 367 735 367 682 q 398 816 367 788 q 486 844 429 844 z "},"?":{"ha":972,"x_min":140,"x_max":824,"o":"m 529 319 l 379 319 l 379 342 q 400 458 379 410 q 453 542 421 506 q 522 608 485 578 q 592 670 560 639 q 644 740 624 701 q 665 833 665 779 q 644 911 665 878 q 584 965 622 944 q 497 985 546 985 q 363 938 415 985 q 293 800 311 890 l 140 800 q 254 1048 160 963 q 499 1133 349 1133 q 667 1094 594 1133 q 782 987 740 1054 q 824 833 824 919 q 802 708 824 760 q 747 620 781 657 q 676 553 714 583 q 606 494 639 524 q 551 426 572 464 q 529 333 529 388 l 529 319 m 457 -8 q 369 20 400 -8 q 338 100 338 49 q 369 182 338 153 q 457 211 400 211 q 547 182 515 211 q 578 100 578 153 q 547 20 578 49 q 457 -8 515 -8 z "},"¿":{"ha":972,"x_min":149,"x_max":832,"o":"m 443 517 l 593 517 l 593 494 q 572 378 593 426 q 519 294 551 331 q 450 228 488 258 q 381 165 413 197 q 328 94 349 133 q 307 3 307 56 q 328 -75 307 -40 q 388 -129 350 -110 q 475 -149 426 -149 q 610 -101 557 -149 q 679 36 663 -54 l 832 36 q 718 -211 813 -125 q 474 -297 624 -297 q 305 -258 378 -297 q 190 -151 232 -219 q 149 3 149 -83 q 170 128 149 76 q 225 216 192 179 q 296 282 258 253 q 367 342 333 311 q 422 410 400 372 q 443 503 443 449 l 443 517 m 515 844 q 603 816 572 844 q 635 735 635 788 q 603 653 635 682 q 515 625 572 625 q 426 653 458 625 q 394 735 394 682 q 426 816 394 788 q 515 844 458 844 z "},"·":{"ha":972,"x_min":358,"x_max":614,"o":"m 486 422 q 392 457 425 422 q 358 556 358 492 q 392 653 358 618 q 486 688 425 688 q 581 653 547 688 q 614 556 614 618 q 581 457 614 492 q 486 422 547 422 z "},"•":{"ha":972,"x_min":219,"x_max":753,"o":"m 486 219 q 288 288 357 219 q 219 486 219 357 q 288 684 219 615 q 486 753 357 753 q 684 684 615 753 q 753 486 753 615 q 684 288 753 357 q 486 219 615 219 z "},"*":{"ha":972,"x_min":94,"x_max":878,"o":"m 647 117 l 467 410 l 486 476 l 554 475 l 779 211 l 647 117 m 325 117 l 193 211 l 418 475 l 486 476 l 506 410 l 325 117 m 429 438 l 94 518 l 144 672 l 464 540 l 486 476 l 429 438 m 486 476 l 432 518 l 406 863 l 567 863 l 540 518 l 486 476 m 543 438 l 486 476 l 508 540 l 828 672 l 878 518 l 543 438 z "},"#":{"ha":972,"x_min":64,"x_max":908,"o":"m 510 1111 l 292 0 l 167 0 l 385 1111 l 510 1111 m 806 1111 l 588 0 l 463 0 l 681 1111 l 806 1111 m 139 833 l 908 833 l 908 700 l 139 700 l 139 833 m 64 411 l 833 411 l 833 278 l 64 278 l 64 411 z "},"/":{"ha":972,"x_min":169,"x_max":803,"o":"m 803 1178 l 319 -236 l 169 -236 l 653 1178 l 803 1178 z "},"\\":{"ha":972,"x_min":169,"x_max":803,"o":"m 169 1178 l 319 1178 l 803 -236 l 653 -236 l 169 1178 z "},"-":{"ha":972,"x_min":93,"x_max":879,"o":"m 93 417 l 93 556 l 879 556 l 879 417 l 93 417 z "},"­":{"ha":972,"x_min":93,"x_max":879,"o":"m 93 417 l 93 556 l 879 556 l 879 417 l 93 417 z "},"–":{"ha":972,"x_min":94,"x_max":878,"o":"m 94 556 l 878 556 l 878 417 l 94 417 l 94 556 z "},"—":{"ha":972,"x_min":56,"x_max":917,"o":"m 56 556 l 917 556 l 917 417 l 56 417 l 56 556 z "},"‑":{"ha":972,"x_min":93,"x_max":879,"o":"m 93 417 l 93 556 l 879 556 l 879 417 l 93 417 z "},"_":{"ha":972,"x_min":93,"x_max":879,"o":"m 93 -208 l 93 -69 l 879 -69 l 879 -208 l 93 -208 z "},"(":{"ha":972,"x_min":306,"x_max":768,"o":"m 768 1139 q 537 931 615 1085 q 458 528 458 776 q 537 125 458 279 q 768 -83 615 -29 l 768 -222 q 513 -90 615 -186 q 358 162 410 7 q 306 528 306 317 q 358 894 306 739 q 513 1145 410 1049 q 768 1278 615 1242 l 768 1139 z "},")":{"ha":972,"x_min":204,"x_max":667,"o":"m 204 1139 l 204 1278 q 460 1145 357 1242 q 615 894 563 1049 q 667 528 667 739 q 615 162 667 317 q 460 -90 563 7 q 204 -222 357 -186 l 204 -83 q 435 125 357 -29 q 514 528 514 279 q 435 931 514 776 q 204 1139 357 1085 z "},"{":{"ha":972,"x_min":264,"x_max":810,"o":"m 810 1139 q 640 1088 693 1128 q 588 974 588 1049 q 601 875 588 924 q 615 764 615 826 q 565 623 615 682 q 426 542 514 564 l 426 528 l 264 528 l 264 603 q 419 662 371 619 q 468 781 468 704 q 454 876 468 832 q 440 974 440 921 q 533 1190 440 1117 q 810 1267 625 1263 l 810 1139 m 810 -83 l 810 -211 q 533 -133 625 -206 q 440 82 440 -60 q 454 180 440 136 q 468 275 468 224 q 419 394 468 351 q 264 453 371 436 l 264 528 l 426 528 l 426 514 q 565 433 514 492 q 615 292 615 374 q 601 181 615 231 q 588 82 588 132 q 640 -33 588 7 q 810 -83 693 -72 z "},"}":{"ha":972,"x_min":163,"x_max":708,"o":"m 163 1139 l 163 1267 q 440 1190 347 1263 q 532 974 532 1117 q 518 876 532 921 q 504 781 504 832 q 553 662 504 704 q 708 603 601 619 l 708 528 l 546 528 l 546 542 q 408 623 458 564 q 357 764 357 682 q 371 875 357 826 q 385 974 385 924 q 332 1088 385 1049 q 163 1139 279 1128 m 163 -83 q 332 -33 279 -72 q 385 82 385 7 q 371 181 385 132 q 357 292 357 231 q 408 433 357 374 q 546 514 458 492 l 546 528 l 708 528 l 708 453 q 553 394 601 436 q 504 275 504 351 q 518 180 504 224 q 532 82 532 136 q 440 -133 532 -60 q 163 -211 347 -206 l 163 -83 z "},"[":{"ha":972,"x_min":361,"x_max":768,"o":"m 768 1250 l 768 1111 l 511 1111 l 511 -56 l 768 -56 l 768 -194 l 361 -194 l 361 1250 l 768 1250 z "},"]":{"ha":972,"x_min":204,"x_max":611,"o":"m 204 1250 l 611 1250 l 611 -194 l 204 -194 l 204 -56 l 461 -56 l 461 1111 l 204 1111 l 204 1250 z "},"‚":{"ha":972,"x_min":342,"x_max":628,"o":"m 342 -250 q 433 -140 393 -208 q 486 0 474 -72 l 486 254 q 594 213 560 254 q 628 85 628 171 q 617 -40 628 22 q 586 -157 606 -103 q 539 -250 567 -211 l 342 -250 m 486 -11 q 392 24 425 -11 q 358 122 358 58 q 392 219 358 185 q 486 254 425 254 q 581 219 547 254 q 614 122 614 185 q 581 24 614 58 q 486 -11 547 -11 z "},"„":{"ha":972,"x_min":139,"x_max":793,"o":"m 139 -250 q 231 -140 190 -208 q 283 0 271 -72 l 283 254 q 391 213 357 254 q 425 85 425 171 q 414 -40 425 22 q 383 -157 403 -103 q 336 -250 364 -211 l 139 -250 m 283 -11 q 189 24 222 -11 q 156 122 156 58 q 189 219 156 185 q 283 254 222 254 q 378 219 344 254 q 411 122 411 185 q 378 24 411 58 q 283 -11 344 -11 m 506 -250 q 597 -140 557 -208 q 650 0 638 -72 l 650 254 q 758 213 724 254 q 792 85 792 171 q 781 -40 792 22 q 750 -157 769 -103 q 703 -250 731 -211 l 506 -250 m 650 -11 q 556 24 589 -11 q 522 122 522 58 q 556 219 522 185 q 650 254 589 254 q 744 219 711 254 q 778 122 778 185 q 744 24 778 58 q 650 -11 711 -11 z "},"“":{"ha":972,"x_min":179,"x_max":833,"o":"m 833 1178 q 742 1069 782 1136 q 689 928 701 1001 l 689 674 q 581 715 617 674 q 546 843 546 757 q 557 969 546 907 q 588 1085 568 1031 q 635 1178 608 1140 l 833 1178 m 689 939 q 783 904 750 939 q 817 806 817 869 q 783 708 817 743 q 689 674 750 674 q 594 708 628 674 q 560 806 560 743 q 594 904 560 869 q 689 939 628 939 m 467 1178 q 375 1069 415 1136 q 322 928 335 1001 l 322 674 q 215 715 250 674 q 179 843 179 757 q 190 969 179 907 q 222 1085 201 1031 q 268 1178 242 1140 l 467 1178 m 322 939 q 417 904 383 939 q 450 806 450 869 q 417 708 450 743 q 322 674 383 674 q 227 708 261 674 q 193 806 193 743 q 227 904 193 869 q 322 939 261 939 z "},"”":{"ha":972,"x_min":139,"x_max":793,"o":"m 139 696 q 231 806 190 738 q 283 946 271 874 l 283 1200 q 391 1158 357 1200 q 425 1031 425 1117 q 414 906 425 968 q 383 789 403 843 q 336 696 364 735 l 139 696 m 283 935 q 189 969 222 935 q 156 1068 156 1004 q 189 1165 156 1131 q 283 1200 222 1200 q 378 1165 344 1200 q 411 1068 411 1131 q 378 969 411 1004 q 283 935 344 935 m 506 696 q 597 806 557 738 q 650 946 638 874 l 650 1200 q 758 1158 724 1200 q 792 1031 792 1117 q 781 906 792 968 q 750 789 769 843 q 703 696 731 735 l 506 696 m 650 935 q 556 969 589 935 q 522 1068 522 1004 q 556 1165 522 1131 q 650 1200 589 1200 q 744 1165 711 1200 q 778 1068 778 1131 q 744 969 778 1004 q 650 935 711 935 z "},"‘":{"ha":972,"x_min":344,"x_max":631,"o":"m 631 1178 q 539 1069 579 1136 q 486 928 499 1001 l 486 674 q 379 715 414 674 q 344 843 344 757 q 356 969 344 907 q 387 1085 367 1031 q 433 1178 407 1140 l 631 1178 m 486 939 q 581 904 547 939 q 614 806 614 869 q 581 708 614 743 q 486 674 547 674 q 392 708 425 674 q 358 806 358 743 q 392 904 358 869 q 486 939 425 939 z "},"’":{"ha":972,"x_min":342,"x_max":628,"o":"m 342 696 q 433 806 393 738 q 486 946 474 874 l 486 1200 q 594 1158 560 1200 q 628 1031 628 1117 q 617 906 628 968 q 586 789 606 843 q 539 696 567 735 l 342 696 m 486 935 q 392 969 425 935 q 358 1068 358 1004 q 392 1165 358 1131 q 486 1200 425 1200 q 581 1165 547 1200 q 614 1068 614 1131 q 581 969 614 1004 q 486 935 547 935 z "},"«":{"ha":972,"x_min":197,"x_max":775,"o":"m 531 72 l 197 375 l 197 553 l 531 856 l 531 682 l 242 419 l 242 514 l 531 253 l 531 72 m 775 169 l 503 381 l 503 546 l 775 758 l 775 603 l 542 421 l 542 513 l 775 332 l 775 169 z "},"»":{"ha":972,"x_min":197,"x_max":775,"o":"m 442 856 l 775 553 l 775 375 l 442 72 l 442 246 l 731 508 l 731 414 l 442 675 l 442 856 m 197 758 l 469 547 l 469 382 l 197 169 l 197 325 l 431 507 l 431 415 l 197 596 l 197 758 z "},"‹":{"ha":972,"x_min":319,"x_max":653,"o":"m 653 72 l 319 375 l 319 553 l 653 856 l 653 682 l 364 419 l 364 514 l 653 253 l 653 72 z "},"›":{"ha":972,"x_min":319,"x_max":653,"o":"m 319 856 l 653 553 l 653 375 l 319 72 l 319 246 l 608 508 l 608 414 l 319 675 l 319 856 z "},"\"":{"ha":972,"x_min":242,"x_max":731,"o":"m 243 1178 l 413 1178 l 385 636 l 271 636 l 243 1178 m 560 1178 l 729 1178 l 701 636 l 588 636 l 560 1178 z "},"'":{"ha":972,"x_min":401,"x_max":571,"o":"m 401 1178 l 571 1178 l 543 636 l 429 636 l 401 1178 z "},"ƒ":{"ha":972,"x_min":226,"x_max":819,"o":"m 819 1178 l 819 1035 l 740 1035 q 607 994 654 1035 q 560 876 560 953 l 560 833 l 819 833 l 819 690 l 560 690 l 560 24 q 487 -199 560 -121 q 279 -278 414 -278 l 226 -278 l 226 -135 l 279 -135 q 374 -94 342 -135 q 407 24 407 -53 l 407 690 l 226 690 l 226 833 l 407 833 l 407 876 q 494 1099 407 1021 q 740 1178 581 1178 l 819 1178 z "},"@":{"ha":972,"x_min":74,"x_max":876,"o":"m 540 -300 q 290 -215 394 -300 q 129 30 185 -131 q 74 417 74 190 q 128 804 74 644 q 284 1049 182 964 q 529 1133 386 1133 q 787 1030 697 1133 q 876 731 876 926 l 876 56 l 726 56 l 726 103 l 685 103 q 565 35 649 35 q 415 132 467 35 q 363 417 363 229 q 415 701 363 604 q 565 799 467 799 q 685 731 649 799 l 726 731 q 676 922 726 857 q 529 986 626 986 q 297 840 378 986 q 215 417 215 693 q 300 -17 215 133 q 540 -167 385 -167 q 634 -155 588 -167 q 715 -121 681 -143 l 715 -251 q 634 -287 681 -275 q 540 -300 588 -300 m 625 179 q 707 235 682 179 q 732 417 732 290 q 707 599 732 544 q 625 654 682 654 q 544 599 569 654 q 518 417 518 544 q 544 235 518 290 q 625 179 569 179 z "},"&":{"ha":972,"x_min":106,"x_max":915,"o":"m 406 -22 q 251 15 319 -22 q 144 120 183 53 q 106 274 106 188 q 132 413 106 353 q 201 519 158 474 q 295 600 243 564 q 399 668 347 636 q 493 732 450 700 q 562 801 536 764 q 588 886 588 839 q 562 962 588 935 q 490 989 536 989 q 416 957 443 989 q 389 868 389 925 q 399 804 389 835 q 425 742 408 774 q 467 675 442 711 l 915 0 l 735 0 l 339 596 q 283 690 307 644 q 247 780 260 735 q 235 872 235 825 q 267 1009 235 950 q 356 1101 299 1068 q 490 1133 414 1133 q 617 1103 563 1133 q 701 1019 671 1074 q 732 892 732 965 q 706 774 732 825 q 639 681 681 722 q 548 606 597 640 q 448 537 499 571 q 356 465 397 503 q 289 383 314 428 q 264 279 264 339 q 283 199 264 233 q 336 147 301 165 q 417 128 371 128 q 569 176 508 128 q 669 319 631 225 q 726 550 707 414 l 875 550 q 817 317 857 422 q 718 137 778 213 q 580 19 658 61 q 406 -22 501 -22 z "},"¶":{"ha":972,"x_min":110,"x_max":782,"o":"m 782 1111 l 782 -278 l 651 -278 l 651 1111 l 782 1111 m 110 722 l 110 806 q 142 963 110 894 q 231 1072 175 1032 q 357 1111 286 1111 l 511 1111 l 511 -278 l 381 -278 l 381 417 l 357 417 q 231 456 286 417 q 142 565 175 496 q 110 722 110 633 z "},"§":{"ha":972,"x_min":160,"x_max":813,"o":"m 644 847 q 596 953 635 917 q 493 989 557 989 q 403 962 438 989 q 368 890 368 935 q 392 822 368 851 q 464 774 417 792 l 608 718 q 758 606 704 682 q 813 432 813 529 q 771 276 813 344 q 656 172 729 207 l 483 236 l 483 242 l 489 242 q 613 291 565 242 q 660 417 660 340 q 613 542 660 493 q 489 592 565 592 l 483 592 l 314 658 l 324 688 q 242 775 269 725 q 215 886 215 825 q 250 1015 215 960 q 347 1102 285 1071 q 494 1133 410 1133 q 703 1059 626 1133 q 785 847 779 985 l 644 847 m 328 -14 q 377 -119 339 -83 q 479 -156 415 -156 q 569 -128 535 -156 q 604 -57 604 -101 q 580 13 604 -17 q 508 60 556 42 l 364 115 q 214 228 268 151 q 160 401 160 304 q 201 558 160 490 q 317 661 243 626 l 489 597 l 489 592 l 483 592 q 360 542 407 592 q 313 417 313 493 q 360 291 313 340 q 483 242 407 242 l 489 242 l 658 175 l 649 146 q 730 59 703 108 q 757 -53 757 10 q 722 -182 757 -126 q 625 -269 688 -237 q 478 -300 563 -300 q 269 -226 346 -300 q 188 -14 193 -151 l 328 -14 z "},"©":{"ha":972,"x_min":81,"x_max":892,"o":"m 486 28 q 268 90 360 28 q 128 271 176 153 q 81 556 81 389 q 128 840 81 722 q 268 1021 176 958 q 486 1083 360 1083 q 705 1021 614 1083 q 844 840 796 958 q 892 556 892 722 q 844 271 892 389 q 705 90 796 153 q 486 28 614 28 m 486 142 q 703 249 628 142 q 778 556 778 356 q 703 863 778 757 q 486 969 628 969 q 269 863 344 969 q 194 556 194 757 q 269 249 194 356 q 486 142 344 142 m 689 489 q 633 318 685 378 q 494 258 582 258 q 336 333 390 258 q 282 556 282 408 q 337 779 282 704 q 497 854 392 854 q 645 792 594 854 q 700 606 696 729 l 583 606 q 560 702 581 671 q 500 733 539 733 q 431 690 454 733 q 408 556 408 646 q 431 423 408 467 q 496 379 453 379 q 551 406 531 379 q 574 489 571 433 l 689 489 z "},"®":{"ha":972,"x_min":167,"x_max":806,"o":"m 358 1024 l 510 1024 q 603 993 567 1024 q 639 914 639 963 q 603 837 639 867 q 510 807 567 807 l 450 807 l 450 690 l 358 690 l 358 1024 m 450 876 l 504 876 q 546 913 546 876 q 504 949 546 949 l 450 949 l 450 876 m 546 690 l 475 829 l 572 829 l 644 690 l 546 690 m 486 540 q 324 583 397 540 q 209 697 251 625 q 167 857 167 768 q 209 1017 167 946 q 324 1131 251 1089 q 486 1174 397 1174 q 649 1131 576 1174 q 763 1017 721 1089 q 806 857 806 946 q 763 697 806 768 q 649 583 721 625 q 486 540 576 540 m 486 618 q 606 650 553 618 q 691 736 660 682 q 722 857 722 790 q 691 978 722 924 q 606 1064 660 1032 q 486 1096 553 1096 q 367 1064 421 1096 q 281 978 313 1032 q 250 857 250 924 q 281 736 250 790 q 367 650 313 682 q 486 618 421 618 z "},"™":{"ha":972,"x_min":74,"x_max":871,"o":"m 207 611 l 207 1017 l 74 1017 l 74 1111 l 440 1111 l 440 1017 l 307 1017 l 307 611 l 207 611 m 500 611 l 500 1111 l 650 1111 l 681 869 l 693 869 l 725 1111 l 871 1111 l 871 611 l 775 611 l 775 796 l 782 1006 l 769 1006 l 738 768 l 632 768 l 601 1006 l 589 1006 l 596 796 l 596 611 l 500 611 z "},"°":{"ha":972,"x_min":233,"x_max":739,"o":"m 486 633 q 358 667 415 633 q 267 757 300 700 q 233 883 233 814 q 267 1010 233 954 q 358 1100 300 1067 q 486 1133 415 1133 q 614 1100 557 1133 q 705 1010 671 1067 q 739 883 739 954 q 705 757 739 814 q 614 667 671 700 q 486 633 557 633 m 486 767 q 544 782 518 767 q 585 824 569 797 q 600 883 600 851 q 585 943 600 917 q 544 985 569 969 q 486 1000 518 1000 q 428 985 454 1000 q 388 943 403 969 q 372 883 372 917 q 388 824 372 851 q 428 782 403 797 q 486 767 454 767 z "},"|":{"ha":972,"x_min":421,"x_max":551,"o":"m 421 -83 l 421 1194 l 551 1194 l 551 -83 l 421 -83 z "},"¦":{"ha":972,"x_min":421,"x_max":551,"o":"m 551 1194 l 551 681 l 421 681 l 421 1194 l 551 1194 m 551 431 l 551 -83 l 421 -83 l 421 431 l 551 431 z "},"†":{"ha":972,"x_min":175,"x_max":797,"o":"m 411 -28 l 411 1139 l 561 1139 l 561 -28 l 411 -28 m 175 700 l 175 833 l 797 833 l 797 700 l 175 700 z "},"‡":{"ha":972,"x_min":175,"x_max":797,"o":"m 411 -28 l 411 1139 l 561 1139 l 561 -28 l 411 -28 m 175 278 l 175 411 l 797 411 l 797 278 l 175 278 m 175 700 l 175 833 l 797 833 l 797 700 l 175 700 z "},"№":{"ha":972,"x_min":88,"x_max":944,"o":"m 88 0 l 88 1111 l 346 1111 l 457 157 l 472 157 l 463 421 l 463 1111 l 607 1111 l 607 0 l 349 0 l 238 954 l 222 954 l 232 690 l 232 0 l 88 0 m 797 654 q 712 678 744 654 q 664 756 679 703 q 649 894 649 810 q 664 1033 649 981 q 712 1110 679 1086 q 797 1135 744 1135 q 881 1110 849 1135 q 929 1033 914 1086 q 944 894 944 981 q 929 756 944 810 q 881 678 914 703 q 797 654 849 654 m 797 761 q 823 788 817 761 q 829 894 829 814 q 823 1001 829 975 q 797 1028 817 1028 q 771 1001 778 1028 q 764 894 764 975 q 771 788 764 814 q 797 761 778 761 m 676 478 l 676 583 l 915 583 l 915 478 l 676 478 z "},"¢":{"ha":972,"x_min":133,"x_max":871,"o":"m 449 -139 l 449 972 l 560 972 l 560 -139 l 449 -139 m 506 -22 q 308 31 392 -22 q 179 181 225 83 q 133 413 133 279 q 181 648 133 549 q 315 801 228 747 q 519 856 401 856 q 700 813 622 856 q 822 694 778 771 q 871 511 867 617 l 731 511 q 656 660 713 607 q 514 713 600 713 q 344 633 404 713 q 285 413 285 554 q 343 198 285 275 q 506 121 401 121 q 637 167 583 121 q 711 297 690 214 l 851 297 q 799 128 844 200 q 677 17 753 57 q 506 -22 601 -22 z "},"¤":{"ha":972,"x_min":132,"x_max":840,"o":"m 486 194 q 340 234 406 194 q 234 340 274 274 q 194 486 194 406 q 234 633 194 567 q 340 738 274 699 q 486 778 406 778 q 633 738 567 778 q 738 633 699 699 q 778 486 778 567 q 738 340 778 406 q 633 234 699 274 q 486 194 567 194 m 211 132 l 132 211 l 250 329 l 329 250 l 211 132 m 486 319 q 570 342 532 319 q 631 403 608 365 q 653 486 653 440 q 631 570 653 532 q 570 631 608 608 q 486 653 532 653 q 403 631 440 653 q 342 570 365 608 q 319 486 319 532 q 342 403 319 440 q 403 342 365 365 q 486 319 440 319 m 250 643 l 132 761 l 211 840 l 329 722 l 250 643 m 761 132 l 643 250 l 722 329 l 840 211 l 761 132 m 722 643 l 643 722 l 761 840 l 840 761 l 722 643 z "},"$":{"ha":972,"x_min":118,"x_max":885,"o":"m 444 -139 l 444 1250 l 556 1250 l 556 -139 l 444 -139 m 269 283 q 350 167 293 207 q 496 126 407 126 q 649 175 593 126 q 704 310 704 224 q 663 413 704 372 q 546 465 622 454 l 424 483 q 206 588 279 508 q 132 800 132 667 q 178 976 132 901 q 309 1092 225 1050 q 504 1133 393 1133 q 699 1093 615 1133 q 830 978 782 1053 q 885 800 878 904 l 735 800 q 654 937 713 889 q 504 985 596 985 q 345 935 403 985 q 288 800 288 886 q 328 696 288 736 q 444 643 369 656 l 567 625 q 786 522 713 601 q 860 310 860 442 q 815 134 860 208 q 688 19 769 60 q 496 -22 606 -22 q 302 15 385 -22 q 172 120 219 51 q 118 283 124 189 l 269 283 z "},"€":{"ha":972,"x_min":56,"x_max":903,"o":"m 547 -22 q 270 123 365 -22 q 175 556 175 268 q 271 988 175 843 q 551 1133 367 1133 q 732 1088 656 1133 q 852 958 808 1043 q 903 749 896 872 l 758 749 q 691 924 743 864 q 551 985 639 985 q 383 881 438 985 q 328 556 328 776 q 381 231 328 335 q 547 126 435 126 q 671 179 624 126 q 733 335 718 232 l 878 335 q 829 142 871 222 q 716 19 788 61 q 547 -22 644 -22 m 56 382 l 56 510 l 629 510 l 629 382 l 56 382 m 56 621 l 56 749 l 629 749 l 629 621 l 56 621 z "},"₴":{"ha":972,"x_min":82,"x_max":890,"o":"m 500 -22 q 317 12 394 -22 q 197 108 239 46 q 153 256 154 171 q 178 376 154 322 q 255 478 201 431 q 394 574 308 526 l 535 649 q 640 735 608 689 q 672 844 672 781 q 650 917 672 885 q 590 967 628 949 q 503 985 551 985 q 373 948 424 985 q 303 842 322 911 l 153 842 q 261 1058 169 982 q 503 1133 353 1133 q 673 1097 599 1133 q 790 999 747 1061 q 833 856 833 936 q 808 734 833 789 q 731 631 783 679 q 590 535 678 583 l 450 460 q 347 375 378 421 q 315 267 315 329 q 365 165 315 203 q 500 126 415 126 q 625 162 578 126 q 693 269 672 197 l 843 269 q 738 52 826 126 q 500 -22 650 -22 m 82 388 l 82 501 l 890 501 l 890 388 l 82 388 m 82 610 l 82 724 l 890 724 l 890 610 l 82 610 z "},"₽":{"ha":972,"x_min":68,"x_max":908,"o":"m 213 1111 l 551 1111 q 742 1071 663 1111 q 865 956 822 1031 q 908 778 908 882 q 865 600 908 675 q 742 485 822 525 q 551 444 663 444 l 365 444 l 365 333 l 615 333 l 615 206 l 365 206 l 365 0 l 213 0 l 213 206 l 68 206 l 68 333 l 213 333 l 213 444 l 68 444 l 68 572 l 213 572 l 213 1111 m 365 586 l 557 586 q 697 636 646 586 q 747 772 747 686 q 697 908 747 858 q 557 958 646 958 l 365 958 l 365 586 z "},"£":{"ha":972,"x_min":143,"x_max":910,"o":"m 143 0 l 143 231 q 271 283 229 242 q 313 397 313 324 q 299 489 313 446 q 266 576 285 532 q 233 674 247 621 q 219 796 219 726 q 263 976 219 900 q 381 1092 306 1051 q 558 1133 457 1133 q 810 1040 719 1133 q 910 772 901 947 l 760 772 q 695 933 744 881 q 558 985 646 985 q 425 935 475 985 q 375 804 375 885 q 389 701 375 747 q 422 610 403 654 q 454 518 440 565 q 468 411 468 471 q 422 245 468 307 q 282 165 375 183 l 282 149 l 854 149 l 854 0 l 143 0 m 143 444 l 143 578 l 711 578 l 711 444 l 143 444 z "},"¥":{"ha":972,"x_min":57,"x_max":915,"o":"m 163 413 l 163 540 l 810 540 l 810 413 l 163 413 m 163 174 l 163 301 l 810 301 l 810 174 l 163 174 m 228 1111 l 468 667 l 483 617 l 497 617 l 511 667 l 756 1111 l 915 1111 l 565 476 l 565 0 l 407 0 l 407 476 l 57 1111 l 228 1111 z "},"+":{"ha":972,"x_min":93,"x_max":879,"o":"m 417 93 l 417 417 l 93 417 l 93 556 l 417 556 l 417 879 l 556 879 l 556 556 l 879 556 l 879 417 l 556 417 l 556 93 l 417 93 z "},"−":{"ha":972,"x_min":93,"x_max":879,"o":"m 93 417 l 93 556 l 879 556 l 879 417 l 93 417 z "},"×":{"ha":972,"x_min":156,"x_max":817,"o":"m 247 156 l 156 247 l 394 486 l 156 725 l 247 817 l 486 578 l 725 817 l 817 725 l 578 486 l 817 247 l 725 156 l 486 394 l 247 156 z "},"÷":{"ha":972,"x_min":93,"x_max":879,"o":"m 93 417 l 93 556 l 879 556 l 879 417 l 93 417 m 486 653 q 401 683 432 653 q 371 765 371 713 q 401 848 371 818 q 486 878 432 878 q 571 848 540 878 q 601 765 601 818 q 571 683 601 713 q 486 653 540 653 m 486 94 q 401 124 432 94 q 371 207 371 154 q 401 290 371 260 q 486 319 432 319 q 571 290 540 319 q 601 207 601 260 q 571 124 601 154 q 486 94 540 94 z "},"=":{"ha":972,"x_min":125,"x_max":847,"o":"m 125 607 l 125 746 l 847 746 l 847 607 l 125 607 m 125 226 l 125 365 l 847 365 l 847 226 l 125 226 z "},"≠":{"ha":972,"x_min":125,"x_max":847,"o":"m 636 958 l 778 958 l 336 14 l 194 14 l 636 958 m 125 607 l 125 746 l 847 746 l 847 607 l 125 607 m 125 226 l 125 365 l 847 365 l 847 226 l 125 226 z "},">":{"ha":972,"x_min":157,"x_max":815,"o":"m 157 58 l 157 215 l 722 479 l 722 493 l 157 757 l 157 914 l 815 599 l 815 374 l 157 58 z "},"<":{"ha":972,"x_min":157,"x_max":815,"o":"m 815 58 l 157 374 l 157 599 l 815 914 l 815 757 l 250 493 l 250 479 l 815 215 l 815 58 z "},"±":{"ha":972,"x_min":93,"x_max":879,"o":"m 417 246 l 417 521 l 93 521 l 93 660 l 417 660 l 417 935 l 556 935 l 556 660 l 879 660 l 879 521 l 556 521 l 556 246 l 417 246 m 93 38 l 93 176 l 879 176 l 879 38 l 93 38 z "},"≈":{"ha":972,"x_min":111,"x_max":861,"o":"m 651 506 q 558 524 597 506 q 488 568 518 542 q 431 621 457 594 q 378 665 404 647 q 319 683 351 683 q 267 656 288 683 q 240 576 246 628 l 111 576 q 179 753 124 690 q 321 817 235 817 q 415 799 375 817 q 485 754 454 781 q 542 701 515 728 q 594 657 568 675 q 653 639 621 639 q 706 667 685 639 q 732 746 728 696 l 861 746 q 794 569 850 632 q 651 506 739 506 m 651 156 q 558 174 597 156 q 488 218 518 192 q 431 271 457 244 q 378 315 404 297 q 319 333 351 333 q 267 306 288 333 q 240 226 246 278 l 111 226 q 179 403 124 340 q 321 467 235 467 q 415 449 375 467 q 485 404 454 431 q 542 351 515 378 q 594 307 568 325 q 653 289 621 289 q 706 317 685 289 q 732 396 728 346 l 861 396 q 794 219 850 282 q 651 156 739 156 z "},"~":{"ha":972,"x_min":111,"x_max":861,"o":"m 651 331 q 558 349 597 331 q 488 393 518 367 q 431 446 457 419 q 378 490 404 472 q 319 508 351 508 q 267 481 288 508 q 240 401 246 453 l 111 401 q 179 578 124 515 q 321 642 235 642 q 415 624 375 642 q 485 579 454 606 q 542 526 515 553 q 594 482 568 500 q 653 464 621 464 q 706 492 685 464 q 732 571 728 521 l 861 571 q 794 394 850 457 q 651 331 739 331 z "},"¬":{"ha":972,"x_min":93,"x_max":879,"o":"m 726 149 l 726 431 l 93 431 l 93 569 l 879 569 l 879 149 l 726 149 z "},"^":{"ha":972,"x_min":160,"x_max":813,"o":"m 160 713 l 393 1133 l 579 1133 l 813 713 l 663 713 l 450 1108 l 522 1108 l 310 713 l 160 713 z "},"µ":{"ha":972,"x_min":150,"x_max":822,"o":"m 442 -22 q 303 18 363 -22 q 211 131 244 58 q 178 301 178 204 l 303 339 q 350 178 303 235 q 486 122 397 122 q 622 178 575 122 q 669 339 669 235 l 669 833 l 822 833 l 822 0 l 669 0 l 669 65 l 650 65 q 565 1 618 24 q 442 -22 511 -22 m 150 -278 l 150 833 l 303 833 l 303 339 l 303 139 l 289 139 l 303 -278 l 150 -278 z "},"%":{"ha":972,"x_min":63,"x_max":910,"o":"m 63 194 l 63 331 l 910 917 l 910 781 l 63 194 m 682 -22 q 526 42 581 -22 q 472 225 472 106 q 526 408 472 344 q 682 472 581 472 q 838 408 783 472 q 892 225 892 344 q 838 42 892 106 q 682 -22 783 -22 m 682 111 q 736 140 717 111 q 756 225 756 169 q 736 310 756 281 q 682 339 717 339 q 627 310 646 339 q 608 225 608 281 q 627 140 608 169 q 682 111 646 111 m 290 1133 q 446 1069 392 1133 q 500 886 500 1006 q 446 703 500 767 q 290 639 392 639 q 135 703 190 639 q 81 886 81 767 q 135 1069 81 1006 q 290 1133 190 1133 m 290 1000 q 236 971 256 1000 q 217 886 217 942 q 236 801 217 831 q 290 772 256 772 q 345 801 326 772 q 364 886 364 831 q 345 971 364 942 q 290 1000 326 1000 z "},"‰":{"ha":972,"x_min":31,"x_max":942,"o":"m 63 353 l 63 479 l 910 913 l 910 786 l 63 353 m 449 -22 q 310 38 358 -22 q 261 211 261 99 q 310 384 261 324 q 449 444 358 444 q 587 384 539 444 q 635 211 635 324 q 587 38 635 99 q 449 -22 539 -22 m 463 111 q 510 136 494 111 q 526 211 526 161 q 510 286 526 261 q 463 311 494 311 q 414 286 431 311 q 397 211 397 261 q 414 136 397 161 q 463 111 431 111 m 742 111 q 790 136 774 111 q 806 211 806 161 q 790 286 806 261 q 742 311 774 311 q 694 286 710 311 q 678 211 678 261 q 694 136 678 161 q 742 111 710 111 m 756 -22 q 617 38 665 -22 q 569 211 569 99 q 617 384 569 324 q 756 444 665 444 q 894 384 846 444 q 942 211 942 324 q 894 38 942 99 q 756 -22 846 -22 m 231 667 q 82 727 133 667 q 31 900 31 788 q 82 1073 31 1013 q 231 1133 133 1133 q 379 1073 328 1133 q 431 900 431 1013 q 379 727 431 788 q 231 667 328 667 m 231 800 q 278 825 263 800 q 294 900 294 850 q 278 975 294 950 q 231 1000 263 1000 q 183 975 199 1000 q 167 900 167 950 q 183 825 167 850 q 231 800 199 800 z "},"↑":{"ha":972,"x_min":69,"x_max":903,"o":"m 69 758 l 444 1133 l 528 1133 l 903 758 l 715 758 l 438 1042 l 535 1042 l 257 758 l 69 758 m 417 0 l 417 1069 l 556 1069 l 556 0 l 417 0 z "},"→":{"ha":972,"x_min":24,"x_max":949,"o":"m 574 83 l 574 271 l 857 549 l 857 451 l 574 729 l 574 917 l 949 542 l 949 458 l 574 83 m 24 431 l 24 569 l 885 569 l 885 431 l 24 431 z "},"↓":{"ha":972,"x_min":69,"x_max":903,"o":"m 69 353 l 257 353 l 535 69 l 438 69 l 715 353 l 903 353 l 528 -22 l 444 -22 l 69 353 m 417 1111 l 556 1111 l 556 42 l 417 42 l 417 1111 z "},"←":{"ha":972,"x_min":24,"x_max":949,"o":"m 399 83 l 24 458 l 24 542 l 399 917 l 399 729 l 115 451 l 115 549 l 399 271 l 399 83 m 949 431 l 88 431 l 88 569 l 949 569 l 949 431 z "},"̈":{"ha":0,"x_min":214,"x_max":758,"o":"m 318 969 q 242 997 269 969 q 214 1069 214 1024 q 242 1142 214 1115 q 318 1169 269 1169 q 394 1142 367 1169 q 422 1069 422 1115 q 394 997 422 1024 q 318 969 367 969 m 654 969 q 578 997 606 969 q 550 1069 550 1024 q 578 1142 550 1115 q 654 1169 606 1169 q 731 1142 703 1169 q 758 1069 758 1115 q 731 997 758 1024 q 654 969 703 969 z "},"̇":{"ha":0,"x_min":371,"x_max":601,"o":"m 486 957 q 401 987 432 957 q 371 1069 371 1017 q 401 1152 371 1122 q 486 1182 432 1182 q 571 1152 540 1182 q 601 1069 601 1122 q 571 987 601 1017 q 486 957 540 957 z "},"̀":{"ha":0,"x_min":279,"x_max":596,"o":"m 596 958 l 460 958 l 279 1167 l 457 1167 l 596 958 z "},"́":{"ha":0,"x_min":376,"x_max":693,"o":"m 376 958 l 515 1167 l 693 1167 l 513 958 l 376 958 z "},"̋":{"ha":0,"x_min":251,"x_max":858,"o":"m 251 958 l 371 1167 l 543 1167 l 382 958 l 251 958 m 514 958 l 675 1167 l 858 1167 l 656 958 l 514 958 z "},"̂":{"ha":0,"x_min":264,"x_max":708,"o":"m 264 958 l 397 1167 l 575 1167 l 708 958 l 575 958 l 443 1119 l 529 1119 l 397 958 l 264 958 z "},"̌":{"ha":0,"x_min":264,"x_max":708,"o":"m 708 1167 l 575 958 l 397 958 l 264 1167 l 397 1167 l 529 1006 l 443 1006 l 575 1167 l 708 1167 z "},"̆":{"ha":0,"x_min":249,"x_max":724,"o":"m 383 1153 q 414 1076 388 1101 q 486 1050 440 1050 q 559 1076 533 1050 q 589 1153 585 1101 l 724 1153 q 656 997 715 1050 q 486 944 596 944 q 317 997 376 944 q 249 1153 257 1050 l 383 1153 z "},"̊":{"ha":0,"x_min":324,"x_max":649,"o":"m 486 928 q 369 969 414 928 q 324 1076 324 1010 q 369 1184 324 1143 q 486 1225 414 1225 q 603 1184 558 1225 q 649 1076 649 1143 q 603 969 649 1010 q 486 928 558 928 m 486 1006 q 538 1026 518 1006 q 557 1076 557 1046 q 538 1128 557 1108 q 486 1147 518 1147 q 435 1128 454 1147 q 415 1076 415 1108 q 435 1026 415 1046 q 486 1006 454 1006 z "},"̃":{"ha":0,"x_min":244,"x_max":728,"o":"m 244 960 q 288 1113 253 1067 q 397 1160 324 1160 q 478 1143 449 1160 q 530 1110 508 1126 q 575 1093 551 1093 q 602 1110 593 1093 q 617 1165 611 1128 l 728 1165 q 684 1013 719 1060 q 575 965 649 965 q 494 982 524 965 q 443 1015 464 999 q 397 1032 422 1032 q 371 1015 381 1032 q 356 960 361 999 l 244 960 z "},"̄":{"ha":0,"x_min":263,"x_max":710,"o":"m 263 1000 l 263 1125 l 710 1125 l 710 1000 l 263 1000 z "},"̒":{"ha":0,"x_min":393,"x_max":586,"o":"m 489 1069 q 554 1049 529 1069 q 579 993 579 1028 q 554 938 579 958 q 489 917 529 917 q 424 938 449 917 q 399 993 399 958 q 424 1049 399 1028 q 489 1069 449 1069 m 586 1181 q 514 1115 539 1149 q 489 1058 489 1082 l 489 917 q 418 942 443 917 q 393 1014 393 967 q 408 1098 393 1054 q 450 1181 424 1142 l 586 1181 z "},"̣":{"ha":0,"x_min":371,"x_max":601,"o":"m 486 -349 q 401 -319 432 -349 q 371 -236 371 -289 q 401 -153 371 -183 q 486 -124 432 -124 q 571 -153 540 -124 q 601 -236 601 -183 q 571 -319 601 -289 q 486 -349 540 -349 z "}}}
